%TF.GenerationSoftware,KiCad,Pcbnew,(5.1.10)-1*%
%TF.CreationDate,2021-12-08T22:58:09+01:00*%
%TF.ProjectId,shield_v1,73686965-6c64-45f7-9631-2e6b69636164,rev?*%
%TF.SameCoordinates,Original*%
%TF.FileFunction,Copper,L2,Bot*%
%TF.FilePolarity,Positive*%
%FSLAX46Y46*%
G04 Gerber Fmt 4.6, Leading zero omitted, Abs format (unit mm)*
G04 Created by KiCad (PCBNEW (5.1.10)-1) date 2021-12-08 22:58:09*
%MOMM*%
%LPD*%
G01*
G04 APERTURE LIST*
%TA.AperFunction,ComponentPad*%
%ADD10C,0.300000*%
%TD*%
%TA.AperFunction,SMDPad,CuDef*%
%ADD11R,0.800000X1.800000*%
%TD*%
%TA.AperFunction,SMDPad,CuDef*%
%ADD12R,0.300000X1.600000*%
%TD*%
%TA.AperFunction,ComponentPad*%
%ADD13O,0.850000X0.850000*%
%TD*%
%TA.AperFunction,ComponentPad*%
%ADD14R,0.850000X0.850000*%
%TD*%
%TA.AperFunction,ViaPad*%
%ADD15C,0.700000*%
%TD*%
%TA.AperFunction,Conductor*%
%ADD16C,0.250000*%
%TD*%
%TA.AperFunction,Conductor*%
%ADD17C,0.200000*%
%TD*%
G04 APERTURE END LIST*
D10*
%TO.P,J5,MH2*%
%TO.N,N/C*%
X71800000Y-78000000D03*
%TO.P,J5,MH1*%
X61200000Y-78000000D03*
%TD*%
D11*
%TO.P,J4,MP2*%
%TO.N,Net-(J4-PadMP2)*%
X72489520Y-79501140D03*
%TO.P,J4,MP1*%
%TO.N,Net-(J4-PadMP1)*%
X60489520Y-79501140D03*
D10*
%TO.P,J4,MH2*%
%TO.N,N/C*%
X71789520Y-81001140D03*
%TO.P,J4,MH1*%
X61189520Y-81001140D03*
D12*
%TO.P,J4,36*%
%TO.N,GND*%
X70739520Y-81301140D03*
%TO.P,J4,35*%
%TO.N,Net-(J4-Pad35)*%
X70739520Y-77701140D03*
%TO.P,J4,34*%
%TO.N,GND*%
X70239520Y-81301140D03*
%TO.P,J4,33*%
%TO.N,Net-(J4-Pad33)*%
X70239520Y-77701140D03*
%TO.P,J4,32*%
%TO.N,+3V3*%
X69739520Y-81301140D03*
%TO.P,J4,31*%
%TO.N,Net-(J4-Pad31)*%
X69739520Y-77701140D03*
%TO.P,J4,30*%
%TO.N,+3V3*%
X69239520Y-81301140D03*
%TO.P,J4,29*%
%TO.N,Net-(J4-Pad29)*%
X69239520Y-77701140D03*
%TO.P,J4,28*%
%TO.N,SCL*%
X68739520Y-81301140D03*
%TO.P,J4,27*%
%TO.N,Net-(J4-Pad27)*%
X68739520Y-77701140D03*
%TO.P,J4,26*%
%TO.N,SDA*%
X68239520Y-81301140D03*
%TO.P,J4,25*%
%TO.N,Net-(J4-Pad25)*%
X68239520Y-77701140D03*
%TO.P,J4,24*%
%TO.N,Net-(J4-Pad24)*%
X67739520Y-81301140D03*
%TO.P,J4,23*%
%TO.N,Net-(J4-Pad23)*%
X67739520Y-77701140D03*
%TO.P,J4,22*%
%TO.N,Net-(J4-Pad22)*%
X67239520Y-81301140D03*
%TO.P,J4,21*%
%TO.N,Net-(J4-Pad21)*%
X67239520Y-77701140D03*
%TO.P,J4,20*%
%TO.N,Net-(J4-Pad20)*%
X66739520Y-81301140D03*
%TO.P,J4,19*%
%TO.N,Net-(J4-Pad19)*%
X66739520Y-77701140D03*
%TO.P,J4,18*%
%TO.N,Net-(J4-Pad18)*%
X66239520Y-81301140D03*
%TO.P,J4,17*%
%TO.N,Net-(J4-Pad17)*%
X66239520Y-77701140D03*
%TO.P,J4,16*%
%TO.N,Net-(J4-Pad16)*%
X65739520Y-81301140D03*
%TO.P,J4,15*%
%TO.N,Net-(J4-Pad15)*%
X65739520Y-77701140D03*
%TO.P,J4,14*%
%TO.N,Net-(J4-Pad14)*%
X65239520Y-81301140D03*
%TO.P,J4,13*%
%TO.N,Net-(J4-Pad13)*%
X65239520Y-77701140D03*
%TO.P,J4,12*%
%TO.N,Net-(J4-Pad12)*%
X64739520Y-81301140D03*
%TO.P,J4,11*%
%TO.N,Net-(J4-Pad11)*%
X64739520Y-77701140D03*
%TO.P,J4,10*%
%TO.N,Net-(J4-Pad10)*%
X64239520Y-81301140D03*
%TO.P,J4,9*%
%TO.N,Net-(J4-Pad9)*%
X64239520Y-77701140D03*
%TO.P,J4,8*%
%TO.N,Net-(J4-Pad8)*%
X63739520Y-81301140D03*
%TO.P,J4,7*%
%TO.N,Net-(J4-Pad7)*%
X63739520Y-77701140D03*
%TO.P,J4,6*%
%TO.N,Net-(J4-Pad6)*%
X63239520Y-81301140D03*
%TO.P,J4,5*%
%TO.N,Net-(J4-Pad5)*%
X63239520Y-77701140D03*
%TO.P,J4,4*%
%TO.N,A1*%
X62739520Y-81301140D03*
%TO.P,J4,3*%
%TO.N,Net-(J4-Pad3)*%
X62739520Y-77701140D03*
%TO.P,J4,2*%
%TO.N,Net-(J4-Pad2)*%
X62239520Y-81301140D03*
%TO.P,J4,1*%
%TO.N,Net-(J4-Pad1)*%
X62239520Y-77701140D03*
%TD*%
D13*
%TO.P,J3,2*%
%TO.N,+3V3*%
X52000000Y-72152000D03*
D14*
%TO.P,J3,1*%
%TO.N,GND*%
X52000000Y-73152000D03*
%TD*%
D13*
%TO.P,J2,2*%
%TO.N,+3V3*%
X52000000Y-76571600D03*
D14*
%TO.P,J2,1*%
%TO.N,A1*%
X52000000Y-77571600D03*
%TD*%
D13*
%TO.P,J1,2*%
%TO.N,SDA*%
X80899000Y-62976000D03*
D14*
%TO.P,J1,1*%
%TO.N,SCL*%
X80899000Y-61976000D03*
%TD*%
D15*
%TO.N,GND*%
X70690740Y-79933800D03*
%TO.N,SCL*%
X72001380Y-81871820D03*
%TO.N,SDA*%
X72969120Y-82532220D03*
%TO.N,+3V3*%
X67818000Y-68834000D03*
X76962000Y-59436000D03*
X75565000Y-70231000D03*
X69239520Y-80008340D03*
%TO.N,TX2*%
X66936620Y-58356500D03*
X58618120Y-63218060D03*
%TO.N,TX1*%
X67759580Y-58356500D03*
X58633360Y-62362080D03*
%TO.N,A1*%
X62750700Y-82514440D03*
%TD*%
D16*
%TO.N,GND*%
X70239520Y-81301140D02*
X70239520Y-80385020D01*
X70239520Y-80385020D02*
X70690740Y-79933800D01*
D17*
X70690740Y-81252360D02*
X70739520Y-81301140D01*
D16*
X70690740Y-79933800D02*
X70690740Y-81252360D01*
D17*
X70690740Y-79933800D02*
X70690740Y-79933800D01*
D16*
%TO.N,SCL*%
X68767460Y-81329080D02*
X68739520Y-81301140D01*
D17*
X79293720Y-62854840D02*
X79293720Y-75938380D01*
X80172560Y-61976000D02*
X79293720Y-62854840D01*
X80899000Y-61976000D02*
X80172560Y-61976000D01*
X68929519Y-82301141D02*
X68739520Y-82111142D01*
X71740859Y-82301141D02*
X68929519Y-82301141D01*
X68739520Y-82111142D02*
X68739520Y-81301140D01*
X72001380Y-82040620D02*
X71740859Y-82301141D01*
X72001380Y-81871820D02*
X72001380Y-82040620D01*
X73360280Y-81871820D02*
X79293720Y-75938380D01*
X72001380Y-81871820D02*
X73360280Y-81871820D01*
%TO.N,SDA*%
X79842360Y-64032640D02*
X79842360Y-76441300D01*
X80899000Y-62976000D02*
X79842360Y-64032640D01*
X72849740Y-82651600D02*
X72969120Y-82532220D01*
X68589980Y-82651600D02*
X72849740Y-82651600D01*
X68239520Y-82301140D02*
X68589980Y-82651600D01*
X68239520Y-81301140D02*
X68239520Y-82301140D01*
X73751440Y-82532220D02*
X79842360Y-76441300D01*
X72969120Y-82532220D02*
X73751440Y-82532220D01*
D16*
%TO.N,+3V3*%
X76962000Y-59436000D02*
X77470000Y-59436000D01*
X78349001Y-60315001D02*
X78349001Y-66938999D01*
X77470000Y-59436000D02*
X78349001Y-60315001D01*
X78349001Y-66938999D02*
X77851000Y-67437000D01*
X77851000Y-67437000D02*
X76327000Y-67437000D01*
X75565000Y-68199000D02*
X75565000Y-70231000D01*
X76327000Y-67437000D02*
X75565000Y-68199000D01*
X69850000Y-67564000D02*
X68580000Y-68834000D01*
X68580000Y-68834000D02*
X67818000Y-68834000D01*
X74930000Y-67564000D02*
X69850000Y-67564000D01*
X75565000Y-68199000D02*
X74930000Y-67564000D01*
X64500000Y-72152000D02*
X67818000Y-68834000D01*
X69239520Y-81301140D02*
X69239520Y-80008340D01*
D17*
X69739520Y-80465160D02*
X69739520Y-81301140D01*
D16*
X69739520Y-80465160D02*
X69239520Y-79965160D01*
D17*
X69239520Y-79965160D02*
X69239520Y-79958320D01*
X69239520Y-80008340D02*
X69239520Y-79965160D01*
D16*
X61524522Y-78865102D02*
X61524522Y-75127478D01*
X62235080Y-79575660D02*
X61524522Y-78865102D01*
X68856860Y-79575660D02*
X62235080Y-79575660D01*
X61524522Y-75127478D02*
X64500000Y-72152000D01*
X69239520Y-79958320D02*
X68856860Y-79575660D01*
D17*
X56343040Y-72228560D02*
X56343040Y-72152000D01*
X52000000Y-76571600D02*
X56343040Y-72228560D01*
D16*
X56343040Y-72152000D02*
X64500000Y-72152000D01*
X51816000Y-72152000D02*
X56343040Y-72152000D01*
D17*
%TO.N,TX2*%
X66923920Y-58955940D02*
X62463922Y-63415938D01*
X58900060Y-63500000D02*
X58618120Y-63218060D01*
X62314002Y-63500000D02*
X58900060Y-63500000D01*
X66923920Y-58369200D02*
X66936620Y-58356500D01*
X66923920Y-58955940D02*
X66923920Y-58369200D01*
X62398064Y-63415938D02*
X62314002Y-63500000D01*
X62463922Y-63415938D02*
X62398064Y-63415938D01*
%TO.N,TX1*%
X62738720Y-64022520D02*
X67782440Y-58978800D01*
X58547000Y-64008000D02*
X62230280Y-64008000D01*
X58039000Y-63500000D02*
X58547000Y-64008000D01*
X58039000Y-62956440D02*
X58039000Y-63500000D01*
X58633360Y-62362080D02*
X58039000Y-62956440D01*
X67782440Y-58379360D02*
X67759580Y-58356500D01*
X67782440Y-58978800D02*
X67782440Y-58379360D01*
X62244800Y-64022520D02*
X62230280Y-64008000D01*
X62738720Y-64022520D02*
X62244800Y-64022520D01*
%TO.N,A1*%
X62754760Y-82449920D02*
X62754760Y-82449920D01*
X62754760Y-81316380D02*
X62739520Y-81301140D01*
X54381400Y-77571600D02*
X52000000Y-77571600D01*
X62739520Y-82503260D02*
X62750700Y-82514440D01*
X62739520Y-81301140D02*
X62739520Y-82503260D01*
X59324240Y-82514440D02*
X59240420Y-82430620D01*
X59240420Y-82430620D02*
X54381400Y-77571600D01*
X62750700Y-82514440D02*
X59324240Y-82514440D01*
%TD*%
M02*
