%TF.GenerationSoftware,KiCad,Pcbnew,(5.1.10)-1*%
%TF.CreationDate,2021-12-08T22:58:09+01:00*%
%TF.ProjectId,shield_v1,73686965-6c64-45f7-9631-2e6b69636164,rev?*%
%TF.SameCoordinates,Original*%
%TF.FileFunction,Copper,L1,Top*%
%TF.FilePolarity,Positive*%
%FSLAX46Y46*%
G04 Gerber Fmt 4.6, Leading zero omitted, Abs format (unit mm)*
G04 Created by KiCad (PCBNEW (5.1.10)-1) date 2021-12-08 22:58:09*
%MOMM*%
%LPD*%
G01*
G04 APERTURE LIST*
%TA.AperFunction,SMDPad,CuDef*%
%ADD10R,1.803400X2.209800*%
%TD*%
%TA.AperFunction,SMDPad,CuDef*%
%ADD11R,0.304800X1.295400*%
%TD*%
%TA.AperFunction,SMDPad,CuDef*%
%ADD12R,0.800000X1.800000*%
%TD*%
%TA.AperFunction,ComponentPad*%
%ADD13C,0.300000*%
%TD*%
%TA.AperFunction,SMDPad,CuDef*%
%ADD14R,0.300000X1.600000*%
%TD*%
%TA.AperFunction,ComponentPad*%
%ADD15O,0.850000X0.850000*%
%TD*%
%TA.AperFunction,ComponentPad*%
%ADD16R,0.850000X0.850000*%
%TD*%
%TA.AperFunction,SMDPad,CuDef*%
%ADD17R,0.230000X0.810000*%
%TD*%
%TA.AperFunction,SMDPad,CuDef*%
%ADD18R,0.810000X0.230000*%
%TD*%
%TA.AperFunction,SMDPad,CuDef*%
%ADD19R,4.600000X4.600000*%
%TD*%
%TA.AperFunction,ViaPad*%
%ADD20C,0.700000*%
%TD*%
%TA.AperFunction,Conductor*%
%ADD21C,0.250000*%
%TD*%
%TA.AperFunction,Conductor*%
%ADD22C,0.200000*%
%TD*%
G04 APERTURE END LIST*
D10*
%TO.P,J6,12*%
%TO.N,N/C*%
X60874000Y-52884000D03*
%TO.P,J6,11*%
X69174000Y-52884000D03*
D11*
%TO.P,J6,10*%
%TO.N,TX4*%
X62774000Y-56134000D03*
%TO.P,J6,9*%
%TO.N,TX3*%
X63274000Y-56134000D03*
%TO.P,J6,8*%
%TO.N,RX6*%
X63774000Y-56134000D03*
%TO.P,J6,7*%
%TO.N,RX5*%
X64274000Y-56134000D03*
%TO.P,J6,6*%
%TO.N,RX4*%
X64774000Y-56134000D03*
%TO.P,J6,5*%
%TO.N,RX3*%
X65274000Y-56134000D03*
%TO.P,J6,4*%
%TO.N,RX2*%
X65774000Y-56134000D03*
%TO.P,J6,3*%
%TO.N,RX1*%
X66274000Y-56134000D03*
%TO.P,J6,2*%
%TO.N,TX2*%
X66774000Y-56134000D03*
%TO.P,J6,1*%
%TO.N,TX1*%
X67274000Y-56134000D03*
%TD*%
D12*
%TO.P,J5,MP2*%
%TO.N,Net-(J5-PadMP2)*%
X72500000Y-79500000D03*
%TO.P,J5,MP1*%
%TO.N,Net-(J5-PadMP1)*%
X60500000Y-79500000D03*
D13*
%TO.P,J5,MH2*%
%TO.N,N/C*%
X71800000Y-78000000D03*
%TO.P,J5,MH1*%
X61200000Y-78000000D03*
D14*
%TO.P,J5,36*%
%TO.N,Net-(J5-Pad36)*%
X70750000Y-77700000D03*
%TO.P,J5,35*%
%TO.N,GND*%
X70750000Y-81300000D03*
%TO.P,J5,34*%
%TO.N,Net-(J5-Pad34)*%
X70250000Y-77700000D03*
%TO.P,J5,33*%
%TO.N,GND*%
X70250000Y-81300000D03*
%TO.P,J5,32*%
%TO.N,Net-(J5-Pad32)*%
X69750000Y-77700000D03*
%TO.P,J5,31*%
%TO.N,+3V3*%
X69750000Y-81300000D03*
%TO.P,J5,30*%
%TO.N,Net-(J5-Pad30)*%
X69250000Y-77700000D03*
%TO.P,J5,29*%
%TO.N,+3V3*%
X69250000Y-81300000D03*
%TO.P,J5,28*%
%TO.N,Net-(J5-Pad28)*%
X68750000Y-77700000D03*
%TO.P,J5,27*%
%TO.N,SCL*%
X68750000Y-81300000D03*
%TO.P,J5,26*%
%TO.N,Net-(J5-Pad26)*%
X68250000Y-77700000D03*
%TO.P,J5,25*%
%TO.N,SDA*%
X68250000Y-81300000D03*
%TO.P,J5,24*%
%TO.N,Net-(J5-Pad24)*%
X67750000Y-77700000D03*
%TO.P,J5,23*%
%TO.N,Net-(J5-Pad23)*%
X67750000Y-81300000D03*
%TO.P,J5,22*%
%TO.N,Net-(J5-Pad22)*%
X67250000Y-77700000D03*
%TO.P,J5,21*%
%TO.N,Net-(J5-Pad21)*%
X67250000Y-81300000D03*
%TO.P,J5,20*%
%TO.N,Net-(J5-Pad20)*%
X66750000Y-77700000D03*
%TO.P,J5,19*%
%TO.N,Net-(J5-Pad19)*%
X66750000Y-81300000D03*
%TO.P,J5,18*%
%TO.N,Net-(J5-Pad18)*%
X66250000Y-77700000D03*
%TO.P,J5,17*%
%TO.N,Net-(J5-Pad17)*%
X66250000Y-81300000D03*
%TO.P,J5,16*%
%TO.N,Net-(J5-Pad16)*%
X65750000Y-77700000D03*
%TO.P,J5,15*%
%TO.N,Net-(J5-Pad15)*%
X65750000Y-81300000D03*
%TO.P,J5,14*%
%TO.N,Net-(J5-Pad14)*%
X65250000Y-77700000D03*
%TO.P,J5,13*%
%TO.N,Net-(J5-Pad13)*%
X65250000Y-81300000D03*
%TO.P,J5,12*%
%TO.N,Net-(J5-Pad12)*%
X64750000Y-77700000D03*
%TO.P,J5,11*%
%TO.N,Net-(J5-Pad11)*%
X64750000Y-81300000D03*
%TO.P,J5,10*%
%TO.N,Net-(J5-Pad10)*%
X64250000Y-77700000D03*
%TO.P,J5,9*%
%TO.N,Net-(J5-Pad9)*%
X64250000Y-81300000D03*
%TO.P,J5,8*%
%TO.N,Net-(J5-Pad8)*%
X63750000Y-77700000D03*
%TO.P,J5,7*%
%TO.N,Net-(J5-Pad7)*%
X63750000Y-81300000D03*
%TO.P,J5,6*%
%TO.N,Net-(J5-Pad6)*%
X63250000Y-77700000D03*
%TO.P,J5,5*%
%TO.N,Net-(J5-Pad5)*%
X63250000Y-81300000D03*
%TO.P,J5,4*%
%TO.N,Net-(J5-Pad4)*%
X62750000Y-77700000D03*
%TO.P,J5,3*%
%TO.N,A1*%
X62750000Y-81300000D03*
%TO.P,J5,2*%
%TO.N,Net-(J5-Pad2)*%
X62250000Y-77700000D03*
%TO.P,J5,1*%
%TO.N,Net-(J5-Pad1)*%
X62250000Y-81300000D03*
%TD*%
D13*
%TO.P,J4,MH2*%
%TO.N,N/C*%
X71789520Y-81001140D03*
%TO.P,J4,MH1*%
X61189520Y-81001140D03*
%TD*%
D15*
%TO.P,J3,2*%
%TO.N,+3V3*%
X52000000Y-72152000D03*
D16*
%TO.P,J3,1*%
%TO.N,GND*%
X52000000Y-73152000D03*
%TD*%
D15*
%TO.P,J2,2*%
%TO.N,+3V3*%
X52000000Y-76571600D03*
D16*
%TO.P,J2,1*%
%TO.N,A1*%
X52000000Y-77571600D03*
%TD*%
D15*
%TO.P,J1,2*%
%TO.N,SDA*%
X80899000Y-62976000D03*
D16*
%TO.P,J1,1*%
%TO.N,SCL*%
X80899000Y-61976000D03*
%TD*%
%TO.P,R1,2*%
%TO.N,VDDA*%
%TA.AperFunction,SMDPad,CuDef*%
G36*
G01*
X73489000Y-59198500D02*
X73489000Y-59673500D01*
G75*
G02*
X73251500Y-59911000I-237500J0D01*
G01*
X72751500Y-59911000D01*
G75*
G02*
X72514000Y-59673500I0J237500D01*
G01*
X72514000Y-59198500D01*
G75*
G02*
X72751500Y-58961000I237500J0D01*
G01*
X73251500Y-58961000D01*
G75*
G02*
X73489000Y-59198500I0J-237500D01*
G01*
G37*
%TD.AperFunction*%
%TO.P,R1,1*%
%TO.N,+3V3*%
%TA.AperFunction,SMDPad,CuDef*%
G36*
G01*
X75314000Y-59198500D02*
X75314000Y-59673500D01*
G75*
G02*
X75076500Y-59911000I-237500J0D01*
G01*
X74576500Y-59911000D01*
G75*
G02*
X74339000Y-59673500I0J237500D01*
G01*
X74339000Y-59198500D01*
G75*
G02*
X74576500Y-58961000I237500J0D01*
G01*
X75076500Y-58961000D01*
G75*
G02*
X75314000Y-59198500I0J-237500D01*
G01*
G37*
%TD.AperFunction*%
%TD*%
%TO.P,C4,2*%
%TO.N,Net-(C4-Pad2)*%
%TA.AperFunction,SMDPad,CuDef*%
G36*
G01*
X66122500Y-70120500D02*
X66122500Y-70595500D01*
G75*
G02*
X65885000Y-70833000I-237500J0D01*
G01*
X65285000Y-70833000D01*
G75*
G02*
X65047500Y-70595500I0J237500D01*
G01*
X65047500Y-70120500D01*
G75*
G02*
X65285000Y-69883000I237500J0D01*
G01*
X65885000Y-69883000D01*
G75*
G02*
X66122500Y-70120500I0J-237500D01*
G01*
G37*
%TD.AperFunction*%
%TO.P,C4,1*%
%TO.N,GND*%
%TA.AperFunction,SMDPad,CuDef*%
G36*
G01*
X67847500Y-70120500D02*
X67847500Y-70595500D01*
G75*
G02*
X67610000Y-70833000I-237500J0D01*
G01*
X67010000Y-70833000D01*
G75*
G02*
X66772500Y-70595500I0J237500D01*
G01*
X66772500Y-70120500D01*
G75*
G02*
X67010000Y-69883000I237500J0D01*
G01*
X67610000Y-69883000D01*
G75*
G02*
X67847500Y-70120500I0J-237500D01*
G01*
G37*
%TD.AperFunction*%
%TD*%
%TO.P,C3,2*%
%TO.N,+3V3*%
%TA.AperFunction,SMDPad,CuDef*%
G36*
G01*
X72868500Y-70468500D02*
X72868500Y-69993500D01*
G75*
G02*
X73106000Y-69756000I237500J0D01*
G01*
X73706000Y-69756000D01*
G75*
G02*
X73943500Y-69993500I0J-237500D01*
G01*
X73943500Y-70468500D01*
G75*
G02*
X73706000Y-70706000I-237500J0D01*
G01*
X73106000Y-70706000D01*
G75*
G02*
X72868500Y-70468500I0J237500D01*
G01*
G37*
%TD.AperFunction*%
%TO.P,C3,1*%
%TO.N,GND*%
%TA.AperFunction,SMDPad,CuDef*%
G36*
G01*
X71143500Y-70468500D02*
X71143500Y-69993500D01*
G75*
G02*
X71381000Y-69756000I237500J0D01*
G01*
X71981000Y-69756000D01*
G75*
G02*
X72218500Y-69993500I0J-237500D01*
G01*
X72218500Y-70468500D01*
G75*
G02*
X71981000Y-70706000I-237500J0D01*
G01*
X71381000Y-70706000D01*
G75*
G02*
X71143500Y-70468500I0J237500D01*
G01*
G37*
%TD.AperFunction*%
%TD*%
%TO.P,C2,2*%
%TO.N,VDDD*%
%TA.AperFunction,SMDPad,CuDef*%
G36*
G01*
X71557000Y-64151500D02*
X71557000Y-64626500D01*
G75*
G02*
X71319500Y-64864000I-237500J0D01*
G01*
X70719500Y-64864000D01*
G75*
G02*
X70482000Y-64626500I0J237500D01*
G01*
X70482000Y-64151500D01*
G75*
G02*
X70719500Y-63914000I237500J0D01*
G01*
X71319500Y-63914000D01*
G75*
G02*
X71557000Y-64151500I0J-237500D01*
G01*
G37*
%TD.AperFunction*%
%TO.P,C2,1*%
%TO.N,GND*%
%TA.AperFunction,SMDPad,CuDef*%
G36*
G01*
X73282000Y-64151500D02*
X73282000Y-64626500D01*
G75*
G02*
X73044500Y-64864000I-237500J0D01*
G01*
X72444500Y-64864000D01*
G75*
G02*
X72207000Y-64626500I0J237500D01*
G01*
X72207000Y-64151500D01*
G75*
G02*
X72444500Y-63914000I237500J0D01*
G01*
X73044500Y-63914000D01*
G75*
G02*
X73282000Y-64151500I0J-237500D01*
G01*
G37*
%TD.AperFunction*%
%TD*%
%TO.P,C1,2*%
%TO.N,VDDA*%
%TA.AperFunction,SMDPad,CuDef*%
G36*
G01*
X75154500Y-67420500D02*
X75154500Y-66945500D01*
G75*
G02*
X75392000Y-66708000I237500J0D01*
G01*
X75992000Y-66708000D01*
G75*
G02*
X76229500Y-66945500I0J-237500D01*
G01*
X76229500Y-67420500D01*
G75*
G02*
X75992000Y-67658000I-237500J0D01*
G01*
X75392000Y-67658000D01*
G75*
G02*
X75154500Y-67420500I0J237500D01*
G01*
G37*
%TD.AperFunction*%
%TO.P,C1,1*%
%TO.N,GND*%
%TA.AperFunction,SMDPad,CuDef*%
G36*
G01*
X73429500Y-67420500D02*
X73429500Y-66945500D01*
G75*
G02*
X73667000Y-66708000I237500J0D01*
G01*
X74267000Y-66708000D01*
G75*
G02*
X74504500Y-66945500I0J-237500D01*
G01*
X74504500Y-67420500D01*
G75*
G02*
X74267000Y-67658000I-237500J0D01*
G01*
X73667000Y-67658000D01*
G75*
G02*
X73429500Y-67420500I0J237500D01*
G01*
G37*
%TD.AperFunction*%
%TD*%
D17*
%TO.P,U1,48*%
%TO.N,Net-(U1-Pad48)*%
X62824000Y-61058000D03*
%TO.P,U1,47*%
%TO.N,Net-(U1-Pad47)*%
X63224000Y-61058000D03*
%TO.P,U1,46*%
%TO.N,Net-(U1-Pad46)*%
X63624000Y-61058000D03*
%TO.P,U1,45*%
%TO.N,Net-(U1-Pad45)*%
X64024000Y-61058000D03*
%TO.P,U1,44*%
%TO.N,Net-(U1-Pad44)*%
X64424000Y-61058000D03*
%TO.P,U1,43*%
%TO.N,Net-(U1-Pad43)*%
X64824000Y-61058000D03*
%TO.P,U1,42*%
%TO.N,RX6*%
X65224000Y-61058000D03*
%TO.P,U1,41*%
%TO.N,RX5*%
X65624000Y-61058000D03*
%TO.P,U1,40*%
%TO.N,RX4*%
X66024000Y-61058000D03*
%TO.P,U1,39*%
%TO.N,RX3*%
X66424000Y-61058000D03*
%TO.P,U1,38*%
%TO.N,RX2*%
X66824000Y-61058000D03*
%TO.P,U1,37*%
%TO.N,RX1*%
X67224000Y-61058000D03*
D18*
%TO.P,U1,36*%
%TO.N,VDDA*%
X67974000Y-61808000D03*
%TO.P,U1,35*%
%TO.N,Net-(U1-Pad35)*%
X67974000Y-62208000D03*
%TO.P,U1,34*%
%TO.N,SCL*%
X67974000Y-62608000D03*
%TO.P,U1,33*%
%TO.N,SDA*%
X67974000Y-63008000D03*
%TO.P,U1,32*%
%TO.N,Net-(U1-Pad32)*%
X67974000Y-63408000D03*
%TO.P,U1,31*%
%TO.N,Net-(U1-Pad31)*%
X67974000Y-63808000D03*
%TO.P,U1,30*%
%TO.N,Net-(U1-Pad30)*%
X67974000Y-64208000D03*
%TO.P,U1,29*%
%TO.N,Net-(U1-Pad29)*%
X67974000Y-64608000D03*
%TO.P,U1,28*%
%TO.N,Net-(U1-Pad28)*%
X67974000Y-65008000D03*
%TO.P,U1,27*%
%TO.N,VDDD*%
X67974000Y-65408000D03*
%TO.P,U1,26*%
%TO.N,GND*%
X67974000Y-65808000D03*
%TO.P,U1,25*%
X67974000Y-66208000D03*
D17*
%TO.P,U1,24*%
%TO.N,+3V3*%
X67224000Y-66958000D03*
%TO.P,U1,23*%
%TO.N,Net-(C4-Pad2)*%
X66824000Y-66958000D03*
%TO.P,U1,22*%
%TO.N,Net-(U1-Pad22)*%
X66424000Y-66958000D03*
%TO.P,U1,21*%
%TO.N,Net-(U1-Pad21)*%
X66024000Y-66958000D03*
%TO.P,U1,20*%
%TO.N,Net-(U1-Pad20)*%
X65624000Y-66958000D03*
%TO.P,U1,19*%
%TO.N,Net-(U1-Pad19)*%
X65224000Y-66958000D03*
%TO.P,U1,18*%
%TO.N,Net-(U1-Pad18)*%
X64824000Y-66958000D03*
%TO.P,U1,17*%
%TO.N,Net-(U1-Pad17)*%
X64424000Y-66958000D03*
%TO.P,U1,16*%
%TO.N,Net-(U1-Pad16)*%
X64024000Y-66958000D03*
%TO.P,U1,15*%
%TO.N,Net-(U1-Pad15)*%
X63624000Y-66958000D03*
%TO.P,U1,14*%
%TO.N,Net-(U1-Pad14)*%
X63224000Y-66958000D03*
%TO.P,U1,13*%
%TO.N,Net-(U1-Pad13)*%
X62824000Y-66958000D03*
D18*
%TO.P,U1,12*%
%TO.N,Net-(U1-Pad12)*%
X62074000Y-66208000D03*
%TO.P,U1,11*%
%TO.N,Net-(U1-Pad11)*%
X62074000Y-65808000D03*
%TO.P,U1,10*%
%TO.N,Net-(U1-Pad10)*%
X62074000Y-65408000D03*
%TO.P,U1,9*%
%TO.N,Net-(U1-Pad9)*%
X62074000Y-65008000D03*
%TO.P,U1,8*%
%TO.N,Net-(U1-Pad8)*%
X62074000Y-64608000D03*
%TO.P,U1,7*%
%TO.N,Net-(U1-Pad7)*%
X62074000Y-64208000D03*
%TO.P,U1,6*%
%TO.N,Net-(U1-Pad6)*%
X62074000Y-63808000D03*
%TO.P,U1,5*%
%TO.N,TX4*%
X62074000Y-63408000D03*
%TO.P,U1,4*%
%TO.N,TX3*%
X62074000Y-63008000D03*
%TO.P,U1,3*%
%TO.N,TX2*%
X62074000Y-62608000D03*
%TO.P,U1,2*%
%TO.N,TX1*%
X62074000Y-62208000D03*
%TO.P,U1,1*%
%TO.N,GND*%
X62074000Y-61808000D03*
D19*
%TO.P,U1,49*%
%TO.N,N/C*%
X65024000Y-64008000D03*
%TD*%
D20*
%TO.N,GND*%
X70690740Y-79933800D03*
%TO.N,SCL*%
X72001380Y-81871820D03*
%TO.N,SDA*%
X72969120Y-82532220D03*
%TO.N,+3V3*%
X67818000Y-68834000D03*
X76962000Y-59436000D03*
X75565000Y-70231000D03*
X69239520Y-80008340D03*
%TO.N,TX2*%
X66936620Y-58356500D03*
X58618120Y-63218060D03*
%TO.N,TX1*%
X67759580Y-58356500D03*
X58633360Y-62362080D03*
%TO.N,A1*%
X62750700Y-82514440D03*
%TD*%
D21*
%TO.N,GND*%
X73967000Y-67183000D02*
X71120000Y-67183000D01*
X71120000Y-67183000D02*
X69469000Y-68834000D01*
X69469000Y-68834000D02*
X69469000Y-69723000D01*
X69977000Y-70231000D02*
X71681000Y-70231000D01*
X69469000Y-69723000D02*
X69977000Y-70231000D01*
X69469000Y-69723000D02*
X68961000Y-70231000D01*
X67437000Y-70231000D02*
X67310000Y-70358000D01*
X68961000Y-70231000D02*
X67437000Y-70231000D01*
X74168000Y-64389000D02*
X72744500Y-64389000D01*
X74549000Y-65151000D02*
X74549000Y-64770000D01*
X74041000Y-65659000D02*
X74549000Y-65151000D01*
X70993000Y-65659000D02*
X74041000Y-65659000D01*
X70612000Y-66040000D02*
X70993000Y-65659000D01*
X70612000Y-66675000D02*
X70612000Y-66040000D01*
X74549000Y-64770000D02*
X74168000Y-64389000D01*
X71120000Y-67183000D02*
X70612000Y-66675000D01*
X70612000Y-66675000D02*
X70145000Y-66208000D01*
X69555000Y-66208000D02*
X69555000Y-66126000D01*
X70145000Y-66208000D02*
X69555000Y-66208000D01*
X69555000Y-66208000D02*
X67974000Y-66208000D01*
X69555000Y-66126000D02*
X69277001Y-65848001D01*
X69277001Y-65848001D02*
X67974000Y-65848001D01*
X55626000Y-73152000D02*
X51816000Y-73152000D01*
X56832500Y-71945500D02*
X55626000Y-73152000D01*
D22*
X70690740Y-81257360D02*
X70724521Y-81291141D01*
D21*
X70690740Y-79933800D02*
X70690740Y-81257360D01*
X70224521Y-80400019D02*
X70690740Y-79933800D01*
X70224521Y-81291141D02*
X70224521Y-80400019D01*
D22*
X62824000Y-61808000D02*
X65024000Y-64008000D01*
X62074000Y-61808000D02*
X62824000Y-61808000D01*
X66824000Y-65808000D02*
X65024000Y-64008000D01*
X67974000Y-65808000D02*
X66824000Y-65808000D01*
X67224000Y-66208000D02*
X65024000Y-64008000D01*
X67974000Y-66208000D02*
X67224000Y-66208000D01*
D21*
X56896000Y-71882000D02*
X56832500Y-71945500D01*
X69461380Y-71882000D02*
X56896000Y-71882000D01*
X71224140Y-73644760D02*
X69461380Y-71882000D01*
X71224140Y-79400400D02*
X71224140Y-73644760D01*
X70690740Y-79933800D02*
X71224140Y-79400400D01*
X69469000Y-71874380D02*
X69461380Y-71882000D01*
X69469000Y-70739000D02*
X69469000Y-71874380D01*
X68961000Y-70231000D02*
X69469000Y-70739000D01*
D22*
%TO.N,SCL*%
X67974000Y-62608000D02*
X69726000Y-62608000D01*
X69726000Y-62608000D02*
X70358000Y-61976000D01*
X80899000Y-61976000D02*
X77470000Y-61976000D01*
X77470000Y-61976000D02*
X77724000Y-61976000D01*
X70358000Y-61976000D02*
X77470000Y-61976000D01*
X68739520Y-81306140D02*
X68724521Y-81291141D01*
D21*
X68767460Y-81317460D02*
X68750000Y-81300000D01*
D22*
X68750000Y-82110002D02*
X68750000Y-81300000D01*
X68939999Y-82300001D02*
X68750000Y-82110002D01*
X71741999Y-82300001D02*
X68939999Y-82300001D01*
X72001380Y-82040620D02*
X71741999Y-82300001D01*
X72001380Y-81871820D02*
X72001380Y-82040620D01*
%TO.N,SDA*%
X80867000Y-63008000D02*
X80899000Y-62976000D01*
X67974000Y-63008000D02*
X80867000Y-63008000D01*
X68239520Y-81306140D02*
X68224521Y-81291141D01*
X68597780Y-82651600D02*
X69054980Y-82651600D01*
X68250000Y-82303820D02*
X68597780Y-82651600D01*
X68250000Y-81300000D02*
X68250000Y-82303820D01*
X69054980Y-82651600D02*
X68689220Y-82651600D01*
X72849740Y-82651600D02*
X72969120Y-82532220D01*
X69054980Y-82651600D02*
X72849740Y-82651600D01*
%TO.N,Net-(C4-Pad2)*%
X66824000Y-68304000D02*
X66824000Y-66958000D01*
X65585000Y-69543000D02*
X66824000Y-68304000D01*
X65585000Y-70358000D02*
X65585000Y-69543000D01*
D21*
%TO.N,+3V3*%
X73406000Y-70231000D02*
X75438000Y-70231000D01*
X75438000Y-70231000D02*
X75565000Y-70231000D01*
X74826500Y-59436000D02*
X76962000Y-59436000D01*
D22*
X76962000Y-59436000D02*
X76962000Y-59436000D01*
D21*
X67224000Y-68240000D02*
X67818000Y-68834000D01*
X67224000Y-66958000D02*
X67224000Y-68240000D01*
D22*
X69224521Y-81291141D02*
X69224521Y-79991581D01*
X69724521Y-80491581D02*
X69724521Y-81291141D01*
X69224521Y-79991581D02*
X69724521Y-80491581D01*
D21*
%TO.N,VDDA*%
X73001500Y-59436000D02*
X73001500Y-59586500D01*
X73001500Y-59436000D02*
X72009000Y-59436000D01*
X69677001Y-61767999D02*
X67974000Y-61767999D01*
X72009000Y-59436000D02*
X69677001Y-61767999D01*
X82169000Y-58674000D02*
X82169000Y-66167000D01*
X78867000Y-55372000D02*
X82169000Y-58674000D01*
X81153000Y-67183000D02*
X75692000Y-67183000D01*
X71501000Y-55372000D02*
X78867000Y-55372000D01*
X70104000Y-56769000D02*
X71501000Y-55372000D01*
X70104000Y-57531000D02*
X70104000Y-56769000D01*
X82169000Y-66167000D02*
X81153000Y-67183000D01*
X72009000Y-59436000D02*
X70104000Y-57531000D01*
D22*
%TO.N,VDDD*%
X69850000Y-64389000D02*
X71019500Y-64389000D01*
X68831000Y-65408000D02*
X69850000Y-64389000D01*
X67974000Y-65408000D02*
X68831000Y-65408000D01*
%TO.N,TX4*%
X62774000Y-56771100D02*
X62774000Y-56134000D01*
X60985400Y-58453020D02*
X62783870Y-56654550D01*
X62144462Y-63494920D02*
X60149740Y-63494920D01*
X58488482Y-58455560D02*
X58869580Y-58455560D01*
X58286601Y-58657441D02*
X58488482Y-58455560D01*
X58592912Y-58455560D02*
X58869580Y-58455560D01*
X58869580Y-58455560D02*
X60975530Y-58455560D01*
X58286601Y-58657441D02*
X58374472Y-58569570D01*
X57551221Y-64871599D02*
X58615678Y-64871600D01*
X56512170Y-63832548D02*
X57551221Y-64871599D01*
X56512171Y-60431871D02*
X56512170Y-63832548D01*
X58771839Y-64885521D02*
X59072780Y-64584580D01*
X58286601Y-58657441D02*
X56512171Y-60431871D01*
X60161779Y-63493041D02*
X58999120Y-64655700D01*
X58629599Y-64885521D02*
X58615678Y-64871600D01*
X58771839Y-64885521D02*
X58629599Y-64885521D01*
%TO.N,TX3*%
X63274000Y-56981700D02*
X63274000Y-56134000D01*
X61386120Y-58869580D02*
X63274000Y-56981700D01*
X58717180Y-58869580D02*
X61386120Y-58869580D01*
X57030620Y-60556140D02*
X58717180Y-58869580D01*
X57820560Y-64498220D02*
X57030620Y-63708280D01*
X58564780Y-64498220D02*
X57820560Y-64498220D01*
X57030620Y-63708280D02*
X57030620Y-60556140D01*
X60055000Y-63008000D02*
X58564780Y-64498220D01*
X62074000Y-63008000D02*
X60055000Y-63008000D01*
%TO.N,TX2*%
X62074000Y-62608000D02*
X59566000Y-62608000D01*
X58955940Y-63218060D02*
X59566000Y-62608000D01*
X58618120Y-63218060D02*
X58955940Y-63218060D01*
X66774000Y-58193880D02*
X66774000Y-56134000D01*
X66936620Y-58356500D02*
X66774000Y-58193880D01*
%TO.N,TX1*%
X58787440Y-62208000D02*
X58633360Y-62362080D01*
X62074000Y-62208000D02*
X58787440Y-62208000D01*
X67759580Y-58356500D02*
X67759580Y-57556400D01*
X67274000Y-57070820D02*
X67274000Y-56134000D01*
X67759580Y-57556400D02*
X67274000Y-57070820D01*
%TO.N,RX6*%
X65224000Y-61058000D02*
X65224000Y-60398000D01*
X65224000Y-60398000D02*
X63754000Y-58928000D01*
X63754000Y-56113680D02*
X63754000Y-58887680D01*
%TO.N,RX5*%
X65624000Y-61058000D02*
X65624000Y-60290000D01*
X65624000Y-60290000D02*
X64262000Y-58928000D01*
X64262000Y-56113680D02*
X64262000Y-58895680D01*
%TO.N,RX4*%
X66024000Y-61058000D02*
X66024000Y-60182000D01*
X66024000Y-60182000D02*
X64770000Y-58928000D01*
X64770000Y-56113680D02*
X64770000Y-58903680D01*
%TO.N,RX3*%
X66424000Y-61058000D02*
X66424000Y-60074000D01*
X66424000Y-60074000D02*
X65278000Y-58928000D01*
X65278000Y-56113680D02*
X65278000Y-58903680D01*
%TO.N,RX2*%
X66824000Y-61058000D02*
X66824000Y-59966000D01*
X66824000Y-59966000D02*
X65786000Y-58928000D01*
X65786000Y-56113680D02*
X65786000Y-58895680D01*
%TO.N,RX1*%
X67224000Y-61058000D02*
X67224000Y-59858000D01*
X67224000Y-59858000D02*
X66294000Y-58928000D01*
X66294000Y-56113680D02*
X66294000Y-58887680D01*
%TO.N,A1*%
X62754760Y-81321380D02*
X62724521Y-81291141D01*
X62750000Y-82513740D02*
X62750700Y-82514440D01*
X62750000Y-81300000D02*
X62750000Y-82513740D01*
%TO.N,Net-(J5-Pad4)*%
X62739520Y-77706140D02*
X62724521Y-77691141D01*
%TD*%
M02*
