M48
; DRILL file {KiCad (5.1.10)-1} date 12/14/21 18:37:19
; FORMAT={-:-/ absolute / inch / decimal}
; #@! TF.CreationDate,2021-12-14T18:37:19+01:00
; #@! TF.GenerationSoftware,Kicad,Pcbnew,(5.1.10)-1
; #@! TF.FileFunction,Plated,1,2,PTH
FMAT,2
INCH
T1C0.0118
T2C0.0138
T3C0.0197
T4C0.0236
%
G90
G05
T1
X2.3078Y-2.4889
X2.3084Y-2.4552
X2.4705Y-3.2486
X2.6353Y-2.2975
X2.6677Y-2.2975
X2.67Y-2.71
X2.726Y-3.1499
X2.7831Y-3.147
X2.8347Y-3.2233
X2.8728Y-3.2493
T2
X2.975Y-2.765
X3.03Y-2.34
T3
X2.0472Y-2.8406
X2.0472Y-2.88
X2.0472Y-3.0146
X2.0472Y-3.054
X3.185Y-2.44
X3.185Y-2.4794
T4
X2.409Y-3.189
X2.4094Y-3.0709
X2.8264Y-3.189
X2.8268Y-3.0709
T0
M30
