%TF.GenerationSoftware,KiCad,Pcbnew,(5.1.10)-1*%
%TF.CreationDate,2021-12-14T18:37:17+01:00*%
%TF.ProjectId,shield_v1,73686965-6c64-45f7-9631-2e6b69636164,rev?*%
%TF.SameCoordinates,Original*%
%TF.FileFunction,Soldermask,Bot*%
%TF.FilePolarity,Negative*%
%FSLAX46Y46*%
G04 Gerber Fmt 4.6, Leading zero omitted, Abs format (unit mm)*
G04 Created by KiCad (PCBNEW (5.1.10)-1) date 2021-12-14 18:37:17*
%MOMM*%
%LPD*%
G01*
G04 APERTURE LIST*
%ADD10C,2.100000*%
%ADD11C,0.300000*%
%ADD12R,0.800000X1.800000*%
%ADD13R,0.300000X1.600000*%
%ADD14O,0.850000X0.850000*%
%ADD15R,0.850000X0.850000*%
G04 APERTURE END LIST*
D10*
%TO.C,REF\u002A\u002A*%
X52000000Y-81000000D03*
%TD*%
%TO.C,REF\u002A\u002A*%
X81000000Y-81000000D03*
%TD*%
%TO.C,REF\u002A\u002A*%
X81000000Y-52000000D03*
%TD*%
%TO.C,REF\u002A\u002A*%
X52000000Y-52000000D03*
%TD*%
D11*
%TO.C,J5*%
X71800000Y-78000000D03*
X61200000Y-78000000D03*
%TD*%
D12*
%TO.C,J4*%
X72489520Y-79501140D03*
X60489520Y-79501140D03*
D11*
X71789520Y-81001140D03*
X61189520Y-81001140D03*
D13*
X70739520Y-81301140D03*
X70739520Y-77701140D03*
X70239520Y-81301140D03*
X70239520Y-77701140D03*
X69739520Y-81301140D03*
X69739520Y-77701140D03*
X69239520Y-81301140D03*
X69239520Y-77701140D03*
X68739520Y-81301140D03*
X68739520Y-77701140D03*
X68239520Y-81301140D03*
X68239520Y-77701140D03*
X67739520Y-81301140D03*
X67739520Y-77701140D03*
X67239520Y-81301140D03*
X67239520Y-77701140D03*
X66739520Y-81301140D03*
X66739520Y-77701140D03*
X66239520Y-81301140D03*
X66239520Y-77701140D03*
X65739520Y-81301140D03*
X65739520Y-77701140D03*
X65239520Y-81301140D03*
X65239520Y-77701140D03*
X64739520Y-81301140D03*
X64739520Y-77701140D03*
X64239520Y-81301140D03*
X64239520Y-77701140D03*
X63739520Y-81301140D03*
X63739520Y-77701140D03*
X63239520Y-81301140D03*
X63239520Y-77701140D03*
X62739520Y-81301140D03*
X62739520Y-77701140D03*
X62239520Y-81301140D03*
X62239520Y-77701140D03*
%TD*%
D14*
%TO.C,J3*%
X52000000Y-72152000D03*
D15*
X52000000Y-73152000D03*
%TD*%
D14*
%TO.C,J2*%
X52000000Y-76571600D03*
D15*
X52000000Y-77571600D03*
%TD*%
D14*
%TO.C,J1*%
X80899000Y-62976000D03*
D15*
X80899000Y-61976000D03*
%TD*%
M02*
