%TF.GenerationSoftware,KiCad,Pcbnew,(5.1.10)-1*%
%TF.CreationDate,2021-12-08T22:58:09+01:00*%
%TF.ProjectId,shield_v1,73686965-6c64-45f7-9631-2e6b69636164,rev?*%
%TF.SameCoordinates,Original*%
%TF.FileFunction,Paste,Top*%
%TF.FilePolarity,Positive*%
%FSLAX46Y46*%
G04 Gerber Fmt 4.6, Leading zero omitted, Abs format (unit mm)*
G04 Created by KiCad (PCBNEW (5.1.10)-1) date 2021-12-08 22:58:09*
%MOMM*%
%LPD*%
G01*
G04 APERTURE LIST*
%ADD10C,0.010000*%
%ADD11R,1.803400X2.209800*%
%ADD12R,0.304800X1.295400*%
%ADD13R,0.800000X1.800000*%
%ADD14R,0.300000X1.600000*%
%ADD15R,0.230000X0.810000*%
%ADD16R,0.810000X0.230000*%
G04 APERTURE END LIST*
D10*
%TO.C,U1*%
G36*
X65359392Y-64343000D02*
G01*
X66989000Y-64343000D01*
X66989000Y-65975300D01*
X65359392Y-65975300D01*
X65359392Y-64343000D01*
G37*
X65359392Y-64343000D02*
X66989000Y-64343000D01*
X66989000Y-65975300D01*
X65359392Y-65975300D01*
X65359392Y-64343000D01*
G36*
X63058460Y-62043000D02*
G01*
X64689000Y-62043000D01*
X64689000Y-63672909D01*
X63058460Y-63672909D01*
X63058460Y-62043000D01*
G37*
X63058460Y-62043000D02*
X64689000Y-62043000D01*
X64689000Y-63672909D01*
X63058460Y-63672909D01*
X63058460Y-62043000D01*
G36*
X63055350Y-64343000D02*
G01*
X64689000Y-64343000D01*
X64689000Y-65976650D01*
X63055350Y-65976650D01*
X63055350Y-64343000D01*
G37*
X63055350Y-64343000D02*
X64689000Y-64343000D01*
X64689000Y-65976650D01*
X63055350Y-65976650D01*
X63055350Y-64343000D01*
G36*
X65359406Y-62043000D02*
G01*
X66989000Y-62043000D01*
X66989000Y-63672594D01*
X65359406Y-63672594D01*
X65359406Y-62043000D01*
G37*
X65359406Y-62043000D02*
X66989000Y-62043000D01*
X66989000Y-63672594D01*
X65359406Y-63672594D01*
X65359406Y-62043000D01*
%TD*%
D11*
%TO.C,J6*%
X60874000Y-52884000D03*
X69174000Y-52884000D03*
D12*
X62774000Y-56134000D03*
X63274000Y-56134000D03*
X63774000Y-56134000D03*
X64274000Y-56134000D03*
X64774000Y-56134000D03*
X65274000Y-56134000D03*
X65774000Y-56134000D03*
X66274000Y-56134000D03*
X66774000Y-56134000D03*
X67274000Y-56134000D03*
%TD*%
D13*
%TO.C,J5*%
X72500000Y-79500000D03*
X60500000Y-79500000D03*
D14*
X70750000Y-77700000D03*
X70750000Y-81300000D03*
X70250000Y-77700000D03*
X70250000Y-81300000D03*
X69750000Y-77700000D03*
X69750000Y-81300000D03*
X69250000Y-77700000D03*
X69250000Y-81300000D03*
X68750000Y-77700000D03*
X68750000Y-81300000D03*
X68250000Y-77700000D03*
X68250000Y-81300000D03*
X67750000Y-77700000D03*
X67750000Y-81300000D03*
X67250000Y-77700000D03*
X67250000Y-81300000D03*
X66750000Y-77700000D03*
X66750000Y-81300000D03*
X66250000Y-77700000D03*
X66250000Y-81300000D03*
X65750000Y-77700000D03*
X65750000Y-81300000D03*
X65250000Y-77700000D03*
X65250000Y-81300000D03*
X64750000Y-77700000D03*
X64750000Y-81300000D03*
X64250000Y-77700000D03*
X64250000Y-81300000D03*
X63750000Y-77700000D03*
X63750000Y-81300000D03*
X63250000Y-77700000D03*
X63250000Y-81300000D03*
X62750000Y-77700000D03*
X62750000Y-81300000D03*
X62250000Y-77700000D03*
X62250000Y-81300000D03*
%TD*%
%TO.C,R1*%
G36*
G01*
X73489000Y-59198500D02*
X73489000Y-59673500D01*
G75*
G02*
X73251500Y-59911000I-237500J0D01*
G01*
X72751500Y-59911000D01*
G75*
G02*
X72514000Y-59673500I0J237500D01*
G01*
X72514000Y-59198500D01*
G75*
G02*
X72751500Y-58961000I237500J0D01*
G01*
X73251500Y-58961000D01*
G75*
G02*
X73489000Y-59198500I0J-237500D01*
G01*
G37*
G36*
G01*
X75314000Y-59198500D02*
X75314000Y-59673500D01*
G75*
G02*
X75076500Y-59911000I-237500J0D01*
G01*
X74576500Y-59911000D01*
G75*
G02*
X74339000Y-59673500I0J237500D01*
G01*
X74339000Y-59198500D01*
G75*
G02*
X74576500Y-58961000I237500J0D01*
G01*
X75076500Y-58961000D01*
G75*
G02*
X75314000Y-59198500I0J-237500D01*
G01*
G37*
%TD*%
%TO.C,C4*%
G36*
G01*
X66122500Y-70120500D02*
X66122500Y-70595500D01*
G75*
G02*
X65885000Y-70833000I-237500J0D01*
G01*
X65285000Y-70833000D01*
G75*
G02*
X65047500Y-70595500I0J237500D01*
G01*
X65047500Y-70120500D01*
G75*
G02*
X65285000Y-69883000I237500J0D01*
G01*
X65885000Y-69883000D01*
G75*
G02*
X66122500Y-70120500I0J-237500D01*
G01*
G37*
G36*
G01*
X67847500Y-70120500D02*
X67847500Y-70595500D01*
G75*
G02*
X67610000Y-70833000I-237500J0D01*
G01*
X67010000Y-70833000D01*
G75*
G02*
X66772500Y-70595500I0J237500D01*
G01*
X66772500Y-70120500D01*
G75*
G02*
X67010000Y-69883000I237500J0D01*
G01*
X67610000Y-69883000D01*
G75*
G02*
X67847500Y-70120500I0J-237500D01*
G01*
G37*
%TD*%
%TO.C,C3*%
G36*
G01*
X72868500Y-70468500D02*
X72868500Y-69993500D01*
G75*
G02*
X73106000Y-69756000I237500J0D01*
G01*
X73706000Y-69756000D01*
G75*
G02*
X73943500Y-69993500I0J-237500D01*
G01*
X73943500Y-70468500D01*
G75*
G02*
X73706000Y-70706000I-237500J0D01*
G01*
X73106000Y-70706000D01*
G75*
G02*
X72868500Y-70468500I0J237500D01*
G01*
G37*
G36*
G01*
X71143500Y-70468500D02*
X71143500Y-69993500D01*
G75*
G02*
X71381000Y-69756000I237500J0D01*
G01*
X71981000Y-69756000D01*
G75*
G02*
X72218500Y-69993500I0J-237500D01*
G01*
X72218500Y-70468500D01*
G75*
G02*
X71981000Y-70706000I-237500J0D01*
G01*
X71381000Y-70706000D01*
G75*
G02*
X71143500Y-70468500I0J237500D01*
G01*
G37*
%TD*%
%TO.C,C2*%
G36*
G01*
X71557000Y-64151500D02*
X71557000Y-64626500D01*
G75*
G02*
X71319500Y-64864000I-237500J0D01*
G01*
X70719500Y-64864000D01*
G75*
G02*
X70482000Y-64626500I0J237500D01*
G01*
X70482000Y-64151500D01*
G75*
G02*
X70719500Y-63914000I237500J0D01*
G01*
X71319500Y-63914000D01*
G75*
G02*
X71557000Y-64151500I0J-237500D01*
G01*
G37*
G36*
G01*
X73282000Y-64151500D02*
X73282000Y-64626500D01*
G75*
G02*
X73044500Y-64864000I-237500J0D01*
G01*
X72444500Y-64864000D01*
G75*
G02*
X72207000Y-64626500I0J237500D01*
G01*
X72207000Y-64151500D01*
G75*
G02*
X72444500Y-63914000I237500J0D01*
G01*
X73044500Y-63914000D01*
G75*
G02*
X73282000Y-64151500I0J-237500D01*
G01*
G37*
%TD*%
%TO.C,C1*%
G36*
G01*
X75154500Y-67420500D02*
X75154500Y-66945500D01*
G75*
G02*
X75392000Y-66708000I237500J0D01*
G01*
X75992000Y-66708000D01*
G75*
G02*
X76229500Y-66945500I0J-237500D01*
G01*
X76229500Y-67420500D01*
G75*
G02*
X75992000Y-67658000I-237500J0D01*
G01*
X75392000Y-67658000D01*
G75*
G02*
X75154500Y-67420500I0J237500D01*
G01*
G37*
G36*
G01*
X73429500Y-67420500D02*
X73429500Y-66945500D01*
G75*
G02*
X73667000Y-66708000I237500J0D01*
G01*
X74267000Y-66708000D01*
G75*
G02*
X74504500Y-66945500I0J-237500D01*
G01*
X74504500Y-67420500D01*
G75*
G02*
X74267000Y-67658000I-237500J0D01*
G01*
X73667000Y-67658000D01*
G75*
G02*
X73429500Y-67420500I0J237500D01*
G01*
G37*
%TD*%
D15*
%TO.C,U1*%
X62824000Y-61058000D03*
X63224000Y-61058000D03*
X63624000Y-61058000D03*
X64024000Y-61058000D03*
X64424000Y-61058000D03*
X64824000Y-61058000D03*
X65224000Y-61058000D03*
X65624000Y-61058000D03*
X66024000Y-61058000D03*
X66424000Y-61058000D03*
X66824000Y-61058000D03*
X67224000Y-61058000D03*
D16*
X67974000Y-61808000D03*
X67974000Y-62208000D03*
X67974000Y-62608000D03*
X67974000Y-63008000D03*
X67974000Y-63408000D03*
X67974000Y-63808000D03*
X67974000Y-64208000D03*
X67974000Y-64608000D03*
X67974000Y-65008000D03*
X67974000Y-65408000D03*
X67974000Y-65808000D03*
X67974000Y-66208000D03*
D15*
X67224000Y-66958000D03*
X66824000Y-66958000D03*
X66424000Y-66958000D03*
X66024000Y-66958000D03*
X65624000Y-66958000D03*
X65224000Y-66958000D03*
X64824000Y-66958000D03*
X64424000Y-66958000D03*
X64024000Y-66958000D03*
X63624000Y-66958000D03*
X63224000Y-66958000D03*
X62824000Y-66958000D03*
D16*
X62074000Y-66208000D03*
X62074000Y-65808000D03*
X62074000Y-65408000D03*
X62074000Y-65008000D03*
X62074000Y-64608000D03*
X62074000Y-64208000D03*
X62074000Y-63808000D03*
X62074000Y-63408000D03*
X62074000Y-63008000D03*
X62074000Y-62608000D03*
X62074000Y-62208000D03*
X62074000Y-61808000D03*
%TD*%
M02*
