%TF.GenerationSoftware,KiCad,Pcbnew,(5.1.10)-1*%
%TF.CreationDate,2021-12-14T18:37:17+01:00*%
%TF.ProjectId,shield_v1,73686965-6c64-45f7-9631-2e6b69636164,rev?*%
%TF.SameCoordinates,Original*%
%TF.FileFunction,Legend,Top*%
%TF.FilePolarity,Positive*%
%FSLAX46Y46*%
G04 Gerber Fmt 4.6, Leading zero omitted, Abs format (unit mm)*
G04 Created by KiCad (PCBNEW (5.1.10)-1) date 2021-12-14 18:37:17*
%MOMM*%
%LPD*%
G01*
G04 APERTURE LIST*
%ADD10C,0.125000*%
%ADD11C,0.152400*%
%ADD12C,0.200000*%
%ADD13C,0.100000*%
%ADD14C,0.120000*%
%ADD15C,0.127000*%
%ADD16C,0.150000*%
G04 APERTURE END LIST*
D10*
X53002227Y-73402380D02*
X52954608Y-73378570D01*
X52883180Y-73378570D01*
X52811751Y-73402380D01*
X52764132Y-73449999D01*
X52740322Y-73497618D01*
X52716513Y-73592856D01*
X52716513Y-73664284D01*
X52740322Y-73759522D01*
X52764132Y-73807141D01*
X52811751Y-73854760D01*
X52883180Y-73878570D01*
X52930799Y-73878570D01*
X53002227Y-73854760D01*
X53026037Y-73830951D01*
X53026037Y-73664284D01*
X52930799Y-73664284D01*
X53240322Y-73878570D02*
X53240322Y-73378570D01*
X53526037Y-73878570D01*
X53526037Y-73378570D01*
X53764132Y-73878570D02*
X53764132Y-73378570D01*
X53883180Y-73378570D01*
X53954608Y-73402380D01*
X54002227Y-73449999D01*
X54026037Y-73497618D01*
X54049846Y-73592856D01*
X54049846Y-73664284D01*
X54026037Y-73759522D01*
X54002227Y-73807141D01*
X53954608Y-73854760D01*
X53883180Y-73878570D01*
X53764132Y-73878570D01*
X52591744Y-71501510D02*
X52901268Y-71501510D01*
X52734601Y-71691986D01*
X52806030Y-71691986D01*
X52853649Y-71715796D01*
X52877459Y-71739605D01*
X52901268Y-71787224D01*
X52901268Y-71906272D01*
X52877459Y-71953891D01*
X52853649Y-71977700D01*
X52806030Y-72001510D01*
X52663173Y-72001510D01*
X52615554Y-71977700D01*
X52591744Y-71953891D01*
X53115554Y-71953891D02*
X53139363Y-71977700D01*
X53115554Y-72001510D01*
X53091744Y-71977700D01*
X53115554Y-71953891D01*
X53115554Y-72001510D01*
X53306030Y-71501510D02*
X53615554Y-71501510D01*
X53448887Y-71691986D01*
X53520316Y-71691986D01*
X53567935Y-71715796D01*
X53591744Y-71739605D01*
X53615554Y-71787224D01*
X53615554Y-71906272D01*
X53591744Y-71953891D01*
X53567935Y-71977700D01*
X53520316Y-72001510D01*
X53377459Y-72001510D01*
X53329840Y-71977700D01*
X53306030Y-71953891D01*
X53758411Y-71501510D02*
X53925078Y-72001510D01*
X54091744Y-71501510D01*
X53031117Y-77764153D02*
X53269212Y-77764153D01*
X52983498Y-77907010D02*
X53150164Y-77407010D01*
X53316831Y-77907010D01*
X53745402Y-77907010D02*
X53459688Y-77907010D01*
X53602545Y-77907010D02*
X53602545Y-77407010D01*
X53554926Y-77478439D01*
X53507307Y-77526058D01*
X53459688Y-77549867D01*
X52866064Y-76302110D02*
X53175588Y-76302110D01*
X53008921Y-76492586D01*
X53080350Y-76492586D01*
X53127969Y-76516396D01*
X53151779Y-76540205D01*
X53175588Y-76587824D01*
X53175588Y-76706872D01*
X53151779Y-76754491D01*
X53127969Y-76778300D01*
X53080350Y-76802110D01*
X52937493Y-76802110D01*
X52889874Y-76778300D01*
X52866064Y-76754491D01*
X53389874Y-76754491D02*
X53413683Y-76778300D01*
X53389874Y-76802110D01*
X53366064Y-76778300D01*
X53389874Y-76754491D01*
X53389874Y-76802110D01*
X53580350Y-76302110D02*
X53889874Y-76302110D01*
X53723207Y-76492586D01*
X53794636Y-76492586D01*
X53842255Y-76516396D01*
X53866064Y-76540205D01*
X53889874Y-76587824D01*
X53889874Y-76706872D01*
X53866064Y-76754491D01*
X53842255Y-76778300D01*
X53794636Y-76802110D01*
X53651779Y-76802110D01*
X53604160Y-76778300D01*
X53580350Y-76754491D01*
X54032731Y-76302110D02*
X54199398Y-76802110D01*
X54366064Y-76302110D01*
X78783097Y-63702380D02*
X78854525Y-63726190D01*
X78973573Y-63726190D01*
X79021192Y-63702380D01*
X79045001Y-63678571D01*
X79068811Y-63630952D01*
X79068811Y-63583333D01*
X79045001Y-63535714D01*
X79021192Y-63511904D01*
X78973573Y-63488095D01*
X78878335Y-63464285D01*
X78830716Y-63440476D01*
X78806906Y-63416666D01*
X78783097Y-63369047D01*
X78783097Y-63321428D01*
X78806906Y-63273809D01*
X78830716Y-63250000D01*
X78878335Y-63226190D01*
X78997382Y-63226190D01*
X79068811Y-63250000D01*
X79283097Y-63726190D02*
X79283097Y-63226190D01*
X79402144Y-63226190D01*
X79473573Y-63250000D01*
X79521192Y-63297619D01*
X79545001Y-63345238D01*
X79568811Y-63440476D01*
X79568811Y-63511904D01*
X79545001Y-63607142D01*
X79521192Y-63654761D01*
X79473573Y-63702380D01*
X79402144Y-63726190D01*
X79283097Y-63726190D01*
X79759287Y-63583333D02*
X79997382Y-63583333D01*
X79711668Y-63726190D02*
X79878335Y-63226190D01*
X80045001Y-63726190D01*
X78716261Y-61683080D02*
X78787690Y-61706890D01*
X78906738Y-61706890D01*
X78954357Y-61683080D01*
X78978166Y-61659271D01*
X79001976Y-61611652D01*
X79001976Y-61564033D01*
X78978166Y-61516414D01*
X78954357Y-61492604D01*
X78906738Y-61468795D01*
X78811500Y-61444985D01*
X78763880Y-61421176D01*
X78740071Y-61397366D01*
X78716261Y-61349747D01*
X78716261Y-61302128D01*
X78740071Y-61254509D01*
X78763880Y-61230700D01*
X78811500Y-61206890D01*
X78930547Y-61206890D01*
X79001976Y-61230700D01*
X79501976Y-61659271D02*
X79478166Y-61683080D01*
X79406738Y-61706890D01*
X79359119Y-61706890D01*
X79287690Y-61683080D01*
X79240071Y-61635461D01*
X79216261Y-61587842D01*
X79192452Y-61492604D01*
X79192452Y-61421176D01*
X79216261Y-61325938D01*
X79240071Y-61278319D01*
X79287690Y-61230700D01*
X79359119Y-61206890D01*
X79406738Y-61206890D01*
X79478166Y-61230700D01*
X79501976Y-61254509D01*
X79954357Y-61706890D02*
X79716261Y-61706890D01*
X79716261Y-61206890D01*
D11*
%TO.C,J6*%
X69189600Y-50419000D02*
X60858400Y-50419000D01*
X60858400Y-50419000D02*
X60858400Y-51435000D01*
X60858400Y-56261000D02*
X62280800Y-56261000D01*
X69189600Y-56261000D02*
X69189600Y-54330600D01*
X67767200Y-56261000D02*
X69189600Y-56261000D01*
X69189600Y-51435000D02*
X69189600Y-50419000D01*
X60858400Y-54330600D02*
X60858400Y-56261000D01*
D12*
%TO.C,J5*%
X72100000Y-81400000D02*
X71300000Y-81400000D01*
X72100000Y-80900000D02*
X72100000Y-81400000D01*
X60900000Y-81400000D02*
X61700000Y-81400000D01*
X60900000Y-80900000D02*
X60900000Y-81400000D01*
D13*
X62200000Y-82500000D02*
X62200000Y-82500000D01*
X62300000Y-82500000D02*
X62300000Y-82500000D01*
X62300000Y-82500000D02*
G75*
G02*
X62200000Y-82500000I-50000J0D01*
G01*
X62200000Y-82500000D02*
G75*
G02*
X62300000Y-82500000I50000J0D01*
G01*
D14*
%TO.C,J3*%
X52685000Y-73837000D02*
X52000000Y-73837000D01*
X52685000Y-73152000D02*
X52685000Y-73837000D01*
X48690000Y-71942000D02*
X50690000Y-71942000D01*
X48690000Y-72362000D02*
X48690000Y-71942000D01*
X50690000Y-72362000D02*
X48690000Y-72362000D01*
X51315000Y-72652000D02*
X50690000Y-72652000D01*
X50690000Y-73062000D02*
X48690000Y-73062000D01*
X50690000Y-73182000D02*
X48690000Y-73182000D01*
X50690000Y-73302000D02*
X48690000Y-73302000D01*
X48690000Y-72942000D02*
X50690000Y-72942000D01*
X48690000Y-73362000D02*
X48690000Y-72942000D01*
X50690000Y-73362000D02*
X48690000Y-73362000D01*
X50690000Y-71592000D02*
X51605507Y-71592000D01*
X50690000Y-73712000D02*
X50690000Y-71592000D01*
X51315000Y-73712000D02*
X50690000Y-73712000D01*
%TO.C,J2*%
X52685000Y-78256600D02*
X52000000Y-78256600D01*
X52685000Y-77571600D02*
X52685000Y-78256600D01*
X48690000Y-76361600D02*
X50690000Y-76361600D01*
X48690000Y-76781600D02*
X48690000Y-76361600D01*
X50690000Y-76781600D02*
X48690000Y-76781600D01*
X51315000Y-77071600D02*
X50690000Y-77071600D01*
X50690000Y-77481600D02*
X48690000Y-77481600D01*
X50690000Y-77601600D02*
X48690000Y-77601600D01*
X50690000Y-77721600D02*
X48690000Y-77721600D01*
X48690000Y-77361600D02*
X50690000Y-77361600D01*
X48690000Y-77781600D02*
X48690000Y-77361600D01*
X50690000Y-77781600D02*
X48690000Y-77781600D01*
X50690000Y-76011600D02*
X51605507Y-76011600D01*
X50690000Y-78131600D02*
X50690000Y-76011600D01*
X51315000Y-78131600D02*
X50690000Y-78131600D01*
%TO.C,J1*%
X80214000Y-61291000D02*
X80899000Y-61291000D01*
X80214000Y-61976000D02*
X80214000Y-61291000D01*
X84209000Y-63186000D02*
X82209000Y-63186000D01*
X84209000Y-62766000D02*
X84209000Y-63186000D01*
X82209000Y-62766000D02*
X84209000Y-62766000D01*
X81584000Y-62476000D02*
X82209000Y-62476000D01*
X82209000Y-62066000D02*
X84209000Y-62066000D01*
X82209000Y-61946000D02*
X84209000Y-61946000D01*
X82209000Y-61826000D02*
X84209000Y-61826000D01*
X84209000Y-62186000D02*
X82209000Y-62186000D01*
X84209000Y-61766000D02*
X84209000Y-62186000D01*
X82209000Y-61766000D02*
X84209000Y-61766000D01*
X82209000Y-63536000D02*
X81293493Y-63536000D01*
X82209000Y-61416000D02*
X82209000Y-63536000D01*
X81584000Y-61416000D02*
X82209000Y-61416000D01*
%TO.C,R1*%
X74168724Y-58913500D02*
X73659276Y-58913500D01*
X74168724Y-59958500D02*
X73659276Y-59958500D01*
%TO.C,C4*%
X66593767Y-69848000D02*
X66301233Y-69848000D01*
X66593767Y-70868000D02*
X66301233Y-70868000D01*
%TO.C,C3*%
X72397233Y-70741000D02*
X72689767Y-70741000D01*
X72397233Y-69721000D02*
X72689767Y-69721000D01*
%TO.C,C2*%
X72028267Y-63879000D02*
X71735733Y-63879000D01*
X72028267Y-64899000D02*
X71735733Y-64899000D01*
%TO.C,C1*%
X74683233Y-67693000D02*
X74975767Y-67693000D01*
X74683233Y-66673000D02*
X74975767Y-66673000D01*
D15*
%TO.C,U1*%
X62524000Y-61008000D02*
X62024000Y-61008000D01*
X62024000Y-61008000D02*
X62024000Y-61508000D01*
X67524000Y-61008000D02*
X68024000Y-61008000D01*
X68024000Y-61008000D02*
X68024000Y-61508000D01*
X68024000Y-66508000D02*
X68024000Y-67008000D01*
X68024000Y-67008000D02*
X67524000Y-67008000D01*
X62524000Y-67008000D02*
X62024000Y-67008000D01*
X62024000Y-67008000D02*
X62024000Y-66508000D01*
%TO.C,R1*%
D16*
X73747333Y-61318380D02*
X73414000Y-60842190D01*
X73175904Y-61318380D02*
X73175904Y-60318380D01*
X73556857Y-60318380D01*
X73652095Y-60366000D01*
X73699714Y-60413619D01*
X73747333Y-60508857D01*
X73747333Y-60651714D01*
X73699714Y-60746952D01*
X73652095Y-60794571D01*
X73556857Y-60842190D01*
X73175904Y-60842190D01*
X74699714Y-61318380D02*
X74128285Y-61318380D01*
X74414000Y-61318380D02*
X74414000Y-60318380D01*
X74318761Y-60461238D01*
X74223523Y-60556476D01*
X74128285Y-60604095D01*
%TO.C,C4*%
X66280833Y-72145142D02*
X66233214Y-72192761D01*
X66090357Y-72240380D01*
X65995119Y-72240380D01*
X65852261Y-72192761D01*
X65757023Y-72097523D01*
X65709404Y-72002285D01*
X65661785Y-71811809D01*
X65661785Y-71668952D01*
X65709404Y-71478476D01*
X65757023Y-71383238D01*
X65852261Y-71288000D01*
X65995119Y-71240380D01*
X66090357Y-71240380D01*
X66233214Y-71288000D01*
X66280833Y-71335619D01*
X67137976Y-71573714D02*
X67137976Y-72240380D01*
X66899880Y-71192761D02*
X66661785Y-71907047D01*
X67280833Y-71907047D01*
%TO.C,C3*%
X72376833Y-69158142D02*
X72329214Y-69205761D01*
X72186357Y-69253380D01*
X72091119Y-69253380D01*
X71948261Y-69205761D01*
X71853023Y-69110523D01*
X71805404Y-69015285D01*
X71757785Y-68824809D01*
X71757785Y-68681952D01*
X71805404Y-68491476D01*
X71853023Y-68396238D01*
X71948261Y-68301000D01*
X72091119Y-68253380D01*
X72186357Y-68253380D01*
X72329214Y-68301000D01*
X72376833Y-68348619D01*
X72710166Y-68253380D02*
X73329214Y-68253380D01*
X72995880Y-68634333D01*
X73138738Y-68634333D01*
X73233976Y-68681952D01*
X73281595Y-68729571D01*
X73329214Y-68824809D01*
X73329214Y-69062904D01*
X73281595Y-69158142D01*
X73233976Y-69205761D01*
X73138738Y-69253380D01*
X72853023Y-69253380D01*
X72757785Y-69205761D01*
X72710166Y-69158142D01*
%TO.C,C2*%
X71715333Y-66176142D02*
X71667714Y-66223761D01*
X71524857Y-66271380D01*
X71429619Y-66271380D01*
X71286761Y-66223761D01*
X71191523Y-66128523D01*
X71143904Y-66033285D01*
X71096285Y-65842809D01*
X71096285Y-65699952D01*
X71143904Y-65509476D01*
X71191523Y-65414238D01*
X71286761Y-65319000D01*
X71429619Y-65271380D01*
X71524857Y-65271380D01*
X71667714Y-65319000D01*
X71715333Y-65366619D01*
X72096285Y-65366619D02*
X72143904Y-65319000D01*
X72239142Y-65271380D01*
X72477238Y-65271380D01*
X72572476Y-65319000D01*
X72620095Y-65366619D01*
X72667714Y-65461857D01*
X72667714Y-65557095D01*
X72620095Y-65699952D01*
X72048666Y-66271380D01*
X72667714Y-66271380D01*
%TO.C,C1*%
X74662833Y-66110142D02*
X74615214Y-66157761D01*
X74472357Y-66205380D01*
X74377119Y-66205380D01*
X74234261Y-66157761D01*
X74139023Y-66062523D01*
X74091404Y-65967285D01*
X74043785Y-65776809D01*
X74043785Y-65633952D01*
X74091404Y-65443476D01*
X74139023Y-65348238D01*
X74234261Y-65253000D01*
X74377119Y-65205380D01*
X74472357Y-65205380D01*
X74615214Y-65253000D01*
X74662833Y-65300619D01*
X75615214Y-66205380D02*
X75043785Y-66205380D01*
X75329500Y-66205380D02*
X75329500Y-65205380D01*
X75234261Y-65348238D01*
X75139023Y-65443476D01*
X75043785Y-65491095D01*
%TD*%
M02*
