%TF.GenerationSoftware,KiCad,Pcbnew,(5.1.10)-1*%
%TF.CreationDate,2021-12-14T18:37:17+01:00*%
%TF.ProjectId,shield_v1,73686965-6c64-45f7-9631-2e6b69636164,rev?*%
%TF.SameCoordinates,Original*%
%TF.FileFunction,Copper,L1,Top*%
%TF.FilePolarity,Positive*%
%FSLAX46Y46*%
G04 Gerber Fmt 4.6, Leading zero omitted, Abs format (unit mm)*
G04 Created by KiCad (PCBNEW (5.1.10)-1) date 2021-12-14 18:37:17*
%MOMM*%
%LPD*%
G01*
G04 APERTURE LIST*
%TA.AperFunction,WasherPad*%
%ADD10C,2.100000*%
%TD*%
%TA.AperFunction,SMDPad,CuDef*%
%ADD11R,1.803400X2.209800*%
%TD*%
%TA.AperFunction,SMDPad,CuDef*%
%ADD12R,0.304800X1.295400*%
%TD*%
%TA.AperFunction,SMDPad,CuDef*%
%ADD13R,0.800000X1.800000*%
%TD*%
%TA.AperFunction,ComponentPad*%
%ADD14C,0.300000*%
%TD*%
%TA.AperFunction,SMDPad,CuDef*%
%ADD15R,0.300000X1.600000*%
%TD*%
%TA.AperFunction,ComponentPad*%
%ADD16O,0.850000X0.850000*%
%TD*%
%TA.AperFunction,ComponentPad*%
%ADD17R,0.850000X0.850000*%
%TD*%
%TA.AperFunction,SMDPad,CuDef*%
%ADD18R,0.230000X0.810000*%
%TD*%
%TA.AperFunction,SMDPad,CuDef*%
%ADD19R,0.810000X0.230000*%
%TD*%
%TA.AperFunction,SMDPad,CuDef*%
%ADD20R,4.600000X4.600000*%
%TD*%
%TA.AperFunction,ViaPad*%
%ADD21C,0.700000*%
%TD*%
%TA.AperFunction,Conductor*%
%ADD22C,0.250000*%
%TD*%
%TA.AperFunction,Conductor*%
%ADD23C,0.200000*%
%TD*%
%TA.AperFunction,Conductor*%
%ADD24C,0.254000*%
%TD*%
%TA.AperFunction,Conductor*%
%ADD25C,0.100000*%
%TD*%
G04 APERTURE END LIST*
D10*
%TO.P,REF\u002A\u002A,*%
%TO.N,*%
X52000000Y-81000000D03*
%TD*%
%TO.P,REF\u002A\u002A,*%
%TO.N,*%
X81000000Y-81000000D03*
%TD*%
%TO.P,REF\u002A\u002A,*%
%TO.N,*%
X81000000Y-52000000D03*
%TD*%
%TO.P,REF\u002A\u002A,*%
%TO.N,*%
X52000000Y-52000000D03*
%TD*%
D11*
%TO.P,J6,12*%
%TO.N,N/C*%
X60874000Y-52884000D03*
%TO.P,J6,11*%
X69174000Y-52884000D03*
D12*
%TO.P,J6,10*%
%TO.N,TX4*%
X62774000Y-56134000D03*
%TO.P,J6,9*%
%TO.N,TX3*%
X63274000Y-56134000D03*
%TO.P,J6,8*%
%TO.N,RX6*%
X63774000Y-56134000D03*
%TO.P,J6,7*%
%TO.N,RX5*%
X64274000Y-56134000D03*
%TO.P,J6,6*%
%TO.N,RX4*%
X64774000Y-56134000D03*
%TO.P,J6,5*%
%TO.N,RX3*%
X65274000Y-56134000D03*
%TO.P,J6,4*%
%TO.N,RX2*%
X65774000Y-56134000D03*
%TO.P,J6,3*%
%TO.N,RX1*%
X66274000Y-56134000D03*
%TO.P,J6,2*%
%TO.N,TX2*%
X66774000Y-56134000D03*
%TO.P,J6,1*%
%TO.N,TX1*%
X67274000Y-56134000D03*
%TD*%
D13*
%TO.P,J5,MP2*%
%TO.N,Net-(J5-PadMP2)*%
X72500000Y-79500000D03*
%TO.P,J5,MP1*%
%TO.N,Net-(J5-PadMP1)*%
X60500000Y-79500000D03*
D14*
%TO.P,J5,MH2*%
%TO.N,N/C*%
X71800000Y-78000000D03*
%TO.P,J5,MH1*%
X61200000Y-78000000D03*
D15*
%TO.P,J5,36*%
%TO.N,Net-(J5-Pad36)*%
X70750000Y-77700000D03*
%TO.P,J5,35*%
%TO.N,GND*%
X70750000Y-81300000D03*
%TO.P,J5,34*%
%TO.N,Net-(J5-Pad34)*%
X70250000Y-77700000D03*
%TO.P,J5,33*%
%TO.N,GND*%
X70250000Y-81300000D03*
%TO.P,J5,32*%
%TO.N,Net-(J5-Pad32)*%
X69750000Y-77700000D03*
%TO.P,J5,31*%
%TO.N,+3V3*%
X69750000Y-81300000D03*
%TO.P,J5,30*%
%TO.N,Net-(J5-Pad30)*%
X69250000Y-77700000D03*
%TO.P,J5,29*%
%TO.N,+3V3*%
X69250000Y-81300000D03*
%TO.P,J5,28*%
%TO.N,Net-(J5-Pad28)*%
X68750000Y-77700000D03*
%TO.P,J5,27*%
%TO.N,SCL*%
X68750000Y-81300000D03*
%TO.P,J5,26*%
%TO.N,Net-(J5-Pad26)*%
X68250000Y-77700000D03*
%TO.P,J5,25*%
%TO.N,SDA*%
X68250000Y-81300000D03*
%TO.P,J5,24*%
%TO.N,Net-(J5-Pad24)*%
X67750000Y-77700000D03*
%TO.P,J5,23*%
%TO.N,Net-(J5-Pad23)*%
X67750000Y-81300000D03*
%TO.P,J5,22*%
%TO.N,Net-(J5-Pad22)*%
X67250000Y-77700000D03*
%TO.P,J5,21*%
%TO.N,Net-(J5-Pad21)*%
X67250000Y-81300000D03*
%TO.P,J5,20*%
%TO.N,Net-(J5-Pad20)*%
X66750000Y-77700000D03*
%TO.P,J5,19*%
%TO.N,Net-(J5-Pad19)*%
X66750000Y-81300000D03*
%TO.P,J5,18*%
%TO.N,Net-(J5-Pad18)*%
X66250000Y-77700000D03*
%TO.P,J5,17*%
%TO.N,Net-(J5-Pad17)*%
X66250000Y-81300000D03*
%TO.P,J5,16*%
%TO.N,Net-(J5-Pad16)*%
X65750000Y-77700000D03*
%TO.P,J5,15*%
%TO.N,Net-(J5-Pad15)*%
X65750000Y-81300000D03*
%TO.P,J5,14*%
%TO.N,Net-(J5-Pad14)*%
X65250000Y-77700000D03*
%TO.P,J5,13*%
%TO.N,Net-(J5-Pad13)*%
X65250000Y-81300000D03*
%TO.P,J5,12*%
%TO.N,Net-(J5-Pad12)*%
X64750000Y-77700000D03*
%TO.P,J5,11*%
%TO.N,Net-(J5-Pad11)*%
X64750000Y-81300000D03*
%TO.P,J5,10*%
%TO.N,Net-(J5-Pad10)*%
X64250000Y-77700000D03*
%TO.P,J5,9*%
%TO.N,Net-(J5-Pad9)*%
X64250000Y-81300000D03*
%TO.P,J5,8*%
%TO.N,Net-(J5-Pad8)*%
X63750000Y-77700000D03*
%TO.P,J5,7*%
%TO.N,Net-(J5-Pad7)*%
X63750000Y-81300000D03*
%TO.P,J5,6*%
%TO.N,Net-(J5-Pad6)*%
X63250000Y-77700000D03*
%TO.P,J5,5*%
%TO.N,Net-(J5-Pad5)*%
X63250000Y-81300000D03*
%TO.P,J5,4*%
%TO.N,Net-(J5-Pad4)*%
X62750000Y-77700000D03*
%TO.P,J5,3*%
%TO.N,A1*%
X62750000Y-81300000D03*
%TO.P,J5,2*%
%TO.N,Net-(J5-Pad2)*%
X62250000Y-77700000D03*
%TO.P,J5,1*%
%TO.N,Net-(J5-Pad1)*%
X62250000Y-81300000D03*
%TD*%
D14*
%TO.P,J4,MH2*%
%TO.N,N/C*%
X71789520Y-81001140D03*
%TO.P,J4,MH1*%
X61189520Y-81001140D03*
%TD*%
D16*
%TO.P,J3,2*%
%TO.N,+3V3*%
X52000000Y-72152000D03*
D17*
%TO.P,J3,1*%
%TO.N,GND*%
X52000000Y-73152000D03*
%TD*%
D16*
%TO.P,J2,2*%
%TO.N,+3V3*%
X52000000Y-76571600D03*
D17*
%TO.P,J2,1*%
%TO.N,A1*%
X52000000Y-77571600D03*
%TD*%
D16*
%TO.P,J1,2*%
%TO.N,SDA*%
X80899000Y-62976000D03*
D17*
%TO.P,J1,1*%
%TO.N,SCL*%
X80899000Y-61976000D03*
%TD*%
%TO.P,R1,2*%
%TO.N,VDDA*%
%TA.AperFunction,SMDPad,CuDef*%
G36*
G01*
X73489000Y-59198500D02*
X73489000Y-59673500D01*
G75*
G02*
X73251500Y-59911000I-237500J0D01*
G01*
X72751500Y-59911000D01*
G75*
G02*
X72514000Y-59673500I0J237500D01*
G01*
X72514000Y-59198500D01*
G75*
G02*
X72751500Y-58961000I237500J0D01*
G01*
X73251500Y-58961000D01*
G75*
G02*
X73489000Y-59198500I0J-237500D01*
G01*
G37*
%TD.AperFunction*%
%TO.P,R1,1*%
%TO.N,+3V3*%
%TA.AperFunction,SMDPad,CuDef*%
G36*
G01*
X75314000Y-59198500D02*
X75314000Y-59673500D01*
G75*
G02*
X75076500Y-59911000I-237500J0D01*
G01*
X74576500Y-59911000D01*
G75*
G02*
X74339000Y-59673500I0J237500D01*
G01*
X74339000Y-59198500D01*
G75*
G02*
X74576500Y-58961000I237500J0D01*
G01*
X75076500Y-58961000D01*
G75*
G02*
X75314000Y-59198500I0J-237500D01*
G01*
G37*
%TD.AperFunction*%
%TD*%
%TO.P,C4,2*%
%TO.N,Net-(C4-Pad2)*%
%TA.AperFunction,SMDPad,CuDef*%
G36*
G01*
X66122500Y-70120500D02*
X66122500Y-70595500D01*
G75*
G02*
X65885000Y-70833000I-237500J0D01*
G01*
X65285000Y-70833000D01*
G75*
G02*
X65047500Y-70595500I0J237500D01*
G01*
X65047500Y-70120500D01*
G75*
G02*
X65285000Y-69883000I237500J0D01*
G01*
X65885000Y-69883000D01*
G75*
G02*
X66122500Y-70120500I0J-237500D01*
G01*
G37*
%TD.AperFunction*%
%TO.P,C4,1*%
%TO.N,GND*%
%TA.AperFunction,SMDPad,CuDef*%
G36*
G01*
X67847500Y-70120500D02*
X67847500Y-70595500D01*
G75*
G02*
X67610000Y-70833000I-237500J0D01*
G01*
X67010000Y-70833000D01*
G75*
G02*
X66772500Y-70595500I0J237500D01*
G01*
X66772500Y-70120500D01*
G75*
G02*
X67010000Y-69883000I237500J0D01*
G01*
X67610000Y-69883000D01*
G75*
G02*
X67847500Y-70120500I0J-237500D01*
G01*
G37*
%TD.AperFunction*%
%TD*%
%TO.P,C3,2*%
%TO.N,+3V3*%
%TA.AperFunction,SMDPad,CuDef*%
G36*
G01*
X72868500Y-70468500D02*
X72868500Y-69993500D01*
G75*
G02*
X73106000Y-69756000I237500J0D01*
G01*
X73706000Y-69756000D01*
G75*
G02*
X73943500Y-69993500I0J-237500D01*
G01*
X73943500Y-70468500D01*
G75*
G02*
X73706000Y-70706000I-237500J0D01*
G01*
X73106000Y-70706000D01*
G75*
G02*
X72868500Y-70468500I0J237500D01*
G01*
G37*
%TD.AperFunction*%
%TO.P,C3,1*%
%TO.N,GND*%
%TA.AperFunction,SMDPad,CuDef*%
G36*
G01*
X71143500Y-70468500D02*
X71143500Y-69993500D01*
G75*
G02*
X71381000Y-69756000I237500J0D01*
G01*
X71981000Y-69756000D01*
G75*
G02*
X72218500Y-69993500I0J-237500D01*
G01*
X72218500Y-70468500D01*
G75*
G02*
X71981000Y-70706000I-237500J0D01*
G01*
X71381000Y-70706000D01*
G75*
G02*
X71143500Y-70468500I0J237500D01*
G01*
G37*
%TD.AperFunction*%
%TD*%
%TO.P,C2,2*%
%TO.N,VDDD*%
%TA.AperFunction,SMDPad,CuDef*%
G36*
G01*
X71557000Y-64151500D02*
X71557000Y-64626500D01*
G75*
G02*
X71319500Y-64864000I-237500J0D01*
G01*
X70719500Y-64864000D01*
G75*
G02*
X70482000Y-64626500I0J237500D01*
G01*
X70482000Y-64151500D01*
G75*
G02*
X70719500Y-63914000I237500J0D01*
G01*
X71319500Y-63914000D01*
G75*
G02*
X71557000Y-64151500I0J-237500D01*
G01*
G37*
%TD.AperFunction*%
%TO.P,C2,1*%
%TO.N,GND*%
%TA.AperFunction,SMDPad,CuDef*%
G36*
G01*
X73282000Y-64151500D02*
X73282000Y-64626500D01*
G75*
G02*
X73044500Y-64864000I-237500J0D01*
G01*
X72444500Y-64864000D01*
G75*
G02*
X72207000Y-64626500I0J237500D01*
G01*
X72207000Y-64151500D01*
G75*
G02*
X72444500Y-63914000I237500J0D01*
G01*
X73044500Y-63914000D01*
G75*
G02*
X73282000Y-64151500I0J-237500D01*
G01*
G37*
%TD.AperFunction*%
%TD*%
%TO.P,C1,2*%
%TO.N,VDDA*%
%TA.AperFunction,SMDPad,CuDef*%
G36*
G01*
X75154500Y-67420500D02*
X75154500Y-66945500D01*
G75*
G02*
X75392000Y-66708000I237500J0D01*
G01*
X75992000Y-66708000D01*
G75*
G02*
X76229500Y-66945500I0J-237500D01*
G01*
X76229500Y-67420500D01*
G75*
G02*
X75992000Y-67658000I-237500J0D01*
G01*
X75392000Y-67658000D01*
G75*
G02*
X75154500Y-67420500I0J237500D01*
G01*
G37*
%TD.AperFunction*%
%TO.P,C1,1*%
%TO.N,GND*%
%TA.AperFunction,SMDPad,CuDef*%
G36*
G01*
X73429500Y-67420500D02*
X73429500Y-66945500D01*
G75*
G02*
X73667000Y-66708000I237500J0D01*
G01*
X74267000Y-66708000D01*
G75*
G02*
X74504500Y-66945500I0J-237500D01*
G01*
X74504500Y-67420500D01*
G75*
G02*
X74267000Y-67658000I-237500J0D01*
G01*
X73667000Y-67658000D01*
G75*
G02*
X73429500Y-67420500I0J237500D01*
G01*
G37*
%TD.AperFunction*%
%TD*%
D18*
%TO.P,U1,48*%
%TO.N,Net-(U1-Pad48)*%
X62824000Y-61058000D03*
%TO.P,U1,47*%
%TO.N,Net-(U1-Pad47)*%
X63224000Y-61058000D03*
%TO.P,U1,46*%
%TO.N,Net-(U1-Pad46)*%
X63624000Y-61058000D03*
%TO.P,U1,45*%
%TO.N,Net-(U1-Pad45)*%
X64024000Y-61058000D03*
%TO.P,U1,44*%
%TO.N,Net-(U1-Pad44)*%
X64424000Y-61058000D03*
%TO.P,U1,43*%
%TO.N,Net-(U1-Pad43)*%
X64824000Y-61058000D03*
%TO.P,U1,42*%
%TO.N,RX6*%
X65224000Y-61058000D03*
%TO.P,U1,41*%
%TO.N,RX5*%
X65624000Y-61058000D03*
%TO.P,U1,40*%
%TO.N,RX4*%
X66024000Y-61058000D03*
%TO.P,U1,39*%
%TO.N,RX3*%
X66424000Y-61058000D03*
%TO.P,U1,38*%
%TO.N,RX2*%
X66824000Y-61058000D03*
%TO.P,U1,37*%
%TO.N,RX1*%
X67224000Y-61058000D03*
D19*
%TO.P,U1,36*%
%TO.N,VDDA*%
X67974000Y-61808000D03*
%TO.P,U1,35*%
%TO.N,Net-(U1-Pad35)*%
X67974000Y-62208000D03*
%TO.P,U1,34*%
%TO.N,SCL*%
X67974000Y-62608000D03*
%TO.P,U1,33*%
%TO.N,SDA*%
X67974000Y-63008000D03*
%TO.P,U1,32*%
%TO.N,Net-(U1-Pad32)*%
X67974000Y-63408000D03*
%TO.P,U1,31*%
%TO.N,Net-(U1-Pad31)*%
X67974000Y-63808000D03*
%TO.P,U1,30*%
%TO.N,Net-(U1-Pad30)*%
X67974000Y-64208000D03*
%TO.P,U1,29*%
%TO.N,Net-(U1-Pad29)*%
X67974000Y-64608000D03*
%TO.P,U1,28*%
%TO.N,Net-(U1-Pad28)*%
X67974000Y-65008000D03*
%TO.P,U1,27*%
%TO.N,VDDD*%
X67974000Y-65408000D03*
%TO.P,U1,26*%
%TO.N,GND*%
X67974000Y-65808000D03*
%TO.P,U1,25*%
X67974000Y-66208000D03*
D18*
%TO.P,U1,24*%
%TO.N,+3V3*%
X67224000Y-66958000D03*
%TO.P,U1,23*%
%TO.N,Net-(C4-Pad2)*%
X66824000Y-66958000D03*
%TO.P,U1,22*%
%TO.N,Net-(U1-Pad22)*%
X66424000Y-66958000D03*
%TO.P,U1,21*%
%TO.N,Net-(U1-Pad21)*%
X66024000Y-66958000D03*
%TO.P,U1,20*%
%TO.N,Net-(U1-Pad20)*%
X65624000Y-66958000D03*
%TO.P,U1,19*%
%TO.N,Net-(U1-Pad19)*%
X65224000Y-66958000D03*
%TO.P,U1,18*%
%TO.N,Net-(U1-Pad18)*%
X64824000Y-66958000D03*
%TO.P,U1,17*%
%TO.N,Net-(U1-Pad17)*%
X64424000Y-66958000D03*
%TO.P,U1,16*%
%TO.N,Net-(U1-Pad16)*%
X64024000Y-66958000D03*
%TO.P,U1,15*%
%TO.N,Net-(U1-Pad15)*%
X63624000Y-66958000D03*
%TO.P,U1,14*%
%TO.N,Net-(U1-Pad14)*%
X63224000Y-66958000D03*
%TO.P,U1,13*%
%TO.N,Net-(U1-Pad13)*%
X62824000Y-66958000D03*
D19*
%TO.P,U1,12*%
%TO.N,Net-(U1-Pad12)*%
X62074000Y-66208000D03*
%TO.P,U1,11*%
%TO.N,Net-(U1-Pad11)*%
X62074000Y-65808000D03*
%TO.P,U1,10*%
%TO.N,Net-(U1-Pad10)*%
X62074000Y-65408000D03*
%TO.P,U1,9*%
%TO.N,Net-(U1-Pad9)*%
X62074000Y-65008000D03*
%TO.P,U1,8*%
%TO.N,Net-(U1-Pad8)*%
X62074000Y-64608000D03*
%TO.P,U1,7*%
%TO.N,Net-(U1-Pad7)*%
X62074000Y-64208000D03*
%TO.P,U1,6*%
%TO.N,Net-(U1-Pad6)*%
X62074000Y-63808000D03*
%TO.P,U1,5*%
%TO.N,TX4*%
X62074000Y-63408000D03*
%TO.P,U1,4*%
%TO.N,TX3*%
X62074000Y-63008000D03*
%TO.P,U1,3*%
%TO.N,TX2*%
X62074000Y-62608000D03*
%TO.P,U1,2*%
%TO.N,TX1*%
X62074000Y-62208000D03*
%TO.P,U1,1*%
%TO.N,GND*%
X62074000Y-61808000D03*
D20*
%TO.P,U1,49*%
%TO.N,N/C*%
X65024000Y-64008000D03*
%TD*%
D21*
%TO.N,GND*%
X70690740Y-79933800D03*
%TO.N,SCL*%
X72001380Y-81871820D03*
%TO.N,SDA*%
X72969120Y-82532220D03*
%TO.N,+3V3*%
X67818000Y-68834000D03*
X76962000Y-59436000D03*
X75565000Y-70231000D03*
X69239520Y-80008340D03*
%TO.N,TX2*%
X66936620Y-58356500D03*
X58618120Y-63218060D03*
%TO.N,TX1*%
X67759580Y-58356500D03*
X58633360Y-62362080D03*
%TO.N,A1*%
X62750700Y-82514440D03*
%TD*%
D22*
%TO.N,GND*%
X73967000Y-67183000D02*
X71120000Y-67183000D01*
X71120000Y-67183000D02*
X69469000Y-68834000D01*
X69469000Y-68834000D02*
X69469000Y-69723000D01*
X69977000Y-70231000D02*
X71681000Y-70231000D01*
X69469000Y-69723000D02*
X69977000Y-70231000D01*
X69469000Y-69723000D02*
X68961000Y-70231000D01*
X67437000Y-70231000D02*
X67310000Y-70358000D01*
X68961000Y-70231000D02*
X67437000Y-70231000D01*
X74168000Y-64389000D02*
X72744500Y-64389000D01*
X74549000Y-65151000D02*
X74549000Y-64770000D01*
X74041000Y-65659000D02*
X74549000Y-65151000D01*
X70993000Y-65659000D02*
X74041000Y-65659000D01*
X70612000Y-66040000D02*
X70993000Y-65659000D01*
X70612000Y-66675000D02*
X70612000Y-66040000D01*
X74549000Y-64770000D02*
X74168000Y-64389000D01*
X71120000Y-67183000D02*
X70612000Y-66675000D01*
X70612000Y-66675000D02*
X70145000Y-66208000D01*
X69555000Y-66208000D02*
X69555000Y-66126000D01*
X70145000Y-66208000D02*
X69555000Y-66208000D01*
X69555000Y-66208000D02*
X67974000Y-66208000D01*
X69555000Y-66126000D02*
X69277001Y-65848001D01*
X69277001Y-65848001D02*
X67974000Y-65848001D01*
X55626000Y-73152000D02*
X51816000Y-73152000D01*
X56832500Y-71945500D02*
X55626000Y-73152000D01*
D23*
X70690740Y-81257360D02*
X70724521Y-81291141D01*
D22*
X70690740Y-79933800D02*
X70690740Y-81257360D01*
X70224521Y-80400019D02*
X70690740Y-79933800D01*
X70224521Y-81291141D02*
X70224521Y-80400019D01*
D23*
X62824000Y-61808000D02*
X65024000Y-64008000D01*
X62074000Y-61808000D02*
X62824000Y-61808000D01*
X66824000Y-65808000D02*
X65024000Y-64008000D01*
X67974000Y-65808000D02*
X66824000Y-65808000D01*
X67224000Y-66208000D02*
X65024000Y-64008000D01*
X67974000Y-66208000D02*
X67224000Y-66208000D01*
D22*
X56896000Y-71882000D02*
X56832500Y-71945500D01*
X69461380Y-71882000D02*
X56896000Y-71882000D01*
X71224140Y-73644760D02*
X69461380Y-71882000D01*
X71224140Y-79400400D02*
X71224140Y-73644760D01*
X70690740Y-79933800D02*
X71224140Y-79400400D01*
X69469000Y-71874380D02*
X69461380Y-71882000D01*
X69469000Y-70739000D02*
X69469000Y-71874380D01*
X68961000Y-70231000D02*
X69469000Y-70739000D01*
D23*
%TO.N,SCL*%
X67974000Y-62608000D02*
X69726000Y-62608000D01*
X69726000Y-62608000D02*
X70358000Y-61976000D01*
X80899000Y-61976000D02*
X77470000Y-61976000D01*
X77470000Y-61976000D02*
X77724000Y-61976000D01*
X70358000Y-61976000D02*
X77470000Y-61976000D01*
X68739520Y-81306140D02*
X68724521Y-81291141D01*
D22*
X68767460Y-81317460D02*
X68750000Y-81300000D01*
D23*
X68750000Y-82110002D02*
X68750000Y-81300000D01*
X68939999Y-82300001D02*
X68750000Y-82110002D01*
X71741999Y-82300001D02*
X68939999Y-82300001D01*
X72001380Y-82040620D02*
X71741999Y-82300001D01*
X72001380Y-81871820D02*
X72001380Y-82040620D01*
%TO.N,SDA*%
X80867000Y-63008000D02*
X80899000Y-62976000D01*
X67974000Y-63008000D02*
X80867000Y-63008000D01*
X68239520Y-81306140D02*
X68224521Y-81291141D01*
X68597780Y-82651600D02*
X69054980Y-82651600D01*
X68250000Y-82303820D02*
X68597780Y-82651600D01*
X68250000Y-81300000D02*
X68250000Y-82303820D01*
X69054980Y-82651600D02*
X68689220Y-82651600D01*
X72849740Y-82651600D02*
X72969120Y-82532220D01*
X69054980Y-82651600D02*
X72849740Y-82651600D01*
%TO.N,Net-(C4-Pad2)*%
X66824000Y-68304000D02*
X66824000Y-66958000D01*
X65585000Y-69543000D02*
X66824000Y-68304000D01*
X65585000Y-70358000D02*
X65585000Y-69543000D01*
D22*
%TO.N,+3V3*%
X73406000Y-70231000D02*
X75438000Y-70231000D01*
X75438000Y-70231000D02*
X75565000Y-70231000D01*
X74826500Y-59436000D02*
X76962000Y-59436000D01*
D23*
X76962000Y-59436000D02*
X76962000Y-59436000D01*
D22*
X67224000Y-68240000D02*
X67818000Y-68834000D01*
X67224000Y-66958000D02*
X67224000Y-68240000D01*
D23*
X69224521Y-81291141D02*
X69224521Y-79991581D01*
X69724521Y-80491581D02*
X69724521Y-81291141D01*
X69224521Y-79991581D02*
X69724521Y-80491581D01*
D22*
%TO.N,VDDA*%
X73001500Y-59436000D02*
X73001500Y-59586500D01*
X73001500Y-59436000D02*
X72009000Y-59436000D01*
X69677001Y-61767999D02*
X67974000Y-61767999D01*
X72009000Y-59436000D02*
X69677001Y-61767999D01*
X82169000Y-58674000D02*
X82169000Y-66167000D01*
X78867000Y-55372000D02*
X82169000Y-58674000D01*
X81153000Y-67183000D02*
X75692000Y-67183000D01*
X71501000Y-55372000D02*
X78867000Y-55372000D01*
X70104000Y-56769000D02*
X71501000Y-55372000D01*
X70104000Y-57531000D02*
X70104000Y-56769000D01*
X82169000Y-66167000D02*
X81153000Y-67183000D01*
X72009000Y-59436000D02*
X70104000Y-57531000D01*
D23*
%TO.N,VDDD*%
X69850000Y-64389000D02*
X71019500Y-64389000D01*
X68831000Y-65408000D02*
X69850000Y-64389000D01*
X67974000Y-65408000D02*
X68831000Y-65408000D01*
%TO.N,TX4*%
X62774000Y-56771100D02*
X62774000Y-56134000D01*
X60985400Y-58453020D02*
X62783870Y-56654550D01*
X62144462Y-63494920D02*
X60149740Y-63494920D01*
X58488482Y-58455560D02*
X58869580Y-58455560D01*
X58286601Y-58657441D02*
X58488482Y-58455560D01*
X58592912Y-58455560D02*
X58869580Y-58455560D01*
X58869580Y-58455560D02*
X60975530Y-58455560D01*
X58286601Y-58657441D02*
X58374472Y-58569570D01*
X57551221Y-64871599D02*
X58615678Y-64871600D01*
X56512170Y-63832548D02*
X57551221Y-64871599D01*
X56512171Y-60431871D02*
X56512170Y-63832548D01*
X58771839Y-64885521D02*
X59072780Y-64584580D01*
X58286601Y-58657441D02*
X56512171Y-60431871D01*
X60161779Y-63493041D02*
X58999120Y-64655700D01*
X58629599Y-64885521D02*
X58615678Y-64871600D01*
X58771839Y-64885521D02*
X58629599Y-64885521D01*
%TO.N,TX3*%
X63274000Y-56981700D02*
X63274000Y-56134000D01*
X61386120Y-58869580D02*
X63274000Y-56981700D01*
X58717180Y-58869580D02*
X61386120Y-58869580D01*
X57030620Y-60556140D02*
X58717180Y-58869580D01*
X57820560Y-64498220D02*
X57030620Y-63708280D01*
X58564780Y-64498220D02*
X57820560Y-64498220D01*
X57030620Y-63708280D02*
X57030620Y-60556140D01*
X60055000Y-63008000D02*
X58564780Y-64498220D01*
X62074000Y-63008000D02*
X60055000Y-63008000D01*
%TO.N,TX2*%
X62074000Y-62608000D02*
X59566000Y-62608000D01*
X58955940Y-63218060D02*
X59566000Y-62608000D01*
X58618120Y-63218060D02*
X58955940Y-63218060D01*
X66774000Y-58193880D02*
X66774000Y-56134000D01*
X66936620Y-58356500D02*
X66774000Y-58193880D01*
%TO.N,TX1*%
X58787440Y-62208000D02*
X58633360Y-62362080D01*
X62074000Y-62208000D02*
X58787440Y-62208000D01*
X67759580Y-58356500D02*
X67759580Y-57556400D01*
X67274000Y-57070820D02*
X67274000Y-56134000D01*
X67759580Y-57556400D02*
X67274000Y-57070820D01*
%TO.N,RX6*%
X65224000Y-61058000D02*
X65224000Y-60398000D01*
X65224000Y-60398000D02*
X63754000Y-58928000D01*
X63754000Y-56113680D02*
X63754000Y-58887680D01*
%TO.N,RX5*%
X65624000Y-61058000D02*
X65624000Y-60290000D01*
X65624000Y-60290000D02*
X64262000Y-58928000D01*
X64262000Y-56113680D02*
X64262000Y-58895680D01*
%TO.N,RX4*%
X66024000Y-61058000D02*
X66024000Y-60182000D01*
X66024000Y-60182000D02*
X64770000Y-58928000D01*
X64770000Y-56113680D02*
X64770000Y-58903680D01*
%TO.N,RX3*%
X66424000Y-61058000D02*
X66424000Y-60074000D01*
X66424000Y-60074000D02*
X65278000Y-58928000D01*
X65278000Y-56113680D02*
X65278000Y-58903680D01*
%TO.N,RX2*%
X66824000Y-61058000D02*
X66824000Y-59966000D01*
X66824000Y-59966000D02*
X65786000Y-58928000D01*
X65786000Y-56113680D02*
X65786000Y-58895680D01*
%TO.N,RX1*%
X67224000Y-61058000D02*
X67224000Y-59858000D01*
X67224000Y-59858000D02*
X66294000Y-58928000D01*
X66294000Y-56113680D02*
X66294000Y-58887680D01*
%TO.N,A1*%
X62754760Y-81321380D02*
X62724521Y-81291141D01*
X62750000Y-82513740D02*
X62750700Y-82514440D01*
X62750000Y-81300000D02*
X62750000Y-82513740D01*
%TO.N,Net-(J5-Pad4)*%
X62739520Y-77706140D02*
X62724521Y-77691141D01*
%TD*%
D24*
%TO.N,GND*%
X79925875Y-50691175D02*
X79691175Y-50925875D01*
X79506772Y-51201853D01*
X79379754Y-51508504D01*
X79315000Y-51834042D01*
X79315000Y-52165958D01*
X79379754Y-52491496D01*
X79506772Y-52798147D01*
X79691175Y-53074125D01*
X79925875Y-53308825D01*
X80201853Y-53493228D01*
X80508504Y-53620246D01*
X80834042Y-53685000D01*
X81165958Y-53685000D01*
X81491496Y-53620246D01*
X81798147Y-53493228D01*
X82074125Y-53308825D01*
X82308825Y-53074125D01*
X82315000Y-53064883D01*
X82315000Y-57745198D01*
X79430804Y-54861003D01*
X79407001Y-54831999D01*
X79291276Y-54737026D01*
X79159247Y-54666454D01*
X79015986Y-54622997D01*
X78904333Y-54612000D01*
X78904322Y-54612000D01*
X78867000Y-54608324D01*
X78829678Y-54612000D01*
X71538322Y-54612000D01*
X71500999Y-54608324D01*
X71463676Y-54612000D01*
X71463667Y-54612000D01*
X71352014Y-54622997D01*
X71208753Y-54666454D01*
X71076724Y-54737026D01*
X70960999Y-54831999D01*
X70937201Y-54860997D01*
X69592998Y-56205201D01*
X69564000Y-56228999D01*
X69540202Y-56257997D01*
X69540201Y-56257998D01*
X69469026Y-56344724D01*
X69398454Y-56476754D01*
X69383647Y-56525567D01*
X69354997Y-56620014D01*
X69344000Y-56731667D01*
X69344000Y-56731678D01*
X69340324Y-56769000D01*
X69344000Y-56806322D01*
X69344000Y-57493678D01*
X69340324Y-57531000D01*
X69344000Y-57568322D01*
X69344000Y-57568332D01*
X69354997Y-57679985D01*
X69386416Y-57783561D01*
X69398454Y-57823246D01*
X69469026Y-57955276D01*
X69508871Y-58003826D01*
X69563999Y-58071001D01*
X69593003Y-58094804D01*
X70934198Y-59436000D01*
X69362200Y-61007999D01*
X67977072Y-61007999D01*
X67977072Y-60653000D01*
X67964812Y-60528518D01*
X67959000Y-60509358D01*
X67959000Y-59894105D01*
X67962556Y-59858000D01*
X67948365Y-59713915D01*
X67906337Y-59575366D01*
X67838087Y-59447680D01*
X67769253Y-59363806D01*
X67750947Y-59341500D01*
X67856594Y-59341500D01*
X68046894Y-59303647D01*
X68226152Y-59229396D01*
X68387481Y-59121599D01*
X68524679Y-58984401D01*
X68632476Y-58823072D01*
X68706727Y-58643814D01*
X68744580Y-58453514D01*
X68744580Y-58259486D01*
X68706727Y-58069186D01*
X68632476Y-57889928D01*
X68524679Y-57728599D01*
X68494580Y-57698500D01*
X68494580Y-57592505D01*
X68498136Y-57556400D01*
X68483945Y-57412315D01*
X68481415Y-57403974D01*
X68441917Y-57273767D01*
X68373667Y-57146080D01*
X68281818Y-57034162D01*
X68253767Y-57011141D01*
X68060873Y-56818247D01*
X68064472Y-56781700D01*
X68064472Y-55486300D01*
X68052212Y-55361818D01*
X68015902Y-55242120D01*
X67956937Y-55131806D01*
X67877585Y-55035115D01*
X67780894Y-54955763D01*
X67670580Y-54896798D01*
X67550882Y-54860488D01*
X67426400Y-54848228D01*
X67121600Y-54848228D01*
X67024000Y-54857840D01*
X66926400Y-54848228D01*
X66621600Y-54848228D01*
X66524000Y-54857840D01*
X66426400Y-54848228D01*
X66121600Y-54848228D01*
X66024000Y-54857840D01*
X65926400Y-54848228D01*
X65621600Y-54848228D01*
X65524000Y-54857840D01*
X65426400Y-54848228D01*
X65121600Y-54848228D01*
X65024000Y-54857840D01*
X64926400Y-54848228D01*
X64621600Y-54848228D01*
X64524000Y-54857840D01*
X64426400Y-54848228D01*
X64121600Y-54848228D01*
X64024000Y-54857840D01*
X63926400Y-54848228D01*
X63621600Y-54848228D01*
X63524000Y-54857840D01*
X63426400Y-54848228D01*
X63121600Y-54848228D01*
X63024000Y-54857840D01*
X62926400Y-54848228D01*
X62621600Y-54848228D01*
X62497118Y-54860488D01*
X62377420Y-54896798D01*
X62267106Y-54955763D01*
X62170415Y-55035115D01*
X62091063Y-55131806D01*
X62032098Y-55242120D01*
X61995788Y-55361818D01*
X61983528Y-55486300D01*
X61983528Y-56415445D01*
X60678414Y-57720560D01*
X58524587Y-57720560D01*
X58488482Y-57717004D01*
X58452377Y-57720560D01*
X58344397Y-57731195D01*
X58205849Y-57773223D01*
X58078162Y-57841473D01*
X57966244Y-57933322D01*
X57943223Y-57961373D01*
X57792413Y-58112183D01*
X57792407Y-58112188D01*
X56017979Y-59886617D01*
X55989934Y-59909633D01*
X55898085Y-60021551D01*
X55846352Y-60118337D01*
X55829835Y-60149238D01*
X55787806Y-60287786D01*
X55773615Y-60431871D01*
X55777172Y-60467986D01*
X55777170Y-63796443D01*
X55773614Y-63832548D01*
X55781636Y-63914000D01*
X55787805Y-63976632D01*
X55829833Y-64115180D01*
X55898083Y-64242867D01*
X55989932Y-64354785D01*
X56017977Y-64377801D01*
X57005971Y-65365796D01*
X57028983Y-65393836D01*
X57057022Y-65416847D01*
X57057027Y-65416852D01*
X57140901Y-65485685D01*
X57268587Y-65553935D01*
X57407135Y-65595964D01*
X57551220Y-65610155D01*
X57587334Y-65606598D01*
X58474680Y-65606600D01*
X58485514Y-65609886D01*
X58593494Y-65620521D01*
X58593503Y-65620521D01*
X58629598Y-65624076D01*
X58665693Y-65620521D01*
X58735734Y-65620521D01*
X58771839Y-65624077D01*
X58807944Y-65620521D01*
X58915924Y-65609886D01*
X59054472Y-65567858D01*
X59182159Y-65499608D01*
X59294077Y-65407759D01*
X59317098Y-65379708D01*
X59618033Y-65078773D01*
X59629656Y-65064610D01*
X60464347Y-64229920D01*
X61030928Y-64229920D01*
X61030928Y-64323000D01*
X61039299Y-64408000D01*
X61030928Y-64493000D01*
X61030928Y-64723000D01*
X61039299Y-64808000D01*
X61030928Y-64893000D01*
X61030928Y-65123000D01*
X61039299Y-65208000D01*
X61030928Y-65293000D01*
X61030928Y-65523000D01*
X61039299Y-65608000D01*
X61030928Y-65693000D01*
X61030928Y-65923000D01*
X61039299Y-66008000D01*
X61030928Y-66093000D01*
X61030928Y-66323000D01*
X61043188Y-66447482D01*
X61079498Y-66567180D01*
X61138463Y-66677494D01*
X61217815Y-66774185D01*
X61314506Y-66853537D01*
X61424820Y-66912502D01*
X61544518Y-66948812D01*
X61669000Y-66961072D01*
X62070928Y-66961072D01*
X62070928Y-67363000D01*
X62083188Y-67487482D01*
X62119498Y-67607180D01*
X62178463Y-67717494D01*
X62257815Y-67814185D01*
X62354506Y-67893537D01*
X62464820Y-67952502D01*
X62584518Y-67988812D01*
X62709000Y-68001072D01*
X62939000Y-68001072D01*
X63024000Y-67992701D01*
X63109000Y-68001072D01*
X63339000Y-68001072D01*
X63424000Y-67992701D01*
X63509000Y-68001072D01*
X63739000Y-68001072D01*
X63824000Y-67992701D01*
X63909000Y-68001072D01*
X64139000Y-68001072D01*
X64224000Y-67992701D01*
X64309000Y-68001072D01*
X64539000Y-68001072D01*
X64624000Y-67992701D01*
X64709000Y-68001072D01*
X64939000Y-68001072D01*
X65024000Y-67992701D01*
X65109000Y-68001072D01*
X65339000Y-68001072D01*
X65424000Y-67992701D01*
X65509000Y-68001072D01*
X65739000Y-68001072D01*
X65824000Y-67992701D01*
X65909000Y-68001072D01*
X66087481Y-68001072D01*
X65090808Y-68997746D01*
X65062763Y-69020762D01*
X64970914Y-69132680D01*
X64952838Y-69166498D01*
X64902664Y-69260367D01*
X64874975Y-69351642D01*
X64798558Y-69392488D01*
X64665877Y-69501377D01*
X64556988Y-69634058D01*
X64476077Y-69785433D01*
X64426252Y-69949684D01*
X64409428Y-70120500D01*
X64409428Y-70595500D01*
X64426252Y-70766316D01*
X64476077Y-70930567D01*
X64556988Y-71081942D01*
X64665877Y-71214623D01*
X64798558Y-71323512D01*
X64949933Y-71404423D01*
X65114184Y-71454248D01*
X65285000Y-71471072D01*
X65885000Y-71471072D01*
X66055816Y-71454248D01*
X66220067Y-71404423D01*
X66370106Y-71324226D01*
X66418006Y-71363537D01*
X66528320Y-71422502D01*
X66648018Y-71458812D01*
X66772500Y-71471072D01*
X67024250Y-71468000D01*
X67183000Y-71309250D01*
X67183000Y-70485000D01*
X67437000Y-70485000D01*
X67437000Y-71309250D01*
X67595750Y-71468000D01*
X67847500Y-71471072D01*
X67971982Y-71458812D01*
X68091680Y-71422502D01*
X68201994Y-71363537D01*
X68298685Y-71284185D01*
X68378037Y-71187494D01*
X68437002Y-71077180D01*
X68473312Y-70957482D01*
X68485572Y-70833000D01*
X68483511Y-70706000D01*
X70505428Y-70706000D01*
X70517688Y-70830482D01*
X70553998Y-70950180D01*
X70612963Y-71060494D01*
X70692315Y-71157185D01*
X70789006Y-71236537D01*
X70899320Y-71295502D01*
X71019018Y-71331812D01*
X71143500Y-71344072D01*
X71395250Y-71341000D01*
X71554000Y-71182250D01*
X71554000Y-70358000D01*
X70667250Y-70358000D01*
X70508500Y-70516750D01*
X70505428Y-70706000D01*
X68483511Y-70706000D01*
X68482500Y-70643750D01*
X68323750Y-70485000D01*
X67437000Y-70485000D01*
X67183000Y-70485000D01*
X67163000Y-70485000D01*
X67163000Y-70231000D01*
X67183000Y-70231000D01*
X67183000Y-70211000D01*
X67437000Y-70211000D01*
X67437000Y-70231000D01*
X68323750Y-70231000D01*
X68482500Y-70072250D01*
X68485572Y-69883000D01*
X68473312Y-69758518D01*
X68472549Y-69756000D01*
X70505428Y-69756000D01*
X70508500Y-69945250D01*
X70667250Y-70104000D01*
X71554000Y-70104000D01*
X71554000Y-69279750D01*
X71808000Y-69279750D01*
X71808000Y-70104000D01*
X71828000Y-70104000D01*
X71828000Y-70358000D01*
X71808000Y-70358000D01*
X71808000Y-71182250D01*
X71966750Y-71341000D01*
X72218500Y-71344072D01*
X72342982Y-71331812D01*
X72462680Y-71295502D01*
X72572994Y-71236537D01*
X72620894Y-71197226D01*
X72770933Y-71277423D01*
X72935184Y-71327248D01*
X73106000Y-71344072D01*
X73706000Y-71344072D01*
X73876816Y-71327248D01*
X74041067Y-71277423D01*
X74192442Y-71196512D01*
X74325123Y-71087623D01*
X74404420Y-70991000D01*
X74932000Y-70991000D01*
X74937099Y-70996099D01*
X75098428Y-71103896D01*
X75277686Y-71178147D01*
X75467986Y-71216000D01*
X75662014Y-71216000D01*
X75852314Y-71178147D01*
X76031572Y-71103896D01*
X76192901Y-70996099D01*
X76330099Y-70858901D01*
X76437896Y-70697572D01*
X76512147Y-70518314D01*
X76550000Y-70328014D01*
X76550000Y-70133986D01*
X76512147Y-69943686D01*
X76437896Y-69764428D01*
X76330099Y-69603099D01*
X76192901Y-69465901D01*
X76031572Y-69358104D01*
X75852314Y-69283853D01*
X75662014Y-69246000D01*
X75467986Y-69246000D01*
X75277686Y-69283853D01*
X75098428Y-69358104D01*
X74937099Y-69465901D01*
X74932000Y-69471000D01*
X74404420Y-69471000D01*
X74325123Y-69374377D01*
X74192442Y-69265488D01*
X74041067Y-69184577D01*
X73876816Y-69134752D01*
X73706000Y-69117928D01*
X73106000Y-69117928D01*
X72935184Y-69134752D01*
X72770933Y-69184577D01*
X72620894Y-69264774D01*
X72572994Y-69225463D01*
X72462680Y-69166498D01*
X72342982Y-69130188D01*
X72218500Y-69117928D01*
X71966750Y-69121000D01*
X71808000Y-69279750D01*
X71554000Y-69279750D01*
X71395250Y-69121000D01*
X71143500Y-69117928D01*
X71019018Y-69130188D01*
X70899320Y-69166498D01*
X70789006Y-69225463D01*
X70692315Y-69304815D01*
X70612963Y-69401506D01*
X70553998Y-69511820D01*
X70517688Y-69631518D01*
X70505428Y-69756000D01*
X68472549Y-69756000D01*
X68437002Y-69638820D01*
X68423700Y-69613934D01*
X68445901Y-69599099D01*
X68583099Y-69461901D01*
X68690896Y-69300572D01*
X68765147Y-69121314D01*
X68803000Y-68931014D01*
X68803000Y-68736986D01*
X68765147Y-68546686D01*
X68690896Y-68367428D01*
X68583099Y-68206099D01*
X68445901Y-68068901D01*
X68284572Y-67961104D01*
X68105314Y-67886853D01*
X67984000Y-67862722D01*
X67984000Y-67658000D01*
X72791428Y-67658000D01*
X72803688Y-67782482D01*
X72839998Y-67902180D01*
X72898963Y-68012494D01*
X72978315Y-68109185D01*
X73075006Y-68188537D01*
X73185320Y-68247502D01*
X73305018Y-68283812D01*
X73429500Y-68296072D01*
X73681250Y-68293000D01*
X73840000Y-68134250D01*
X73840000Y-67310000D01*
X72953250Y-67310000D01*
X72794500Y-67468750D01*
X72791428Y-67658000D01*
X67984000Y-67658000D01*
X67984000Y-66958000D01*
X68101002Y-66958000D01*
X68101002Y-66799252D01*
X68259750Y-66958000D01*
X68359690Y-66960780D01*
X68484486Y-66952292D01*
X68605228Y-66919621D01*
X68717276Y-66864023D01*
X68816324Y-66787633D01*
X68885814Y-66708000D01*
X72791428Y-66708000D01*
X72794500Y-66897250D01*
X72953250Y-67056000D01*
X73840000Y-67056000D01*
X73840000Y-66231750D01*
X73681250Y-66073000D01*
X73429500Y-66069928D01*
X73305018Y-66082188D01*
X73185320Y-66118498D01*
X73075006Y-66177463D01*
X72978315Y-66256815D01*
X72898963Y-66353506D01*
X72839998Y-66463820D01*
X72803688Y-66583518D01*
X72791428Y-66708000D01*
X68885814Y-66708000D01*
X68898566Y-66693387D01*
X68960842Y-66584908D01*
X69000758Y-66466364D01*
X69014000Y-66366750D01*
X68913910Y-66266660D01*
X68960842Y-66184908D01*
X68978927Y-66131200D01*
X69113633Y-66090337D01*
X69241320Y-66022087D01*
X69353238Y-65930238D01*
X69376258Y-65902188D01*
X70069927Y-65208520D01*
X70100377Y-65245623D01*
X70233058Y-65354512D01*
X70384433Y-65435423D01*
X70548684Y-65485248D01*
X70719500Y-65502072D01*
X71319500Y-65502072D01*
X71490316Y-65485248D01*
X71654567Y-65435423D01*
X71804606Y-65355226D01*
X71852506Y-65394537D01*
X71962820Y-65453502D01*
X72082518Y-65489812D01*
X72207000Y-65502072D01*
X72458750Y-65499000D01*
X72617500Y-65340250D01*
X72617500Y-64516000D01*
X72871500Y-64516000D01*
X72871500Y-65340250D01*
X73030250Y-65499000D01*
X73282000Y-65502072D01*
X73406482Y-65489812D01*
X73526180Y-65453502D01*
X73636494Y-65394537D01*
X73733185Y-65315185D01*
X73812537Y-65218494D01*
X73871502Y-65108180D01*
X73907812Y-64988482D01*
X73920072Y-64864000D01*
X73917000Y-64674750D01*
X73758250Y-64516000D01*
X72871500Y-64516000D01*
X72617500Y-64516000D01*
X72597500Y-64516000D01*
X72597500Y-64262000D01*
X72617500Y-64262000D01*
X72617500Y-64242000D01*
X72871500Y-64242000D01*
X72871500Y-64262000D01*
X73758250Y-64262000D01*
X73917000Y-64103250D01*
X73920072Y-63914000D01*
X73907812Y-63789518D01*
X73893701Y-63743000D01*
X80166933Y-63743000D01*
X80223289Y-63799356D01*
X80396902Y-63915360D01*
X80589809Y-63995265D01*
X80794599Y-64036000D01*
X81003401Y-64036000D01*
X81208191Y-63995265D01*
X81401098Y-63915360D01*
X81409001Y-63910080D01*
X81409001Y-65852197D01*
X80838199Y-66423000D01*
X76690420Y-66423000D01*
X76611123Y-66326377D01*
X76478442Y-66217488D01*
X76327067Y-66136577D01*
X76162816Y-66086752D01*
X75992000Y-66069928D01*
X75392000Y-66069928D01*
X75221184Y-66086752D01*
X75056933Y-66136577D01*
X74906894Y-66216774D01*
X74858994Y-66177463D01*
X74748680Y-66118498D01*
X74628982Y-66082188D01*
X74504500Y-66069928D01*
X74252750Y-66073000D01*
X74094000Y-66231750D01*
X74094000Y-67056000D01*
X74114000Y-67056000D01*
X74114000Y-67310000D01*
X74094000Y-67310000D01*
X74094000Y-68134250D01*
X74252750Y-68293000D01*
X74504500Y-68296072D01*
X74628982Y-68283812D01*
X74748680Y-68247502D01*
X74858994Y-68188537D01*
X74906894Y-68149226D01*
X75056933Y-68229423D01*
X75221184Y-68279248D01*
X75392000Y-68296072D01*
X75992000Y-68296072D01*
X76162816Y-68279248D01*
X76327067Y-68229423D01*
X76478442Y-68148512D01*
X76611123Y-68039623D01*
X76690420Y-67943000D01*
X81115678Y-67943000D01*
X81153000Y-67946676D01*
X81190322Y-67943000D01*
X81190333Y-67943000D01*
X81301986Y-67932003D01*
X81445247Y-67888546D01*
X81577276Y-67817974D01*
X81693001Y-67723001D01*
X81716804Y-67693998D01*
X82315001Y-67095801D01*
X82315001Y-79935118D01*
X82308825Y-79925875D01*
X82074125Y-79691175D01*
X81798147Y-79506772D01*
X81491496Y-79379754D01*
X81165958Y-79315000D01*
X80834042Y-79315000D01*
X80508504Y-79379754D01*
X80201853Y-79506772D01*
X79925875Y-79691175D01*
X79691175Y-79925875D01*
X79506772Y-80201853D01*
X79379754Y-80508504D01*
X79315000Y-80834042D01*
X79315000Y-81165958D01*
X79379754Y-81491496D01*
X79506772Y-81798147D01*
X79691175Y-82074125D01*
X79925875Y-82308825D01*
X79935117Y-82315000D01*
X73930210Y-82315000D01*
X73916267Y-82244906D01*
X73842016Y-82065648D01*
X73734219Y-81904319D01*
X73597021Y-81767121D01*
X73435692Y-81659324D01*
X73256434Y-81585073D01*
X73066134Y-81547220D01*
X72933083Y-81547220D01*
X72874276Y-81405248D01*
X72766479Y-81243919D01*
X72629281Y-81106721D01*
X72574520Y-81070131D01*
X72574520Y-81038072D01*
X72900000Y-81038072D01*
X73024482Y-81025812D01*
X73144180Y-80989502D01*
X73254494Y-80930537D01*
X73351185Y-80851185D01*
X73430537Y-80754494D01*
X73489502Y-80644180D01*
X73525812Y-80524482D01*
X73538072Y-80400000D01*
X73538072Y-78600000D01*
X73525812Y-78475518D01*
X73489502Y-78355820D01*
X73430537Y-78245506D01*
X73351185Y-78148815D01*
X73254494Y-78069463D01*
X73144180Y-78010498D01*
X73024482Y-77974188D01*
X72900000Y-77961928D01*
X72585000Y-77961928D01*
X72585000Y-77922684D01*
X72554833Y-77771024D01*
X72495658Y-77628163D01*
X72409749Y-77499592D01*
X72300408Y-77390251D01*
X72171837Y-77304342D01*
X72028976Y-77245167D01*
X71877316Y-77215000D01*
X71722684Y-77215000D01*
X71571024Y-77245167D01*
X71538072Y-77258816D01*
X71538072Y-76900000D01*
X71525812Y-76775518D01*
X71489502Y-76655820D01*
X71430537Y-76545506D01*
X71351185Y-76448815D01*
X71254494Y-76369463D01*
X71144180Y-76310498D01*
X71024482Y-76274188D01*
X70900000Y-76261928D01*
X70600000Y-76261928D01*
X70500000Y-76271777D01*
X70400000Y-76261928D01*
X70100000Y-76261928D01*
X70000000Y-76271777D01*
X69900000Y-76261928D01*
X69600000Y-76261928D01*
X69500000Y-76271777D01*
X69400000Y-76261928D01*
X69100000Y-76261928D01*
X69000000Y-76271777D01*
X68900000Y-76261928D01*
X68600000Y-76261928D01*
X68500000Y-76271777D01*
X68400000Y-76261928D01*
X68100000Y-76261928D01*
X68000000Y-76271777D01*
X67900000Y-76261928D01*
X67600000Y-76261928D01*
X67500000Y-76271777D01*
X67400000Y-76261928D01*
X67100000Y-76261928D01*
X67000000Y-76271777D01*
X66900000Y-76261928D01*
X66600000Y-76261928D01*
X66500000Y-76271777D01*
X66400000Y-76261928D01*
X66100000Y-76261928D01*
X66000000Y-76271777D01*
X65900000Y-76261928D01*
X65600000Y-76261928D01*
X65500000Y-76271777D01*
X65400000Y-76261928D01*
X65100000Y-76261928D01*
X65000000Y-76271777D01*
X64900000Y-76261928D01*
X64600000Y-76261928D01*
X64500000Y-76271777D01*
X64400000Y-76261928D01*
X64100000Y-76261928D01*
X64000000Y-76271777D01*
X63900000Y-76261928D01*
X63600000Y-76261928D01*
X63500000Y-76271777D01*
X63400000Y-76261928D01*
X63100000Y-76261928D01*
X63000000Y-76271777D01*
X62900000Y-76261928D01*
X62600000Y-76261928D01*
X62500000Y-76271777D01*
X62400000Y-76261928D01*
X62100000Y-76261928D01*
X61975518Y-76274188D01*
X61855820Y-76310498D01*
X61745506Y-76369463D01*
X61648815Y-76448815D01*
X61569463Y-76545506D01*
X61510498Y-76655820D01*
X61474188Y-76775518D01*
X61461928Y-76900000D01*
X61461928Y-77258816D01*
X61428976Y-77245167D01*
X61277316Y-77215000D01*
X61122684Y-77215000D01*
X60971024Y-77245167D01*
X60828163Y-77304342D01*
X60699592Y-77390251D01*
X60590251Y-77499592D01*
X60504342Y-77628163D01*
X60445167Y-77771024D01*
X60415000Y-77922684D01*
X60415000Y-77961928D01*
X60100000Y-77961928D01*
X59975518Y-77974188D01*
X59855820Y-78010498D01*
X59745506Y-78069463D01*
X59648815Y-78148815D01*
X59569463Y-78245506D01*
X59510498Y-78355820D01*
X59474188Y-78475518D01*
X59461928Y-78600000D01*
X59461928Y-80400000D01*
X59474188Y-80524482D01*
X59510498Y-80644180D01*
X59569463Y-80754494D01*
X59648815Y-80851185D01*
X59745506Y-80930537D01*
X59855820Y-80989502D01*
X59975518Y-81025812D01*
X60100000Y-81038072D01*
X60404520Y-81038072D01*
X60404520Y-81078456D01*
X60434687Y-81230116D01*
X60493862Y-81372977D01*
X60579771Y-81501548D01*
X60689112Y-81610889D01*
X60817683Y-81696798D01*
X60960544Y-81755973D01*
X61112204Y-81786140D01*
X61266836Y-81786140D01*
X61418496Y-81755973D01*
X61461928Y-81737983D01*
X61461928Y-82100000D01*
X61474188Y-82224482D01*
X61501646Y-82315000D01*
X53064883Y-82315000D01*
X53074125Y-82308825D01*
X53308825Y-82074125D01*
X53493228Y-81798147D01*
X53620246Y-81491496D01*
X53685000Y-81165958D01*
X53685000Y-80834042D01*
X53620246Y-80508504D01*
X53493228Y-80201853D01*
X53308825Y-79925875D01*
X53074125Y-79691175D01*
X52798147Y-79506772D01*
X52491496Y-79379754D01*
X52165958Y-79315000D01*
X51834042Y-79315000D01*
X51508504Y-79379754D01*
X51201853Y-79506772D01*
X50925875Y-79691175D01*
X50691175Y-79925875D01*
X50685000Y-79935117D01*
X50685000Y-77146600D01*
X50936928Y-77146600D01*
X50936928Y-77996600D01*
X50949188Y-78121082D01*
X50985498Y-78240780D01*
X51044463Y-78351094D01*
X51123815Y-78447785D01*
X51220506Y-78527137D01*
X51330820Y-78586102D01*
X51450518Y-78622412D01*
X51575000Y-78634672D01*
X52425000Y-78634672D01*
X52549482Y-78622412D01*
X52669180Y-78586102D01*
X52779494Y-78527137D01*
X52876185Y-78447785D01*
X52955537Y-78351094D01*
X53014502Y-78240780D01*
X53050812Y-78121082D01*
X53063072Y-77996600D01*
X53063072Y-77146600D01*
X53050812Y-77022118D01*
X53014502Y-76902420D01*
X53012138Y-76897997D01*
X53019265Y-76880791D01*
X53060000Y-76676001D01*
X53060000Y-76467199D01*
X53019265Y-76262409D01*
X52939360Y-76069502D01*
X52823356Y-75895889D01*
X52675711Y-75748244D01*
X52502098Y-75632240D01*
X52309191Y-75552335D01*
X52104401Y-75511600D01*
X51895599Y-75511600D01*
X51690809Y-75552335D01*
X51497902Y-75632240D01*
X51324289Y-75748244D01*
X51176644Y-75895889D01*
X51060640Y-76069502D01*
X50980735Y-76262409D01*
X50940000Y-76467199D01*
X50940000Y-76676001D01*
X50980735Y-76880791D01*
X50987862Y-76897997D01*
X50985498Y-76902420D01*
X50949188Y-77022118D01*
X50936928Y-77146600D01*
X50685000Y-77146600D01*
X50685000Y-73577000D01*
X50936928Y-73577000D01*
X50949188Y-73701482D01*
X50985498Y-73821180D01*
X51044463Y-73931494D01*
X51123815Y-74028185D01*
X51220506Y-74107537D01*
X51330820Y-74166502D01*
X51450518Y-74202812D01*
X51575000Y-74215072D01*
X51714250Y-74212000D01*
X51873000Y-74053250D01*
X51873000Y-73279000D01*
X52127000Y-73279000D01*
X52127000Y-74053250D01*
X52285750Y-74212000D01*
X52425000Y-74215072D01*
X52549482Y-74202812D01*
X52669180Y-74166502D01*
X52779494Y-74107537D01*
X52876185Y-74028185D01*
X52955537Y-73931494D01*
X53014502Y-73821180D01*
X53050812Y-73701482D01*
X53063072Y-73577000D01*
X53060000Y-73437750D01*
X52901250Y-73279000D01*
X52127000Y-73279000D01*
X51873000Y-73279000D01*
X51098750Y-73279000D01*
X50940000Y-73437750D01*
X50936928Y-73577000D01*
X50685000Y-73577000D01*
X50685000Y-72727000D01*
X50936928Y-72727000D01*
X50940000Y-72866250D01*
X51098750Y-73025000D01*
X51398587Y-73025000D01*
X51497902Y-73091360D01*
X51690809Y-73171265D01*
X51895599Y-73212000D01*
X52104401Y-73212000D01*
X52309191Y-73171265D01*
X52502098Y-73091360D01*
X52601413Y-73025000D01*
X52901250Y-73025000D01*
X53060000Y-72866250D01*
X53063072Y-72727000D01*
X53050812Y-72602518D01*
X53014502Y-72482820D01*
X53012138Y-72478397D01*
X53019265Y-72461191D01*
X53060000Y-72256401D01*
X53060000Y-72047599D01*
X53019265Y-71842809D01*
X52939360Y-71649902D01*
X52823356Y-71476289D01*
X52675711Y-71328644D01*
X52502098Y-71212640D01*
X52309191Y-71132735D01*
X52104401Y-71092000D01*
X51895599Y-71092000D01*
X51690809Y-71132735D01*
X51497902Y-71212640D01*
X51324289Y-71328644D01*
X51176644Y-71476289D01*
X51060640Y-71649902D01*
X50980735Y-71842809D01*
X50940000Y-72047599D01*
X50940000Y-72256401D01*
X50980735Y-72461191D01*
X50987862Y-72478397D01*
X50985498Y-72482820D01*
X50949188Y-72602518D01*
X50936928Y-72727000D01*
X50685000Y-72727000D01*
X50685000Y-61685000D01*
X51966353Y-61685000D01*
X52000000Y-61688314D01*
X52134283Y-61675088D01*
X52263406Y-61635919D01*
X52382407Y-61572312D01*
X52486711Y-61486711D01*
X52572312Y-61382407D01*
X52635919Y-61263406D01*
X52675088Y-61134283D01*
X52685000Y-61033647D01*
X52688314Y-61000000D01*
X52685000Y-60966353D01*
X52685000Y-55033647D01*
X52688314Y-55000000D01*
X52675088Y-54865717D01*
X52635919Y-54736594D01*
X52572312Y-54617593D01*
X52486711Y-54513289D01*
X52382407Y-54427688D01*
X52263406Y-54364081D01*
X52134283Y-54324912D01*
X52033647Y-54315000D01*
X52000000Y-54311686D01*
X51966353Y-54315000D01*
X50685000Y-54315000D01*
X50685000Y-53064883D01*
X50691175Y-53074125D01*
X50925875Y-53308825D01*
X51201853Y-53493228D01*
X51508504Y-53620246D01*
X51834042Y-53685000D01*
X52165958Y-53685000D01*
X52491496Y-53620246D01*
X52798147Y-53493228D01*
X53074125Y-53308825D01*
X53308825Y-53074125D01*
X53493228Y-52798147D01*
X53620246Y-52491496D01*
X53685000Y-52165958D01*
X53685000Y-51834042D01*
X53674072Y-51779100D01*
X59334228Y-51779100D01*
X59334228Y-53988900D01*
X59346488Y-54113382D01*
X59382798Y-54233080D01*
X59441763Y-54343394D01*
X59521115Y-54440085D01*
X59617806Y-54519437D01*
X59728120Y-54578402D01*
X59847818Y-54614712D01*
X59972300Y-54626972D01*
X61775700Y-54626972D01*
X61900182Y-54614712D01*
X62019880Y-54578402D01*
X62130194Y-54519437D01*
X62226885Y-54440085D01*
X62306237Y-54343394D01*
X62365202Y-54233080D01*
X62401512Y-54113382D01*
X62413772Y-53988900D01*
X62413772Y-51779100D01*
X67634228Y-51779100D01*
X67634228Y-53988900D01*
X67646488Y-54113382D01*
X67682798Y-54233080D01*
X67741763Y-54343394D01*
X67821115Y-54440085D01*
X67917806Y-54519437D01*
X68028120Y-54578402D01*
X68147818Y-54614712D01*
X68272300Y-54626972D01*
X70075700Y-54626972D01*
X70200182Y-54614712D01*
X70319880Y-54578402D01*
X70430194Y-54519437D01*
X70526885Y-54440085D01*
X70606237Y-54343394D01*
X70665202Y-54233080D01*
X70701512Y-54113382D01*
X70713772Y-53988900D01*
X70713772Y-51779100D01*
X70701512Y-51654618D01*
X70665202Y-51534920D01*
X70606237Y-51424606D01*
X70526885Y-51327915D01*
X70430194Y-51248563D01*
X70319880Y-51189598D01*
X70200182Y-51153288D01*
X70075700Y-51141028D01*
X68272300Y-51141028D01*
X68147818Y-51153288D01*
X68028120Y-51189598D01*
X67917806Y-51248563D01*
X67821115Y-51327915D01*
X67741763Y-51424606D01*
X67682798Y-51534920D01*
X67646488Y-51654618D01*
X67634228Y-51779100D01*
X62413772Y-51779100D01*
X62401512Y-51654618D01*
X62365202Y-51534920D01*
X62306237Y-51424606D01*
X62226885Y-51327915D01*
X62130194Y-51248563D01*
X62019880Y-51189598D01*
X61900182Y-51153288D01*
X61775700Y-51141028D01*
X59972300Y-51141028D01*
X59847818Y-51153288D01*
X59728120Y-51189598D01*
X59617806Y-51248563D01*
X59521115Y-51327915D01*
X59441763Y-51424606D01*
X59382798Y-51534920D01*
X59346488Y-51654618D01*
X59334228Y-51779100D01*
X53674072Y-51779100D01*
X53620246Y-51508504D01*
X53493228Y-51201853D01*
X53308825Y-50925875D01*
X53074125Y-50691175D01*
X53064883Y-50685000D01*
X79935117Y-50685000D01*
X79925875Y-50691175D01*
%TA.AperFunction,Conductor*%
D25*
G36*
X79925875Y-50691175D02*
G01*
X79691175Y-50925875D01*
X79506772Y-51201853D01*
X79379754Y-51508504D01*
X79315000Y-51834042D01*
X79315000Y-52165958D01*
X79379754Y-52491496D01*
X79506772Y-52798147D01*
X79691175Y-53074125D01*
X79925875Y-53308825D01*
X80201853Y-53493228D01*
X80508504Y-53620246D01*
X80834042Y-53685000D01*
X81165958Y-53685000D01*
X81491496Y-53620246D01*
X81798147Y-53493228D01*
X82074125Y-53308825D01*
X82308825Y-53074125D01*
X82315000Y-53064883D01*
X82315000Y-57745198D01*
X79430804Y-54861003D01*
X79407001Y-54831999D01*
X79291276Y-54737026D01*
X79159247Y-54666454D01*
X79015986Y-54622997D01*
X78904333Y-54612000D01*
X78904322Y-54612000D01*
X78867000Y-54608324D01*
X78829678Y-54612000D01*
X71538322Y-54612000D01*
X71500999Y-54608324D01*
X71463676Y-54612000D01*
X71463667Y-54612000D01*
X71352014Y-54622997D01*
X71208753Y-54666454D01*
X71076724Y-54737026D01*
X70960999Y-54831999D01*
X70937201Y-54860997D01*
X69592998Y-56205201D01*
X69564000Y-56228999D01*
X69540202Y-56257997D01*
X69540201Y-56257998D01*
X69469026Y-56344724D01*
X69398454Y-56476754D01*
X69383647Y-56525567D01*
X69354997Y-56620014D01*
X69344000Y-56731667D01*
X69344000Y-56731678D01*
X69340324Y-56769000D01*
X69344000Y-56806322D01*
X69344000Y-57493678D01*
X69340324Y-57531000D01*
X69344000Y-57568322D01*
X69344000Y-57568332D01*
X69354997Y-57679985D01*
X69386416Y-57783561D01*
X69398454Y-57823246D01*
X69469026Y-57955276D01*
X69508871Y-58003826D01*
X69563999Y-58071001D01*
X69593003Y-58094804D01*
X70934198Y-59436000D01*
X69362200Y-61007999D01*
X67977072Y-61007999D01*
X67977072Y-60653000D01*
X67964812Y-60528518D01*
X67959000Y-60509358D01*
X67959000Y-59894105D01*
X67962556Y-59858000D01*
X67948365Y-59713915D01*
X67906337Y-59575366D01*
X67838087Y-59447680D01*
X67769253Y-59363806D01*
X67750947Y-59341500D01*
X67856594Y-59341500D01*
X68046894Y-59303647D01*
X68226152Y-59229396D01*
X68387481Y-59121599D01*
X68524679Y-58984401D01*
X68632476Y-58823072D01*
X68706727Y-58643814D01*
X68744580Y-58453514D01*
X68744580Y-58259486D01*
X68706727Y-58069186D01*
X68632476Y-57889928D01*
X68524679Y-57728599D01*
X68494580Y-57698500D01*
X68494580Y-57592505D01*
X68498136Y-57556400D01*
X68483945Y-57412315D01*
X68481415Y-57403974D01*
X68441917Y-57273767D01*
X68373667Y-57146080D01*
X68281818Y-57034162D01*
X68253767Y-57011141D01*
X68060873Y-56818247D01*
X68064472Y-56781700D01*
X68064472Y-55486300D01*
X68052212Y-55361818D01*
X68015902Y-55242120D01*
X67956937Y-55131806D01*
X67877585Y-55035115D01*
X67780894Y-54955763D01*
X67670580Y-54896798D01*
X67550882Y-54860488D01*
X67426400Y-54848228D01*
X67121600Y-54848228D01*
X67024000Y-54857840D01*
X66926400Y-54848228D01*
X66621600Y-54848228D01*
X66524000Y-54857840D01*
X66426400Y-54848228D01*
X66121600Y-54848228D01*
X66024000Y-54857840D01*
X65926400Y-54848228D01*
X65621600Y-54848228D01*
X65524000Y-54857840D01*
X65426400Y-54848228D01*
X65121600Y-54848228D01*
X65024000Y-54857840D01*
X64926400Y-54848228D01*
X64621600Y-54848228D01*
X64524000Y-54857840D01*
X64426400Y-54848228D01*
X64121600Y-54848228D01*
X64024000Y-54857840D01*
X63926400Y-54848228D01*
X63621600Y-54848228D01*
X63524000Y-54857840D01*
X63426400Y-54848228D01*
X63121600Y-54848228D01*
X63024000Y-54857840D01*
X62926400Y-54848228D01*
X62621600Y-54848228D01*
X62497118Y-54860488D01*
X62377420Y-54896798D01*
X62267106Y-54955763D01*
X62170415Y-55035115D01*
X62091063Y-55131806D01*
X62032098Y-55242120D01*
X61995788Y-55361818D01*
X61983528Y-55486300D01*
X61983528Y-56415445D01*
X60678414Y-57720560D01*
X58524587Y-57720560D01*
X58488482Y-57717004D01*
X58452377Y-57720560D01*
X58344397Y-57731195D01*
X58205849Y-57773223D01*
X58078162Y-57841473D01*
X57966244Y-57933322D01*
X57943223Y-57961373D01*
X57792413Y-58112183D01*
X57792407Y-58112188D01*
X56017979Y-59886617D01*
X55989934Y-59909633D01*
X55898085Y-60021551D01*
X55846352Y-60118337D01*
X55829835Y-60149238D01*
X55787806Y-60287786D01*
X55773615Y-60431871D01*
X55777172Y-60467986D01*
X55777170Y-63796443D01*
X55773614Y-63832548D01*
X55781636Y-63914000D01*
X55787805Y-63976632D01*
X55829833Y-64115180D01*
X55898083Y-64242867D01*
X55989932Y-64354785D01*
X56017977Y-64377801D01*
X57005971Y-65365796D01*
X57028983Y-65393836D01*
X57057022Y-65416847D01*
X57057027Y-65416852D01*
X57140901Y-65485685D01*
X57268587Y-65553935D01*
X57407135Y-65595964D01*
X57551220Y-65610155D01*
X57587334Y-65606598D01*
X58474680Y-65606600D01*
X58485514Y-65609886D01*
X58593494Y-65620521D01*
X58593503Y-65620521D01*
X58629598Y-65624076D01*
X58665693Y-65620521D01*
X58735734Y-65620521D01*
X58771839Y-65624077D01*
X58807944Y-65620521D01*
X58915924Y-65609886D01*
X59054472Y-65567858D01*
X59182159Y-65499608D01*
X59294077Y-65407759D01*
X59317098Y-65379708D01*
X59618033Y-65078773D01*
X59629656Y-65064610D01*
X60464347Y-64229920D01*
X61030928Y-64229920D01*
X61030928Y-64323000D01*
X61039299Y-64408000D01*
X61030928Y-64493000D01*
X61030928Y-64723000D01*
X61039299Y-64808000D01*
X61030928Y-64893000D01*
X61030928Y-65123000D01*
X61039299Y-65208000D01*
X61030928Y-65293000D01*
X61030928Y-65523000D01*
X61039299Y-65608000D01*
X61030928Y-65693000D01*
X61030928Y-65923000D01*
X61039299Y-66008000D01*
X61030928Y-66093000D01*
X61030928Y-66323000D01*
X61043188Y-66447482D01*
X61079498Y-66567180D01*
X61138463Y-66677494D01*
X61217815Y-66774185D01*
X61314506Y-66853537D01*
X61424820Y-66912502D01*
X61544518Y-66948812D01*
X61669000Y-66961072D01*
X62070928Y-66961072D01*
X62070928Y-67363000D01*
X62083188Y-67487482D01*
X62119498Y-67607180D01*
X62178463Y-67717494D01*
X62257815Y-67814185D01*
X62354506Y-67893537D01*
X62464820Y-67952502D01*
X62584518Y-67988812D01*
X62709000Y-68001072D01*
X62939000Y-68001072D01*
X63024000Y-67992701D01*
X63109000Y-68001072D01*
X63339000Y-68001072D01*
X63424000Y-67992701D01*
X63509000Y-68001072D01*
X63739000Y-68001072D01*
X63824000Y-67992701D01*
X63909000Y-68001072D01*
X64139000Y-68001072D01*
X64224000Y-67992701D01*
X64309000Y-68001072D01*
X64539000Y-68001072D01*
X64624000Y-67992701D01*
X64709000Y-68001072D01*
X64939000Y-68001072D01*
X65024000Y-67992701D01*
X65109000Y-68001072D01*
X65339000Y-68001072D01*
X65424000Y-67992701D01*
X65509000Y-68001072D01*
X65739000Y-68001072D01*
X65824000Y-67992701D01*
X65909000Y-68001072D01*
X66087481Y-68001072D01*
X65090808Y-68997746D01*
X65062763Y-69020762D01*
X64970914Y-69132680D01*
X64952838Y-69166498D01*
X64902664Y-69260367D01*
X64874975Y-69351642D01*
X64798558Y-69392488D01*
X64665877Y-69501377D01*
X64556988Y-69634058D01*
X64476077Y-69785433D01*
X64426252Y-69949684D01*
X64409428Y-70120500D01*
X64409428Y-70595500D01*
X64426252Y-70766316D01*
X64476077Y-70930567D01*
X64556988Y-71081942D01*
X64665877Y-71214623D01*
X64798558Y-71323512D01*
X64949933Y-71404423D01*
X65114184Y-71454248D01*
X65285000Y-71471072D01*
X65885000Y-71471072D01*
X66055816Y-71454248D01*
X66220067Y-71404423D01*
X66370106Y-71324226D01*
X66418006Y-71363537D01*
X66528320Y-71422502D01*
X66648018Y-71458812D01*
X66772500Y-71471072D01*
X67024250Y-71468000D01*
X67183000Y-71309250D01*
X67183000Y-70485000D01*
X67437000Y-70485000D01*
X67437000Y-71309250D01*
X67595750Y-71468000D01*
X67847500Y-71471072D01*
X67971982Y-71458812D01*
X68091680Y-71422502D01*
X68201994Y-71363537D01*
X68298685Y-71284185D01*
X68378037Y-71187494D01*
X68437002Y-71077180D01*
X68473312Y-70957482D01*
X68485572Y-70833000D01*
X68483511Y-70706000D01*
X70505428Y-70706000D01*
X70517688Y-70830482D01*
X70553998Y-70950180D01*
X70612963Y-71060494D01*
X70692315Y-71157185D01*
X70789006Y-71236537D01*
X70899320Y-71295502D01*
X71019018Y-71331812D01*
X71143500Y-71344072D01*
X71395250Y-71341000D01*
X71554000Y-71182250D01*
X71554000Y-70358000D01*
X70667250Y-70358000D01*
X70508500Y-70516750D01*
X70505428Y-70706000D01*
X68483511Y-70706000D01*
X68482500Y-70643750D01*
X68323750Y-70485000D01*
X67437000Y-70485000D01*
X67183000Y-70485000D01*
X67163000Y-70485000D01*
X67163000Y-70231000D01*
X67183000Y-70231000D01*
X67183000Y-70211000D01*
X67437000Y-70211000D01*
X67437000Y-70231000D01*
X68323750Y-70231000D01*
X68482500Y-70072250D01*
X68485572Y-69883000D01*
X68473312Y-69758518D01*
X68472549Y-69756000D01*
X70505428Y-69756000D01*
X70508500Y-69945250D01*
X70667250Y-70104000D01*
X71554000Y-70104000D01*
X71554000Y-69279750D01*
X71808000Y-69279750D01*
X71808000Y-70104000D01*
X71828000Y-70104000D01*
X71828000Y-70358000D01*
X71808000Y-70358000D01*
X71808000Y-71182250D01*
X71966750Y-71341000D01*
X72218500Y-71344072D01*
X72342982Y-71331812D01*
X72462680Y-71295502D01*
X72572994Y-71236537D01*
X72620894Y-71197226D01*
X72770933Y-71277423D01*
X72935184Y-71327248D01*
X73106000Y-71344072D01*
X73706000Y-71344072D01*
X73876816Y-71327248D01*
X74041067Y-71277423D01*
X74192442Y-71196512D01*
X74325123Y-71087623D01*
X74404420Y-70991000D01*
X74932000Y-70991000D01*
X74937099Y-70996099D01*
X75098428Y-71103896D01*
X75277686Y-71178147D01*
X75467986Y-71216000D01*
X75662014Y-71216000D01*
X75852314Y-71178147D01*
X76031572Y-71103896D01*
X76192901Y-70996099D01*
X76330099Y-70858901D01*
X76437896Y-70697572D01*
X76512147Y-70518314D01*
X76550000Y-70328014D01*
X76550000Y-70133986D01*
X76512147Y-69943686D01*
X76437896Y-69764428D01*
X76330099Y-69603099D01*
X76192901Y-69465901D01*
X76031572Y-69358104D01*
X75852314Y-69283853D01*
X75662014Y-69246000D01*
X75467986Y-69246000D01*
X75277686Y-69283853D01*
X75098428Y-69358104D01*
X74937099Y-69465901D01*
X74932000Y-69471000D01*
X74404420Y-69471000D01*
X74325123Y-69374377D01*
X74192442Y-69265488D01*
X74041067Y-69184577D01*
X73876816Y-69134752D01*
X73706000Y-69117928D01*
X73106000Y-69117928D01*
X72935184Y-69134752D01*
X72770933Y-69184577D01*
X72620894Y-69264774D01*
X72572994Y-69225463D01*
X72462680Y-69166498D01*
X72342982Y-69130188D01*
X72218500Y-69117928D01*
X71966750Y-69121000D01*
X71808000Y-69279750D01*
X71554000Y-69279750D01*
X71395250Y-69121000D01*
X71143500Y-69117928D01*
X71019018Y-69130188D01*
X70899320Y-69166498D01*
X70789006Y-69225463D01*
X70692315Y-69304815D01*
X70612963Y-69401506D01*
X70553998Y-69511820D01*
X70517688Y-69631518D01*
X70505428Y-69756000D01*
X68472549Y-69756000D01*
X68437002Y-69638820D01*
X68423700Y-69613934D01*
X68445901Y-69599099D01*
X68583099Y-69461901D01*
X68690896Y-69300572D01*
X68765147Y-69121314D01*
X68803000Y-68931014D01*
X68803000Y-68736986D01*
X68765147Y-68546686D01*
X68690896Y-68367428D01*
X68583099Y-68206099D01*
X68445901Y-68068901D01*
X68284572Y-67961104D01*
X68105314Y-67886853D01*
X67984000Y-67862722D01*
X67984000Y-67658000D01*
X72791428Y-67658000D01*
X72803688Y-67782482D01*
X72839998Y-67902180D01*
X72898963Y-68012494D01*
X72978315Y-68109185D01*
X73075006Y-68188537D01*
X73185320Y-68247502D01*
X73305018Y-68283812D01*
X73429500Y-68296072D01*
X73681250Y-68293000D01*
X73840000Y-68134250D01*
X73840000Y-67310000D01*
X72953250Y-67310000D01*
X72794500Y-67468750D01*
X72791428Y-67658000D01*
X67984000Y-67658000D01*
X67984000Y-66958000D01*
X68101002Y-66958000D01*
X68101002Y-66799252D01*
X68259750Y-66958000D01*
X68359690Y-66960780D01*
X68484486Y-66952292D01*
X68605228Y-66919621D01*
X68717276Y-66864023D01*
X68816324Y-66787633D01*
X68885814Y-66708000D01*
X72791428Y-66708000D01*
X72794500Y-66897250D01*
X72953250Y-67056000D01*
X73840000Y-67056000D01*
X73840000Y-66231750D01*
X73681250Y-66073000D01*
X73429500Y-66069928D01*
X73305018Y-66082188D01*
X73185320Y-66118498D01*
X73075006Y-66177463D01*
X72978315Y-66256815D01*
X72898963Y-66353506D01*
X72839998Y-66463820D01*
X72803688Y-66583518D01*
X72791428Y-66708000D01*
X68885814Y-66708000D01*
X68898566Y-66693387D01*
X68960842Y-66584908D01*
X69000758Y-66466364D01*
X69014000Y-66366750D01*
X68913910Y-66266660D01*
X68960842Y-66184908D01*
X68978927Y-66131200D01*
X69113633Y-66090337D01*
X69241320Y-66022087D01*
X69353238Y-65930238D01*
X69376258Y-65902188D01*
X70069927Y-65208520D01*
X70100377Y-65245623D01*
X70233058Y-65354512D01*
X70384433Y-65435423D01*
X70548684Y-65485248D01*
X70719500Y-65502072D01*
X71319500Y-65502072D01*
X71490316Y-65485248D01*
X71654567Y-65435423D01*
X71804606Y-65355226D01*
X71852506Y-65394537D01*
X71962820Y-65453502D01*
X72082518Y-65489812D01*
X72207000Y-65502072D01*
X72458750Y-65499000D01*
X72617500Y-65340250D01*
X72617500Y-64516000D01*
X72871500Y-64516000D01*
X72871500Y-65340250D01*
X73030250Y-65499000D01*
X73282000Y-65502072D01*
X73406482Y-65489812D01*
X73526180Y-65453502D01*
X73636494Y-65394537D01*
X73733185Y-65315185D01*
X73812537Y-65218494D01*
X73871502Y-65108180D01*
X73907812Y-64988482D01*
X73920072Y-64864000D01*
X73917000Y-64674750D01*
X73758250Y-64516000D01*
X72871500Y-64516000D01*
X72617500Y-64516000D01*
X72597500Y-64516000D01*
X72597500Y-64262000D01*
X72617500Y-64262000D01*
X72617500Y-64242000D01*
X72871500Y-64242000D01*
X72871500Y-64262000D01*
X73758250Y-64262000D01*
X73917000Y-64103250D01*
X73920072Y-63914000D01*
X73907812Y-63789518D01*
X73893701Y-63743000D01*
X80166933Y-63743000D01*
X80223289Y-63799356D01*
X80396902Y-63915360D01*
X80589809Y-63995265D01*
X80794599Y-64036000D01*
X81003401Y-64036000D01*
X81208191Y-63995265D01*
X81401098Y-63915360D01*
X81409001Y-63910080D01*
X81409001Y-65852197D01*
X80838199Y-66423000D01*
X76690420Y-66423000D01*
X76611123Y-66326377D01*
X76478442Y-66217488D01*
X76327067Y-66136577D01*
X76162816Y-66086752D01*
X75992000Y-66069928D01*
X75392000Y-66069928D01*
X75221184Y-66086752D01*
X75056933Y-66136577D01*
X74906894Y-66216774D01*
X74858994Y-66177463D01*
X74748680Y-66118498D01*
X74628982Y-66082188D01*
X74504500Y-66069928D01*
X74252750Y-66073000D01*
X74094000Y-66231750D01*
X74094000Y-67056000D01*
X74114000Y-67056000D01*
X74114000Y-67310000D01*
X74094000Y-67310000D01*
X74094000Y-68134250D01*
X74252750Y-68293000D01*
X74504500Y-68296072D01*
X74628982Y-68283812D01*
X74748680Y-68247502D01*
X74858994Y-68188537D01*
X74906894Y-68149226D01*
X75056933Y-68229423D01*
X75221184Y-68279248D01*
X75392000Y-68296072D01*
X75992000Y-68296072D01*
X76162816Y-68279248D01*
X76327067Y-68229423D01*
X76478442Y-68148512D01*
X76611123Y-68039623D01*
X76690420Y-67943000D01*
X81115678Y-67943000D01*
X81153000Y-67946676D01*
X81190322Y-67943000D01*
X81190333Y-67943000D01*
X81301986Y-67932003D01*
X81445247Y-67888546D01*
X81577276Y-67817974D01*
X81693001Y-67723001D01*
X81716804Y-67693998D01*
X82315001Y-67095801D01*
X82315001Y-79935118D01*
X82308825Y-79925875D01*
X82074125Y-79691175D01*
X81798147Y-79506772D01*
X81491496Y-79379754D01*
X81165958Y-79315000D01*
X80834042Y-79315000D01*
X80508504Y-79379754D01*
X80201853Y-79506772D01*
X79925875Y-79691175D01*
X79691175Y-79925875D01*
X79506772Y-80201853D01*
X79379754Y-80508504D01*
X79315000Y-80834042D01*
X79315000Y-81165958D01*
X79379754Y-81491496D01*
X79506772Y-81798147D01*
X79691175Y-82074125D01*
X79925875Y-82308825D01*
X79935117Y-82315000D01*
X73930210Y-82315000D01*
X73916267Y-82244906D01*
X73842016Y-82065648D01*
X73734219Y-81904319D01*
X73597021Y-81767121D01*
X73435692Y-81659324D01*
X73256434Y-81585073D01*
X73066134Y-81547220D01*
X72933083Y-81547220D01*
X72874276Y-81405248D01*
X72766479Y-81243919D01*
X72629281Y-81106721D01*
X72574520Y-81070131D01*
X72574520Y-81038072D01*
X72900000Y-81038072D01*
X73024482Y-81025812D01*
X73144180Y-80989502D01*
X73254494Y-80930537D01*
X73351185Y-80851185D01*
X73430537Y-80754494D01*
X73489502Y-80644180D01*
X73525812Y-80524482D01*
X73538072Y-80400000D01*
X73538072Y-78600000D01*
X73525812Y-78475518D01*
X73489502Y-78355820D01*
X73430537Y-78245506D01*
X73351185Y-78148815D01*
X73254494Y-78069463D01*
X73144180Y-78010498D01*
X73024482Y-77974188D01*
X72900000Y-77961928D01*
X72585000Y-77961928D01*
X72585000Y-77922684D01*
X72554833Y-77771024D01*
X72495658Y-77628163D01*
X72409749Y-77499592D01*
X72300408Y-77390251D01*
X72171837Y-77304342D01*
X72028976Y-77245167D01*
X71877316Y-77215000D01*
X71722684Y-77215000D01*
X71571024Y-77245167D01*
X71538072Y-77258816D01*
X71538072Y-76900000D01*
X71525812Y-76775518D01*
X71489502Y-76655820D01*
X71430537Y-76545506D01*
X71351185Y-76448815D01*
X71254494Y-76369463D01*
X71144180Y-76310498D01*
X71024482Y-76274188D01*
X70900000Y-76261928D01*
X70600000Y-76261928D01*
X70500000Y-76271777D01*
X70400000Y-76261928D01*
X70100000Y-76261928D01*
X70000000Y-76271777D01*
X69900000Y-76261928D01*
X69600000Y-76261928D01*
X69500000Y-76271777D01*
X69400000Y-76261928D01*
X69100000Y-76261928D01*
X69000000Y-76271777D01*
X68900000Y-76261928D01*
X68600000Y-76261928D01*
X68500000Y-76271777D01*
X68400000Y-76261928D01*
X68100000Y-76261928D01*
X68000000Y-76271777D01*
X67900000Y-76261928D01*
X67600000Y-76261928D01*
X67500000Y-76271777D01*
X67400000Y-76261928D01*
X67100000Y-76261928D01*
X67000000Y-76271777D01*
X66900000Y-76261928D01*
X66600000Y-76261928D01*
X66500000Y-76271777D01*
X66400000Y-76261928D01*
X66100000Y-76261928D01*
X66000000Y-76271777D01*
X65900000Y-76261928D01*
X65600000Y-76261928D01*
X65500000Y-76271777D01*
X65400000Y-76261928D01*
X65100000Y-76261928D01*
X65000000Y-76271777D01*
X64900000Y-76261928D01*
X64600000Y-76261928D01*
X64500000Y-76271777D01*
X64400000Y-76261928D01*
X64100000Y-76261928D01*
X64000000Y-76271777D01*
X63900000Y-76261928D01*
X63600000Y-76261928D01*
X63500000Y-76271777D01*
X63400000Y-76261928D01*
X63100000Y-76261928D01*
X63000000Y-76271777D01*
X62900000Y-76261928D01*
X62600000Y-76261928D01*
X62500000Y-76271777D01*
X62400000Y-76261928D01*
X62100000Y-76261928D01*
X61975518Y-76274188D01*
X61855820Y-76310498D01*
X61745506Y-76369463D01*
X61648815Y-76448815D01*
X61569463Y-76545506D01*
X61510498Y-76655820D01*
X61474188Y-76775518D01*
X61461928Y-76900000D01*
X61461928Y-77258816D01*
X61428976Y-77245167D01*
X61277316Y-77215000D01*
X61122684Y-77215000D01*
X60971024Y-77245167D01*
X60828163Y-77304342D01*
X60699592Y-77390251D01*
X60590251Y-77499592D01*
X60504342Y-77628163D01*
X60445167Y-77771024D01*
X60415000Y-77922684D01*
X60415000Y-77961928D01*
X60100000Y-77961928D01*
X59975518Y-77974188D01*
X59855820Y-78010498D01*
X59745506Y-78069463D01*
X59648815Y-78148815D01*
X59569463Y-78245506D01*
X59510498Y-78355820D01*
X59474188Y-78475518D01*
X59461928Y-78600000D01*
X59461928Y-80400000D01*
X59474188Y-80524482D01*
X59510498Y-80644180D01*
X59569463Y-80754494D01*
X59648815Y-80851185D01*
X59745506Y-80930537D01*
X59855820Y-80989502D01*
X59975518Y-81025812D01*
X60100000Y-81038072D01*
X60404520Y-81038072D01*
X60404520Y-81078456D01*
X60434687Y-81230116D01*
X60493862Y-81372977D01*
X60579771Y-81501548D01*
X60689112Y-81610889D01*
X60817683Y-81696798D01*
X60960544Y-81755973D01*
X61112204Y-81786140D01*
X61266836Y-81786140D01*
X61418496Y-81755973D01*
X61461928Y-81737983D01*
X61461928Y-82100000D01*
X61474188Y-82224482D01*
X61501646Y-82315000D01*
X53064883Y-82315000D01*
X53074125Y-82308825D01*
X53308825Y-82074125D01*
X53493228Y-81798147D01*
X53620246Y-81491496D01*
X53685000Y-81165958D01*
X53685000Y-80834042D01*
X53620246Y-80508504D01*
X53493228Y-80201853D01*
X53308825Y-79925875D01*
X53074125Y-79691175D01*
X52798147Y-79506772D01*
X52491496Y-79379754D01*
X52165958Y-79315000D01*
X51834042Y-79315000D01*
X51508504Y-79379754D01*
X51201853Y-79506772D01*
X50925875Y-79691175D01*
X50691175Y-79925875D01*
X50685000Y-79935117D01*
X50685000Y-77146600D01*
X50936928Y-77146600D01*
X50936928Y-77996600D01*
X50949188Y-78121082D01*
X50985498Y-78240780D01*
X51044463Y-78351094D01*
X51123815Y-78447785D01*
X51220506Y-78527137D01*
X51330820Y-78586102D01*
X51450518Y-78622412D01*
X51575000Y-78634672D01*
X52425000Y-78634672D01*
X52549482Y-78622412D01*
X52669180Y-78586102D01*
X52779494Y-78527137D01*
X52876185Y-78447785D01*
X52955537Y-78351094D01*
X53014502Y-78240780D01*
X53050812Y-78121082D01*
X53063072Y-77996600D01*
X53063072Y-77146600D01*
X53050812Y-77022118D01*
X53014502Y-76902420D01*
X53012138Y-76897997D01*
X53019265Y-76880791D01*
X53060000Y-76676001D01*
X53060000Y-76467199D01*
X53019265Y-76262409D01*
X52939360Y-76069502D01*
X52823356Y-75895889D01*
X52675711Y-75748244D01*
X52502098Y-75632240D01*
X52309191Y-75552335D01*
X52104401Y-75511600D01*
X51895599Y-75511600D01*
X51690809Y-75552335D01*
X51497902Y-75632240D01*
X51324289Y-75748244D01*
X51176644Y-75895889D01*
X51060640Y-76069502D01*
X50980735Y-76262409D01*
X50940000Y-76467199D01*
X50940000Y-76676001D01*
X50980735Y-76880791D01*
X50987862Y-76897997D01*
X50985498Y-76902420D01*
X50949188Y-77022118D01*
X50936928Y-77146600D01*
X50685000Y-77146600D01*
X50685000Y-73577000D01*
X50936928Y-73577000D01*
X50949188Y-73701482D01*
X50985498Y-73821180D01*
X51044463Y-73931494D01*
X51123815Y-74028185D01*
X51220506Y-74107537D01*
X51330820Y-74166502D01*
X51450518Y-74202812D01*
X51575000Y-74215072D01*
X51714250Y-74212000D01*
X51873000Y-74053250D01*
X51873000Y-73279000D01*
X52127000Y-73279000D01*
X52127000Y-74053250D01*
X52285750Y-74212000D01*
X52425000Y-74215072D01*
X52549482Y-74202812D01*
X52669180Y-74166502D01*
X52779494Y-74107537D01*
X52876185Y-74028185D01*
X52955537Y-73931494D01*
X53014502Y-73821180D01*
X53050812Y-73701482D01*
X53063072Y-73577000D01*
X53060000Y-73437750D01*
X52901250Y-73279000D01*
X52127000Y-73279000D01*
X51873000Y-73279000D01*
X51098750Y-73279000D01*
X50940000Y-73437750D01*
X50936928Y-73577000D01*
X50685000Y-73577000D01*
X50685000Y-72727000D01*
X50936928Y-72727000D01*
X50940000Y-72866250D01*
X51098750Y-73025000D01*
X51398587Y-73025000D01*
X51497902Y-73091360D01*
X51690809Y-73171265D01*
X51895599Y-73212000D01*
X52104401Y-73212000D01*
X52309191Y-73171265D01*
X52502098Y-73091360D01*
X52601413Y-73025000D01*
X52901250Y-73025000D01*
X53060000Y-72866250D01*
X53063072Y-72727000D01*
X53050812Y-72602518D01*
X53014502Y-72482820D01*
X53012138Y-72478397D01*
X53019265Y-72461191D01*
X53060000Y-72256401D01*
X53060000Y-72047599D01*
X53019265Y-71842809D01*
X52939360Y-71649902D01*
X52823356Y-71476289D01*
X52675711Y-71328644D01*
X52502098Y-71212640D01*
X52309191Y-71132735D01*
X52104401Y-71092000D01*
X51895599Y-71092000D01*
X51690809Y-71132735D01*
X51497902Y-71212640D01*
X51324289Y-71328644D01*
X51176644Y-71476289D01*
X51060640Y-71649902D01*
X50980735Y-71842809D01*
X50940000Y-72047599D01*
X50940000Y-72256401D01*
X50980735Y-72461191D01*
X50987862Y-72478397D01*
X50985498Y-72482820D01*
X50949188Y-72602518D01*
X50936928Y-72727000D01*
X50685000Y-72727000D01*
X50685000Y-61685000D01*
X51966353Y-61685000D01*
X52000000Y-61688314D01*
X52134283Y-61675088D01*
X52263406Y-61635919D01*
X52382407Y-61572312D01*
X52486711Y-61486711D01*
X52572312Y-61382407D01*
X52635919Y-61263406D01*
X52675088Y-61134283D01*
X52685000Y-61033647D01*
X52688314Y-61000000D01*
X52685000Y-60966353D01*
X52685000Y-55033647D01*
X52688314Y-55000000D01*
X52675088Y-54865717D01*
X52635919Y-54736594D01*
X52572312Y-54617593D01*
X52486711Y-54513289D01*
X52382407Y-54427688D01*
X52263406Y-54364081D01*
X52134283Y-54324912D01*
X52033647Y-54315000D01*
X52000000Y-54311686D01*
X51966353Y-54315000D01*
X50685000Y-54315000D01*
X50685000Y-53064883D01*
X50691175Y-53074125D01*
X50925875Y-53308825D01*
X51201853Y-53493228D01*
X51508504Y-53620246D01*
X51834042Y-53685000D01*
X52165958Y-53685000D01*
X52491496Y-53620246D01*
X52798147Y-53493228D01*
X53074125Y-53308825D01*
X53308825Y-53074125D01*
X53493228Y-52798147D01*
X53620246Y-52491496D01*
X53685000Y-52165958D01*
X53685000Y-51834042D01*
X53674072Y-51779100D01*
X59334228Y-51779100D01*
X59334228Y-53988900D01*
X59346488Y-54113382D01*
X59382798Y-54233080D01*
X59441763Y-54343394D01*
X59521115Y-54440085D01*
X59617806Y-54519437D01*
X59728120Y-54578402D01*
X59847818Y-54614712D01*
X59972300Y-54626972D01*
X61775700Y-54626972D01*
X61900182Y-54614712D01*
X62019880Y-54578402D01*
X62130194Y-54519437D01*
X62226885Y-54440085D01*
X62306237Y-54343394D01*
X62365202Y-54233080D01*
X62401512Y-54113382D01*
X62413772Y-53988900D01*
X62413772Y-51779100D01*
X67634228Y-51779100D01*
X67634228Y-53988900D01*
X67646488Y-54113382D01*
X67682798Y-54233080D01*
X67741763Y-54343394D01*
X67821115Y-54440085D01*
X67917806Y-54519437D01*
X68028120Y-54578402D01*
X68147818Y-54614712D01*
X68272300Y-54626972D01*
X70075700Y-54626972D01*
X70200182Y-54614712D01*
X70319880Y-54578402D01*
X70430194Y-54519437D01*
X70526885Y-54440085D01*
X70606237Y-54343394D01*
X70665202Y-54233080D01*
X70701512Y-54113382D01*
X70713772Y-53988900D01*
X70713772Y-51779100D01*
X70701512Y-51654618D01*
X70665202Y-51534920D01*
X70606237Y-51424606D01*
X70526885Y-51327915D01*
X70430194Y-51248563D01*
X70319880Y-51189598D01*
X70200182Y-51153288D01*
X70075700Y-51141028D01*
X68272300Y-51141028D01*
X68147818Y-51153288D01*
X68028120Y-51189598D01*
X67917806Y-51248563D01*
X67821115Y-51327915D01*
X67741763Y-51424606D01*
X67682798Y-51534920D01*
X67646488Y-51654618D01*
X67634228Y-51779100D01*
X62413772Y-51779100D01*
X62401512Y-51654618D01*
X62365202Y-51534920D01*
X62306237Y-51424606D01*
X62226885Y-51327915D01*
X62130194Y-51248563D01*
X62019880Y-51189598D01*
X61900182Y-51153288D01*
X61775700Y-51141028D01*
X59972300Y-51141028D01*
X59847818Y-51153288D01*
X59728120Y-51189598D01*
X59617806Y-51248563D01*
X59521115Y-51327915D01*
X59441763Y-51424606D01*
X59382798Y-51534920D01*
X59346488Y-51654618D01*
X59334228Y-51779100D01*
X53674072Y-51779100D01*
X53620246Y-51508504D01*
X53493228Y-51201853D01*
X53308825Y-50925875D01*
X53074125Y-50691175D01*
X53064883Y-50685000D01*
X79935117Y-50685000D01*
X79925875Y-50691175D01*
G37*
%TD.AperFunction*%
D24*
X70897000Y-81427000D02*
X70603000Y-81427000D01*
X70603000Y-81173000D01*
X70897000Y-81173000D01*
X70897000Y-81427000D01*
%TA.AperFunction,Conductor*%
D25*
G36*
X70897000Y-81427000D02*
G01*
X70603000Y-81427000D01*
X70603000Y-81173000D01*
X70897000Y-81173000D01*
X70897000Y-81427000D01*
G37*
%TD.AperFunction*%
D24*
X71461928Y-80204220D02*
X71435519Y-80153078D01*
X71357548Y-80055269D01*
X71261994Y-79974551D01*
X71152528Y-79914026D01*
X71033358Y-79876020D01*
X70931750Y-79865000D01*
X70794630Y-80002120D01*
X70761994Y-79974551D01*
X70652528Y-79914026D01*
X70600769Y-79897519D01*
X70568250Y-79865000D01*
X70500000Y-79872402D01*
X70431750Y-79865000D01*
X70399231Y-79897519D01*
X70347472Y-79914026D01*
X70250789Y-79967483D01*
X70232727Y-79957828D01*
X70224520Y-79951093D01*
X70224520Y-79911326D01*
X70186667Y-79721026D01*
X70112416Y-79541768D01*
X70004619Y-79380439D01*
X69867421Y-79243241D01*
X69710025Y-79138072D01*
X69900000Y-79138072D01*
X70000000Y-79128223D01*
X70100000Y-79138072D01*
X70400000Y-79138072D01*
X70500000Y-79128223D01*
X70600000Y-79138072D01*
X70900000Y-79138072D01*
X71024482Y-79125812D01*
X71144180Y-79089502D01*
X71254494Y-79030537D01*
X71351185Y-78951185D01*
X71430537Y-78854494D01*
X71461928Y-78795767D01*
X71461928Y-80204220D01*
%TA.AperFunction,Conductor*%
D25*
G36*
X71461928Y-80204220D02*
G01*
X71435519Y-80153078D01*
X71357548Y-80055269D01*
X71261994Y-79974551D01*
X71152528Y-79914026D01*
X71033358Y-79876020D01*
X70931750Y-79865000D01*
X70794630Y-80002120D01*
X70761994Y-79974551D01*
X70652528Y-79914026D01*
X70600769Y-79897519D01*
X70568250Y-79865000D01*
X70500000Y-79872402D01*
X70431750Y-79865000D01*
X70399231Y-79897519D01*
X70347472Y-79914026D01*
X70250789Y-79967483D01*
X70232727Y-79957828D01*
X70224520Y-79951093D01*
X70224520Y-79911326D01*
X70186667Y-79721026D01*
X70112416Y-79541768D01*
X70004619Y-79380439D01*
X69867421Y-79243241D01*
X69710025Y-79138072D01*
X69900000Y-79138072D01*
X70000000Y-79128223D01*
X70100000Y-79138072D01*
X70400000Y-79138072D01*
X70500000Y-79128223D01*
X70600000Y-79138072D01*
X70900000Y-79138072D01*
X71024482Y-79125812D01*
X71144180Y-79089502D01*
X71254494Y-79030537D01*
X71351185Y-78951185D01*
X71430537Y-78854494D01*
X71461928Y-78795767D01*
X71461928Y-80204220D01*
G37*
%TD.AperFunction*%
%TD*%
M02*
