<svg xmlns="http://www.w3.org/2000/svg" viewBox="0 0 30.586 34.537"><defs><style>.cls-1{fill:#fff;stroke:#000;stroke-miterlimit:10;stroke-width:0.25px;}</style></defs><g id="Calque_2" data-name="Calque 2"><path class="cls-1" d="M18.411,12.164a2.824,2.824,0,0,0,2.541-3.052,2.932,2.932,0,0,0-2.968-2.588H12.6A2.933,2.933,0,0,0,9.634,9.112a2.824,2.824,0,0,0,2.541,3.052V13.61H10.758a.567.567,0,0,0-.567.567V27.446a.567.567,0,0,0,.567.567h9.071a.566.566,0,0,0,.566-.567V14.177a.566.566,0,0,0-.566-.567H18.411Z"/></g></svg>