%TF.GenerationSoftware,KiCad,Pcbnew,(5.1.10)-1*%
%TF.CreationDate,2021-12-14T10:57:29+01:00*%
%TF.ProjectId,MovuinoShieldPressure,4d6f7675-696e-46f5-9368-69656c645072,1.0*%
%TF.SameCoordinates,Original*%
%TF.FileFunction,Legend,Top*%
%TF.FilePolarity,Positive*%
%FSLAX46Y46*%
G04 Gerber Fmt 4.6, Leading zero omitted, Abs format (unit mm)*
G04 Created by KiCad (PCBNEW (5.1.10)-1) date 2021-12-14 10:57:29*
%MOMM*%
%LPD*%
G01*
G04 APERTURE LIST*
%ADD10C,0.100000*%
%ADD11C,0.120000*%
G04 APERTURE END LIST*
D10*
X109726190Y-62315952D02*
X109226190Y-62315952D01*
X109583333Y-62149285D01*
X109226190Y-61982619D01*
X109726190Y-61982619D01*
X109726190Y-61673095D02*
X109702380Y-61720714D01*
X109678571Y-61744523D01*
X109630952Y-61768333D01*
X109488095Y-61768333D01*
X109440476Y-61744523D01*
X109416666Y-61720714D01*
X109392857Y-61673095D01*
X109392857Y-61601666D01*
X109416666Y-61554047D01*
X109440476Y-61530238D01*
X109488095Y-61506428D01*
X109630952Y-61506428D01*
X109678571Y-61530238D01*
X109702380Y-61554047D01*
X109726190Y-61601666D01*
X109726190Y-61673095D01*
X109392857Y-61339761D02*
X109726190Y-61220714D01*
X109392857Y-61101666D01*
X109392857Y-60696904D02*
X109726190Y-60696904D01*
X109392857Y-60911190D02*
X109654761Y-60911190D01*
X109702380Y-60887380D01*
X109726190Y-60839761D01*
X109726190Y-60768333D01*
X109702380Y-60720714D01*
X109678571Y-60696904D01*
X109726190Y-60458809D02*
X109392857Y-60458809D01*
X109226190Y-60458809D02*
X109250000Y-60482619D01*
X109273809Y-60458809D01*
X109250000Y-60435000D01*
X109226190Y-60458809D01*
X109273809Y-60458809D01*
X109392857Y-60220714D02*
X109726190Y-60220714D01*
X109440476Y-60220714D02*
X109416666Y-60196904D01*
X109392857Y-60149285D01*
X109392857Y-60077857D01*
X109416666Y-60030238D01*
X109464285Y-60006428D01*
X109726190Y-60006428D01*
X109726190Y-59696904D02*
X109702380Y-59744523D01*
X109678571Y-59768333D01*
X109630952Y-59792142D01*
X109488095Y-59792142D01*
X109440476Y-59768333D01*
X109416666Y-59744523D01*
X109392857Y-59696904D01*
X109392857Y-59625476D01*
X109416666Y-59577857D01*
X109440476Y-59554047D01*
X109488095Y-59530238D01*
X109630952Y-59530238D01*
X109678571Y-59554047D01*
X109702380Y-59577857D01*
X109726190Y-59625476D01*
X109726190Y-59696904D01*
X109392857Y-58935000D02*
X109892857Y-58935000D01*
X109416666Y-58935000D02*
X109392857Y-58887380D01*
X109392857Y-58792142D01*
X109416666Y-58744523D01*
X109440476Y-58720714D01*
X109488095Y-58696904D01*
X109630952Y-58696904D01*
X109678571Y-58720714D01*
X109702380Y-58744523D01*
X109726190Y-58792142D01*
X109726190Y-58887380D01*
X109702380Y-58935000D01*
X109726190Y-58482619D02*
X109392857Y-58482619D01*
X109488095Y-58482619D02*
X109440476Y-58458809D01*
X109416666Y-58435000D01*
X109392857Y-58387380D01*
X109392857Y-58339761D01*
X109702380Y-57982619D02*
X109726190Y-58030238D01*
X109726190Y-58125476D01*
X109702380Y-58173095D01*
X109654761Y-58196904D01*
X109464285Y-58196904D01*
X109416666Y-58173095D01*
X109392857Y-58125476D01*
X109392857Y-58030238D01*
X109416666Y-57982619D01*
X109464285Y-57958809D01*
X109511904Y-57958809D01*
X109559523Y-58196904D01*
X109702380Y-57768333D02*
X109726190Y-57720714D01*
X109726190Y-57625476D01*
X109702380Y-57577857D01*
X109654761Y-57554047D01*
X109630952Y-57554047D01*
X109583333Y-57577857D01*
X109559523Y-57625476D01*
X109559523Y-57696904D01*
X109535714Y-57744523D01*
X109488095Y-57768333D01*
X109464285Y-57768333D01*
X109416666Y-57744523D01*
X109392857Y-57696904D01*
X109392857Y-57625476D01*
X109416666Y-57577857D01*
X109702380Y-57363571D02*
X109726190Y-57315952D01*
X109726190Y-57220714D01*
X109702380Y-57173095D01*
X109654761Y-57149285D01*
X109630952Y-57149285D01*
X109583333Y-57173095D01*
X109559523Y-57220714D01*
X109559523Y-57292142D01*
X109535714Y-57339761D01*
X109488095Y-57363571D01*
X109464285Y-57363571D01*
X109416666Y-57339761D01*
X109392857Y-57292142D01*
X109392857Y-57220714D01*
X109416666Y-57173095D01*
X109392857Y-56720714D02*
X109726190Y-56720714D01*
X109392857Y-56935000D02*
X109654761Y-56935000D01*
X109702380Y-56911190D01*
X109726190Y-56863571D01*
X109726190Y-56792142D01*
X109702380Y-56744523D01*
X109678571Y-56720714D01*
X109726190Y-56482619D02*
X109392857Y-56482619D01*
X109488095Y-56482619D02*
X109440476Y-56458809D01*
X109416666Y-56435000D01*
X109392857Y-56387380D01*
X109392857Y-56339761D01*
X109702380Y-55982619D02*
X109726190Y-56030238D01*
X109726190Y-56125476D01*
X109702380Y-56173095D01*
X109654761Y-56196904D01*
X109464285Y-56196904D01*
X109416666Y-56173095D01*
X109392857Y-56125476D01*
X109392857Y-56030238D01*
X109416666Y-55982619D01*
X109464285Y-55958809D01*
X109511904Y-55958809D01*
X109559523Y-56196904D01*
X109702380Y-55387380D02*
X109726190Y-55339761D01*
X109726190Y-55244523D01*
X109702380Y-55196904D01*
X109654761Y-55173095D01*
X109630952Y-55173095D01*
X109583333Y-55196904D01*
X109559523Y-55244523D01*
X109559523Y-55315952D01*
X109535714Y-55363571D01*
X109488095Y-55387380D01*
X109464285Y-55387380D01*
X109416666Y-55363571D01*
X109392857Y-55315952D01*
X109392857Y-55244523D01*
X109416666Y-55196904D01*
X109726190Y-54958809D02*
X109226190Y-54958809D01*
X109726190Y-54744523D02*
X109464285Y-54744523D01*
X109416666Y-54768333D01*
X109392857Y-54815952D01*
X109392857Y-54887380D01*
X109416666Y-54935000D01*
X109440476Y-54958809D01*
X109726190Y-54506428D02*
X109392857Y-54506428D01*
X109226190Y-54506428D02*
X109250000Y-54530238D01*
X109273809Y-54506428D01*
X109250000Y-54482619D01*
X109226190Y-54506428D01*
X109273809Y-54506428D01*
X109702380Y-54077857D02*
X109726190Y-54125476D01*
X109726190Y-54220714D01*
X109702380Y-54268333D01*
X109654761Y-54292142D01*
X109464285Y-54292142D01*
X109416666Y-54268333D01*
X109392857Y-54220714D01*
X109392857Y-54125476D01*
X109416666Y-54077857D01*
X109464285Y-54054047D01*
X109511904Y-54054047D01*
X109559523Y-54292142D01*
X109726190Y-53768333D02*
X109702380Y-53815952D01*
X109654761Y-53839761D01*
X109226190Y-53839761D01*
X109726190Y-53363571D02*
X109226190Y-53363571D01*
X109702380Y-53363571D02*
X109726190Y-53411190D01*
X109726190Y-53506428D01*
X109702380Y-53554047D01*
X109678571Y-53577857D01*
X109630952Y-53601666D01*
X109488095Y-53601666D01*
X109440476Y-53577857D01*
X109416666Y-53554047D01*
X109392857Y-53506428D01*
X109392857Y-53411190D01*
X109416666Y-53363571D01*
X109392857Y-52792142D02*
X109726190Y-52673095D01*
X109392857Y-52554047D01*
X109726190Y-52101666D02*
X109726190Y-52387380D01*
X109726190Y-52244523D02*
X109226190Y-52244523D01*
X109297619Y-52292142D01*
X109345238Y-52339761D01*
X109369047Y-52387380D01*
X109678571Y-51887380D02*
X109702380Y-51863571D01*
X109726190Y-51887380D01*
X109702380Y-51911190D01*
X109678571Y-51887380D01*
X109726190Y-51887380D01*
X109226190Y-51554047D02*
X109226190Y-51506428D01*
X109250000Y-51458809D01*
X109273809Y-51435000D01*
X109321428Y-51411190D01*
X109416666Y-51387380D01*
X109535714Y-51387380D01*
X109630952Y-51411190D01*
X109678571Y-51435000D01*
X109702380Y-51458809D01*
X109726190Y-51506428D01*
X109726190Y-51554047D01*
X109702380Y-51601666D01*
X109678571Y-51625476D01*
X109630952Y-51649285D01*
X109535714Y-51673095D01*
X109416666Y-51673095D01*
X109321428Y-51649285D01*
X109273809Y-51625476D01*
X109250000Y-51601666D01*
X109226190Y-51554047D01*
D11*
%TO.C,J2*%
X107870000Y-37080000D02*
X107870000Y-34420000D01*
X105270000Y-37080000D02*
X107870000Y-37080000D01*
X105270000Y-34420000D02*
X107870000Y-34420000D01*
X105270000Y-37080000D02*
X105270000Y-34420000D01*
X104000000Y-37080000D02*
X102670000Y-37080000D01*
X102670000Y-37080000D02*
X102670000Y-35750000D01*
%TD*%
M02*
