%TF.GenerationSoftware,KiCad,Pcbnew,(5.1.10)-1*%
%TF.CreationDate,2021-12-14T10:57:29+01:00*%
%TF.ProjectId,MovuinoShieldPressure,4d6f7675-696e-46f5-9368-69656c645072,1.0*%
%TF.SameCoordinates,Original*%
%TF.FileFunction,Paste,Top*%
%TF.FilePolarity,Positive*%
%FSLAX46Y46*%
G04 Gerber Fmt 4.6, Leading zero omitted, Abs format (unit mm)*
G04 Created by KiCad (PCBNEW (5.1.10)-1) date 2021-12-14 10:57:29*
%MOMM*%
%LPD*%
G01*
G04 APERTURE LIST*
%ADD10C,0.100000*%
G04 APERTURE END LIST*
D10*
%TO.C,J1*%
G36*
X100996600Y-42137800D02*
G01*
X100996600Y-42357800D01*
X102296600Y-42357800D01*
X102296600Y-42137800D01*
X100996600Y-42137800D01*
G37*
G36*
X104706600Y-42137800D02*
G01*
X104706600Y-42357800D01*
X106006600Y-42357800D01*
X106006600Y-42137800D01*
X104706600Y-42137800D01*
G37*
G36*
X100996600Y-50637800D02*
G01*
X100996600Y-50857800D01*
X102296600Y-50857800D01*
X102296600Y-50637800D01*
X100996600Y-50637800D01*
G37*
G36*
X104706600Y-50637800D02*
G01*
X104706600Y-50857800D01*
X106006600Y-50857800D01*
X106006600Y-50637800D01*
X104706600Y-50637800D01*
G37*
G36*
X100996600Y-50137800D02*
G01*
X100996600Y-50357800D01*
X102296600Y-50357800D01*
X102296600Y-50137800D01*
X100996600Y-50137800D01*
G37*
G36*
X100996600Y-49637800D02*
G01*
X100996600Y-49857800D01*
X102296600Y-49857800D01*
X102296600Y-49637800D01*
X100996600Y-49637800D01*
G37*
G36*
X100996600Y-49137800D02*
G01*
X100996600Y-49357800D01*
X102296600Y-49357800D01*
X102296600Y-49137800D01*
X100996600Y-49137800D01*
G37*
G36*
X100996600Y-48637800D02*
G01*
X100996600Y-48857800D01*
X102296600Y-48857800D01*
X102296600Y-48637800D01*
X100996600Y-48637800D01*
G37*
G36*
X100996600Y-48137800D02*
G01*
X100996600Y-48357800D01*
X102296600Y-48357800D01*
X102296600Y-48137800D01*
X100996600Y-48137800D01*
G37*
G36*
X100996600Y-47637800D02*
G01*
X100996600Y-47857800D01*
X102296600Y-47857800D01*
X102296600Y-47637800D01*
X100996600Y-47637800D01*
G37*
G36*
X100996600Y-47147800D02*
G01*
X100996600Y-47367800D01*
X102296600Y-47367800D01*
X102296600Y-47147800D01*
X100996600Y-47147800D01*
G37*
G36*
X100996600Y-46637800D02*
G01*
X100996600Y-46857800D01*
X102296600Y-46857800D01*
X102296600Y-46637800D01*
X100996600Y-46637800D01*
G37*
G36*
X100996600Y-46137800D02*
G01*
X100996600Y-46357800D01*
X102296600Y-46357800D01*
X102296600Y-46137800D01*
X100996600Y-46137800D01*
G37*
G36*
X100996600Y-45637800D02*
G01*
X100996600Y-45857800D01*
X102296600Y-45857800D01*
X102296600Y-45637800D01*
X100996600Y-45637800D01*
G37*
G36*
X100996600Y-45137800D02*
G01*
X100996600Y-45357800D01*
X102296600Y-45357800D01*
X102296600Y-45137800D01*
X100996600Y-45137800D01*
G37*
G36*
X100996600Y-44637800D02*
G01*
X100996600Y-44857800D01*
X102296600Y-44857800D01*
X102296600Y-44637800D01*
X100996600Y-44637800D01*
G37*
G36*
X100996600Y-44137800D02*
G01*
X100996600Y-44357800D01*
X102296600Y-44357800D01*
X102296600Y-44137800D01*
X100996600Y-44137800D01*
G37*
G36*
X100996600Y-43637800D02*
G01*
X100996600Y-43857800D01*
X102296600Y-43857800D01*
X102296600Y-43637800D01*
X100996600Y-43637800D01*
G37*
G36*
X100996600Y-43137800D02*
G01*
X100996600Y-43357800D01*
X102296600Y-43357800D01*
X102296600Y-43137800D01*
X100996600Y-43137800D01*
G37*
G36*
X104706600Y-50137800D02*
G01*
X104706600Y-50357800D01*
X106006600Y-50357800D01*
X106006600Y-50137800D01*
X104706600Y-50137800D01*
G37*
G36*
X104706600Y-49647800D02*
G01*
X104706600Y-49867800D01*
X106006600Y-49867800D01*
X106006600Y-49647800D01*
X104706600Y-49647800D01*
G37*
G36*
X104706600Y-49137800D02*
G01*
X104706600Y-49357800D01*
X106006600Y-49357800D01*
X106006600Y-49137800D01*
X104706600Y-49137800D01*
G37*
G36*
X104706600Y-48637800D02*
G01*
X104706600Y-48857800D01*
X106006600Y-48857800D01*
X106006600Y-48637800D01*
X104706600Y-48637800D01*
G37*
G36*
X104706600Y-48137800D02*
G01*
X104706600Y-48357800D01*
X106006600Y-48357800D01*
X106006600Y-48137800D01*
X104706600Y-48137800D01*
G37*
G36*
X104706600Y-47637800D02*
G01*
X104706600Y-47857800D01*
X106006600Y-47857800D01*
X106006600Y-47637800D01*
X104706600Y-47637800D01*
G37*
G36*
X104706600Y-47137800D02*
G01*
X104706600Y-47357800D01*
X106006600Y-47357800D01*
X106006600Y-47137800D01*
X104706600Y-47137800D01*
G37*
G36*
X104706600Y-46637800D02*
G01*
X104706600Y-46857800D01*
X106006600Y-46857800D01*
X106006600Y-46637800D01*
X104706600Y-46637800D01*
G37*
G36*
X104706600Y-46137800D02*
G01*
X104706600Y-46357800D01*
X106006600Y-46357800D01*
X106006600Y-46137800D01*
X104706600Y-46137800D01*
G37*
G36*
X104706600Y-45637800D02*
G01*
X104706600Y-45857800D01*
X106006600Y-45857800D01*
X106006600Y-45637800D01*
X104706600Y-45637800D01*
G37*
G36*
X104706600Y-45137800D02*
G01*
X104706600Y-45357800D01*
X106006600Y-45357800D01*
X106006600Y-45137800D01*
X104706600Y-45137800D01*
G37*
G36*
X104706600Y-44637800D02*
G01*
X104706600Y-44857800D01*
X106006600Y-44857800D01*
X106006600Y-44637800D01*
X104706600Y-44637800D01*
G37*
G36*
X104706600Y-44137800D02*
G01*
X104706600Y-44357800D01*
X106006600Y-44357800D01*
X106006600Y-44137800D01*
X104706600Y-44137800D01*
G37*
G36*
X104706600Y-43637800D02*
G01*
X104706600Y-43857800D01*
X106006600Y-43857800D01*
X106006600Y-43637800D01*
X104706600Y-43637800D01*
G37*
G36*
X104706600Y-43137800D02*
G01*
X104706600Y-43357800D01*
X106006600Y-43357800D01*
X106006600Y-43137800D01*
X104706600Y-43137800D01*
G37*
G36*
X104706600Y-42637800D02*
G01*
X104706600Y-42857800D01*
X106006600Y-42857800D01*
X106006600Y-42637800D01*
X104706600Y-42637800D01*
G37*
G36*
X100996600Y-42637800D02*
G01*
X100996600Y-42857800D01*
X102296600Y-42857800D01*
X102296600Y-42637800D01*
X100996600Y-42637800D01*
G37*
%TD*%
M02*
