%TF.GenerationSoftware,KiCad,Pcbnew,(5.1.10)-1*%
%TF.CreationDate,2021-12-14T10:57:29+01:00*%
%TF.ProjectId,MovuinoShieldPressure,4d6f7675-696e-46f5-9368-69656c645072,1.0*%
%TF.SameCoordinates,Original*%
%TF.FileFunction,Legend,Bot*%
%TF.FilePolarity,Positive*%
%FSLAX46Y46*%
G04 Gerber Fmt 4.6, Leading zero omitted, Abs format (unit mm)*
G04 Created by KiCad (PCBNEW (5.1.10)-1) date 2021-12-14 10:57:29*
%MOMM*%
%LPD*%
G01*
G04 APERTURE LIST*
%ADD10C,0.100000*%
%ADD11C,0.120000*%
%ADD12C,0.150000*%
G04 APERTURE END LIST*
D10*
X109726190Y-52482619D02*
X109226190Y-52482619D01*
X109702380Y-52482619D02*
X109726190Y-52435000D01*
X109726190Y-52339761D01*
X109702380Y-52292142D01*
X109678571Y-52268333D01*
X109630952Y-52244523D01*
X109488095Y-52244523D01*
X109440476Y-52268333D01*
X109416666Y-52292142D01*
X109392857Y-52339761D01*
X109392857Y-52435000D01*
X109416666Y-52482619D01*
X109702380Y-52911190D02*
X109726190Y-52863571D01*
X109726190Y-52768333D01*
X109702380Y-52720714D01*
X109654761Y-52696904D01*
X109464285Y-52696904D01*
X109416666Y-52720714D01*
X109392857Y-52768333D01*
X109392857Y-52863571D01*
X109416666Y-52911190D01*
X109464285Y-52935000D01*
X109511904Y-52935000D01*
X109559523Y-52696904D01*
X109702380Y-53125476D02*
X109726190Y-53173095D01*
X109726190Y-53268333D01*
X109702380Y-53315952D01*
X109654761Y-53339761D01*
X109630952Y-53339761D01*
X109583333Y-53315952D01*
X109559523Y-53268333D01*
X109559523Y-53196904D01*
X109535714Y-53149285D01*
X109488095Y-53125476D01*
X109464285Y-53125476D01*
X109416666Y-53149285D01*
X109392857Y-53196904D01*
X109392857Y-53268333D01*
X109416666Y-53315952D01*
X109726190Y-53554047D02*
X109392857Y-53554047D01*
X109226190Y-53554047D02*
X109250000Y-53530238D01*
X109273809Y-53554047D01*
X109250000Y-53577857D01*
X109226190Y-53554047D01*
X109273809Y-53554047D01*
X109392857Y-54006428D02*
X109797619Y-54006428D01*
X109845238Y-53982619D01*
X109869047Y-53958809D01*
X109892857Y-53911190D01*
X109892857Y-53839761D01*
X109869047Y-53792142D01*
X109702380Y-54006428D02*
X109726190Y-53958809D01*
X109726190Y-53863571D01*
X109702380Y-53815952D01*
X109678571Y-53792142D01*
X109630952Y-53768333D01*
X109488095Y-53768333D01*
X109440476Y-53792142D01*
X109416666Y-53815952D01*
X109392857Y-53863571D01*
X109392857Y-53958809D01*
X109416666Y-54006428D01*
X109392857Y-54244523D02*
X109726190Y-54244523D01*
X109440476Y-54244523D02*
X109416666Y-54268333D01*
X109392857Y-54315952D01*
X109392857Y-54387380D01*
X109416666Y-54435000D01*
X109464285Y-54458809D01*
X109726190Y-54458809D01*
X109702380Y-54887380D02*
X109726190Y-54839761D01*
X109726190Y-54744523D01*
X109702380Y-54696904D01*
X109654761Y-54673095D01*
X109464285Y-54673095D01*
X109416666Y-54696904D01*
X109392857Y-54744523D01*
X109392857Y-54839761D01*
X109416666Y-54887380D01*
X109464285Y-54911190D01*
X109511904Y-54911190D01*
X109559523Y-54673095D01*
X109726190Y-55339761D02*
X109226190Y-55339761D01*
X109702380Y-55339761D02*
X109726190Y-55292142D01*
X109726190Y-55196904D01*
X109702380Y-55149285D01*
X109678571Y-55125476D01*
X109630952Y-55101666D01*
X109488095Y-55101666D01*
X109440476Y-55125476D01*
X109416666Y-55149285D01*
X109392857Y-55196904D01*
X109392857Y-55292142D01*
X109416666Y-55339761D01*
X109726190Y-55958809D02*
X109226190Y-55958809D01*
X109416666Y-55958809D02*
X109392857Y-56006428D01*
X109392857Y-56101666D01*
X109416666Y-56149285D01*
X109440476Y-56173095D01*
X109488095Y-56196904D01*
X109630952Y-56196904D01*
X109678571Y-56173095D01*
X109702380Y-56149285D01*
X109726190Y-56101666D01*
X109726190Y-56006428D01*
X109702380Y-55958809D01*
X109392857Y-56363571D02*
X109726190Y-56482619D01*
X109392857Y-56601666D02*
X109726190Y-56482619D01*
X109845238Y-56435000D01*
X109869047Y-56411190D01*
X109892857Y-56363571D01*
X109583333Y-57149285D02*
X109583333Y-57387380D01*
X109726190Y-57101666D02*
X109226190Y-57268333D01*
X109726190Y-57435000D01*
X109726190Y-57815952D02*
X109226190Y-57815952D01*
X109702380Y-57815952D02*
X109726190Y-57768333D01*
X109726190Y-57673095D01*
X109702380Y-57625476D01*
X109678571Y-57601666D01*
X109630952Y-57577857D01*
X109488095Y-57577857D01*
X109440476Y-57601666D01*
X109416666Y-57625476D01*
X109392857Y-57673095D01*
X109392857Y-57768333D01*
X109416666Y-57815952D01*
X109726190Y-58054047D02*
X109392857Y-58054047D01*
X109488095Y-58054047D02*
X109440476Y-58077857D01*
X109416666Y-58101666D01*
X109392857Y-58149285D01*
X109392857Y-58196904D01*
X109726190Y-58363571D02*
X109392857Y-58363571D01*
X109226190Y-58363571D02*
X109250000Y-58339761D01*
X109273809Y-58363571D01*
X109250000Y-58387380D01*
X109226190Y-58363571D01*
X109273809Y-58363571D01*
X109702380Y-58792142D02*
X109726190Y-58744523D01*
X109726190Y-58649285D01*
X109702380Y-58601666D01*
X109654761Y-58577857D01*
X109464285Y-58577857D01*
X109416666Y-58601666D01*
X109392857Y-58649285D01*
X109392857Y-58744523D01*
X109416666Y-58792142D01*
X109464285Y-58815952D01*
X109511904Y-58815952D01*
X109559523Y-58577857D01*
X109392857Y-59030238D02*
X109726190Y-59030238D01*
X109440476Y-59030238D02*
X109416666Y-59054047D01*
X109392857Y-59101666D01*
X109392857Y-59173095D01*
X109416666Y-59220714D01*
X109464285Y-59244523D01*
X109726190Y-59244523D01*
X109726190Y-59863571D02*
X109226190Y-59863571D01*
X109464285Y-59863571D02*
X109464285Y-60149285D01*
X109726190Y-60149285D02*
X109226190Y-60149285D01*
X109392857Y-60601666D02*
X109726190Y-60601666D01*
X109392857Y-60387380D02*
X109654761Y-60387380D01*
X109702380Y-60411190D01*
X109726190Y-60458809D01*
X109726190Y-60530238D01*
X109702380Y-60577857D01*
X109678571Y-60601666D01*
X109702380Y-60815952D02*
X109726190Y-60863571D01*
X109726190Y-60958809D01*
X109702380Y-61006428D01*
X109654761Y-61030238D01*
X109630952Y-61030238D01*
X109583333Y-61006428D01*
X109559523Y-60958809D01*
X109559523Y-60887380D01*
X109535714Y-60839761D01*
X109488095Y-60815952D01*
X109464285Y-60815952D01*
X109416666Y-60839761D01*
X109392857Y-60887380D01*
X109392857Y-60958809D01*
X109416666Y-61006428D01*
X109702380Y-61220714D02*
X109726190Y-61268333D01*
X109726190Y-61363571D01*
X109702380Y-61411190D01*
X109654761Y-61435000D01*
X109630952Y-61435000D01*
X109583333Y-61411190D01*
X109559523Y-61363571D01*
X109559523Y-61292142D01*
X109535714Y-61244523D01*
X109488095Y-61220714D01*
X109464285Y-61220714D01*
X109416666Y-61244523D01*
X109392857Y-61292142D01*
X109392857Y-61363571D01*
X109416666Y-61411190D01*
X109726190Y-61720714D02*
X109702380Y-61673095D01*
X109678571Y-61649285D01*
X109630952Y-61625476D01*
X109488095Y-61625476D01*
X109440476Y-61649285D01*
X109416666Y-61673095D01*
X109392857Y-61720714D01*
X109392857Y-61792142D01*
X109416666Y-61839761D01*
X109440476Y-61863571D01*
X109488095Y-61887380D01*
X109630952Y-61887380D01*
X109678571Y-61863571D01*
X109702380Y-61839761D01*
X109726190Y-61792142D01*
X109726190Y-61720714D01*
X109392857Y-62101666D02*
X109726190Y-62101666D01*
X109440476Y-62101666D02*
X109416666Y-62125476D01*
X109392857Y-62173095D01*
X109392857Y-62244523D01*
X109416666Y-62292142D01*
X109464285Y-62315952D01*
X109726190Y-62315952D01*
D11*
%TO.C,R1*%
X105254724Y-55477500D02*
X104745276Y-55477500D01*
X105254724Y-56522500D02*
X104745276Y-56522500D01*
D12*
X105166666Y-58452380D02*
X105500000Y-57976190D01*
X105738095Y-58452380D02*
X105738095Y-57452380D01*
X105357142Y-57452380D01*
X105261904Y-57500000D01*
X105214285Y-57547619D01*
X105166666Y-57642857D01*
X105166666Y-57785714D01*
X105214285Y-57880952D01*
X105261904Y-57928571D01*
X105357142Y-57976190D01*
X105738095Y-57976190D01*
X104214285Y-58452380D02*
X104785714Y-58452380D01*
X104500000Y-58452380D02*
X104500000Y-57452380D01*
X104595238Y-57595238D01*
X104690476Y-57690476D01*
X104785714Y-57738095D01*
%TD*%
M02*
